<svg width="278" height="209" viewBox="0 0 278 209" fill="none" xmlns="http://www.w3.org/2000/svg">
<path d="M273.45 112.345V103.995C273.45 103.207 273.295 102.426 272.994 101.698C272.693 100.97 272.251 100.308 271.694 99.7503C271.137 99.1929 270.476 98.7507 269.749 98.449C269.021 98.1473 268.241 97.992 267.454 97.992H246.289C245.501 97.992 244.721 97.8367 243.994 97.535C243.266 97.2333 242.605 96.7911 242.049 96.2337C241.492 95.6762 241.05 95.0144 240.749 94.2861C240.447 93.5577 240.292 92.7771 240.292 91.9887V83.6393C240.292 82.0471 240.924 80.5202 242.049 79.3943C243.173 78.2685 244.698 77.636 246.289 77.636H246.957C247.744 77.636 248.524 77.4807 249.252 77.179C249.979 76.8774 250.64 76.4352 251.197 75.8777C251.754 75.3202 252.196 74.6584 252.497 73.9301C252.798 73.2017 252.953 72.4211 252.953 71.6327V63.2833C252.953 61.6911 252.322 60.1642 251.197 59.0383C250.072 57.9125 248.547 57.28 246.957 57.28H76.4518C75.6643 57.28 74.8845 57.4353 74.157 57.737C73.4295 58.0387 72.7685 58.4809 72.2116 59.0383C71.6548 59.5958 71.2131 60.2576 70.9118 60.9859C70.6104 61.7143 70.4553 62.4949 70.4553 63.2833V71.6327C70.4553 72.4211 70.6104 73.2017 70.9118 73.9301C71.2131 74.6584 71.6548 75.3202 72.2116 75.8777C72.7685 76.4352 73.4295 76.8773 74.157 77.179C74.8845 77.4807 75.6643 77.636 76.4518 77.636C78.0421 77.636 79.5673 78.2685 80.6919 79.3943C81.8164 80.5202 82.4482 82.0471 82.4482 83.6393V91.9887C82.4482 92.7771 82.2931 93.5577 81.9917 94.2861C81.6904 95.0144 81.2487 95.6762 80.6919 96.2337C80.135 96.7911 79.474 97.2333 78.7465 97.535C78.019 97.8367 77.2392 97.992 76.4518 97.992H53.2631C52.4756 97.992 51.6958 98.1473 50.9683 98.449C50.2408 98.7507 49.5798 99.1929 49.0229 99.7503C48.4661 100.308 48.0244 100.97 47.7231 101.698C47.4217 102.426 47.2666 103.207 47.2666 103.995V112.345C47.2666 113.937 47.8984 115.464 49.0229 116.59C50.1475 117.716 51.6727 118.348 53.2631 118.348H62.3619C63.9523 118.348 65.4775 118.98 66.6021 120.106C67.7266 121.232 68.3584 122.759 68.3584 124.351V132.701C68.3584 134.293 67.7266 135.82 66.6021 136.946C65.4775 138.072 63.9523 138.704 62.3619 138.704H62.3399C61.5525 138.704 60.7727 138.859 60.0452 139.161C59.3177 139.463 58.6566 139.905 58.0998 140.462C57.543 141.02 57.1013 141.682 56.8 142.41C56.4986 143.138 56.3435 143.919 56.3435 144.707V153.057C56.3435 153.845 56.4986 154.626 56.8 155.354C57.1013 156.082 57.543 156.744 58.0998 157.302C58.6566 157.859 59.3177 158.301 60.0452 158.603C60.7727 158.905 61.5525 159.06 62.3399 159.06H63.6564C64.4438 159.06 65.2236 159.215 65.9511 159.517C66.6786 159.819 67.3396 160.261 67.8965 160.818C68.4533 161.376 68.895 162.038 69.1963 162.766C69.4977 163.494 69.6528 164.275 69.6528 165.063V173.413C69.6528 174.201 69.4977 174.982 69.1963 175.71C68.895 176.438 68.4533 177.1 67.8965 177.658C67.3396 178.215 66.6786 178.657 65.9511 178.959C65.2236 179.261 64.4438 179.416 63.6564 179.416H42.0516C40.4613 179.416 38.936 180.048 37.8115 181.174C36.6869 182.3 36.0552 183.827 36.0552 185.419V193.769C36.0552 194.557 36.2103 195.338 36.5116 196.066C36.813 196.794 37.2547 197.456 37.8115 198.014C38.3683 198.571 39.0293 199.013 39.7569 199.315C40.4844 199.617 41.2641 199.772 42.0516 199.772H250.176C251.767 199.772 253.292 199.14 254.416 198.014C255.541 196.888 256.173 195.361 256.173 193.769V185.419C256.173 183.827 255.541 182.3 254.416 181.174C253.292 180.048 251.767 179.416 250.176 179.416H244.977C244.19 179.416 243.41 179.261 242.682 178.959C241.955 178.657 241.294 178.215 240.737 177.658C240.18 177.1 239.738 176.438 239.437 175.71C239.136 174.982 238.981 174.201 238.981 173.413V165.063C238.981 164.275 239.136 163.494 239.437 162.766C239.738 162.038 240.18 161.376 240.737 160.818C241.294 160.261 241.955 159.819 242.682 159.517C243.41 159.215 244.19 159.06 244.977 159.06H257.236C258.827 159.06 260.352 158.427 261.476 157.302C262.601 156.176 263.233 154.649 263.233 153.057V144.707C263.233 143.919 263.077 143.138 262.776 142.41C262.475 141.682 262.033 141.02 261.476 140.462C260.919 139.905 260.258 139.463 259.531 139.161C258.803 138.859 258.024 138.704 257.236 138.704H253.517C251.927 138.704 250.402 138.072 249.277 136.946C248.153 135.82 247.521 134.293 247.521 132.701V124.351C247.521 122.759 248.153 121.232 249.277 120.106C250.402 118.98 251.927 118.348 253.517 118.348H267.454C268.241 118.348 269.021 118.193 269.749 117.891C270.476 117.589 271.137 117.147 271.694 116.59C272.251 116.032 272.693 115.37 272.994 114.642C273.295 113.914 273.45 113.133 273.45 112.345Z" fill="#DBE8EC"/>
<path d="M195.458 63.2818C195.456 66.8746 194.03 70.3198 191.493 72.8609C188.956 75.4019 185.515 76.831 181.927 76.8342H131.365C128.791 76.8344 126.308 75.882 124.393 74.16C122.478 72.4381 121.266 70.0682 120.991 67.5061C120.716 64.9439 121.397 62.3703 122.902 60.2802C124.408 58.1901 126.632 56.7309 129.147 56.1833C129.348 53.1343 130.699 50.2757 132.926 48.186C135.153 46.0963 138.089 44.9315 141.141 44.9274C142.377 44.9275 143.605 45.1239 144.78 45.5094C146.562 42.0592 149.356 39.238 152.787 37.4254C156.219 35.6128 160.122 34.8957 163.973 35.3706C167.823 35.8455 171.436 37.4896 174.325 40.0818C177.214 42.6739 179.241 46.0897 180.134 49.8697C182.044 49.6112 183.988 49.765 185.834 50.3207C187.68 50.8764 189.387 51.8211 190.838 53.0915C192.29 54.3619 193.453 55.9285 194.25 57.6861C195.046 59.4437 195.458 61.3516 195.458 63.2818Z" fill="#B9D4DB"/>
<path d="M200.179 171.955L101.725 171.793C100.146 171.794 98.6311 171.168 97.5135 170.051C96.3959 168.934 95.7673 167.418 95.7659 165.837L83.9536 101.542C83.9522 99.9609 84.5783 98.4441 85.694 97.3252C86.8097 96.2064 88.3237 95.577 89.9029 95.5757H144.479C144.753 95.5755 158.009 112.448 158.273 112.483C161.955 112.98 217.57 123.417 216.117 126.84L206.129 165.989C206.13 167.57 205.504 169.087 204.388 170.206C203.272 171.325 201.758 171.954 200.179 171.955Z" fill="#E59413"/>
<path d="M90.844 152.626H119.197V123.072H86.6139C85.9142 123.072 85.2232 123.228 84.5915 123.53C83.9597 123.831 83.403 124.269 82.9621 124.813C82.5211 125.357 82.207 125.993 82.0425 126.674C81.878 127.355 81.8674 128.064 82.0114 128.75L86.2414 148.886C86.4636 149.944 87.0422 150.892 87.8802 151.573C88.7182 152.254 89.7647 152.626 90.844 152.626Z" fill="#409CB5"/>
<path d="M129.912 108.951C129.85 103.657 130.345 98.3722 131.387 93.1822C132.408 87.9686 134.106 82.911 136.437 78.138C137.615 75.7474 138.994 73.4621 140.56 71.3071C142.128 69.134 143.942 67.1506 145.967 65.3968C148.009 63.6262 150.307 62.1759 152.783 61.0953C155.3 60.0172 158.004 59.4481 160.742 59.4207C163.479 59.3933 166.194 59.9083 168.731 60.9359C171.254 61.9743 173.605 63.3895 175.704 65.1332C177.79 66.8645 179.669 68.8322 181.302 70.997C182.935 73.1455 184.381 75.4298 185.625 77.8251C188.091 82.6127 189.922 87.7025 191.072 92.9652C192.243 98.2144 192.86 103.572 192.914 108.951H190.163C190.224 103.755 189.74 98.5664 188.718 93.4716C187.722 88.3748 186.064 83.4304 183.787 78.7638C182.646 76.4438 181.309 74.2258 179.79 72.134C178.285 70.0448 176.543 68.1377 174.598 66.451C172.666 64.7728 170.49 63.397 168.147 62.3702C165.795 61.3595 163.267 60.825 160.708 60.7977C158.149 60.7703 155.611 61.2506 153.238 62.2108C150.848 63.1949 148.62 64.5357 146.63 66.1874C144.624 67.8513 142.818 69.7428 141.248 71.8239C139.662 73.909 138.258 76.126 137.05 78.4508C134.638 83.132 132.847 88.1087 131.723 93.2546C130.572 98.4087 129.965 103.67 129.912 108.951Z" fill="#409CB5"/>
<path d="M203.371 171.869L101.671 171.955C100.092 171.957 98.5766 171.33 97.459 170.213C96.3414 169.096 95.7128 167.58 95.7115 165.999L112.112 98.4738C112.111 96.8928 112.737 95.376 113.853 94.2571C114.969 93.1383 116.482 92.5089 118.062 92.5076L151.884 92.4789C152.84 92.4781 153.782 92.7077 154.63 93.1484C155.479 93.5891 156.209 94.228 156.759 95.0108L162.445 109.8C162.995 110.583 163.725 111.222 164.574 111.663C165.422 112.103 166.365 112.333 167.321 112.332L219.779 112.292C221.358 112.29 222.873 112.917 223.991 114.034C225.108 115.151 225.737 116.667 225.738 118.248L209.32 165.903C209.322 167.484 208.696 169.001 207.58 170.119C206.464 171.238 204.95 171.868 203.371 171.869Z" fill="#F9AE2B"/>
<path d="M125.746 124.955H203.742" stroke="#EE781D" stroke-width="5" stroke-miterlimit="10"/>
<path d="M119.197 140.444H197.192" stroke="#EE781D" stroke-width="5" stroke-miterlimit="10"/>
<path d="M111.051 156.47H189.047" stroke="#EE781D" stroke-width="5" stroke-miterlimit="10"/>
<path d="M172.144 141.803L191.725 125.235C191.896 125.09 192.105 124.997 192.327 124.967C192.55 124.937 192.776 124.972 192.979 125.066C193.182 125.161 193.354 125.311 193.475 125.501C193.596 125.69 193.66 125.909 193.66 126.134V128.283C193.66 128.595 193.784 128.894 194.004 129.115C194.225 129.336 194.524 129.46 194.836 129.46H221.914L244.771 126.266V159.014H194.836C194.524 159.014 194.225 159.138 194.004 159.358C193.784 159.579 193.66 159.879 193.66 160.191V161.788C193.66 162.02 193.592 162.246 193.464 162.439C193.336 162.632 193.154 162.783 192.941 162.873C192.728 162.963 192.493 162.988 192.266 162.945C192.039 162.902 191.829 162.793 191.664 162.632L172.083 143.545C171.966 143.431 171.873 143.293 171.812 143.14C171.751 142.988 171.722 142.824 171.728 142.66C171.734 142.496 171.774 142.335 171.846 142.187C171.917 142.04 172.019 141.909 172.144 141.803Z" fill="#409CB5"/>
<path d="M221.914 129.46H241.581C242.427 129.46 243.238 129.123 243.837 128.524C244.435 127.925 244.771 127.113 244.771 126.266C244.771 125.419 244.435 124.606 243.837 124.007C243.238 123.409 242.427 123.072 241.581 123.072H224.076L221.914 129.46Z" fill="#3086A3"/>
<path d="M198.424 102.572C198.059 103.333 197.643 104.067 197.178 104.771C196.725 105.467 196.242 106.133 195.743 106.782C195.243 107.43 194.718 108.054 194.18 108.663C193.641 109.273 193.08 109.86 192.511 110.439L191.54 111.423L190.566 110.439C189.995 109.862 189.434 109.274 188.894 108.666C188.357 108.055 187.83 107.433 187.331 106.784C186.831 106.136 186.348 105.47 185.896 104.774C185.431 104.069 185.016 103.334 184.652 102.572C185.413 102.936 186.148 103.352 186.852 103.817C187.547 104.269 188.212 104.753 188.86 105.253C189.509 105.753 190.129 106.28 190.739 106.819C191.347 107.359 191.934 107.92 192.51 108.492H190.566C191.144 107.921 191.731 107.36 192.339 106.821C192.948 106.281 193.572 105.757 194.219 105.256C194.867 104.756 195.532 104.272 196.227 103.819C196.93 103.354 197.664 102.937 198.424 102.572Z" fill="#409CB5"/>
<path d="M134.883 76.8342H141.815C141.815 76.8342 165.994 65.0302 157.164 57.3468C148.334 49.6634 134.883 76.8342 134.883 76.8342Z" fill="#B9D4DB"/>
<path d="M117.636 63.2817H99.8377C98.7433 63.2817 97.6938 63.7169 96.92 64.4916C96.1462 65.2663 95.7115 66.317 95.7115 67.4126V72.7033C95.7115 73.7988 95.2768 74.8495 94.503 75.6242C93.7292 76.3989 92.6797 76.8341 91.5854 76.8341H60.3647C59.2704 76.8341 58.2209 77.2693 57.4471 78.044C56.6733 78.8187 56.2385 79.8694 56.2385 80.965V85.9322C56.2385 87.0278 55.8038 88.0785 55.03 88.8532C54.2562 89.6279 53.2067 90.0631 52.1124 90.0631H44.1902C43.0959 90.0631 42.0463 89.6279 41.2725 88.8532C40.4987 88.0785 40.064 87.0278 40.064 85.9322V75.3572C40.064 74.2617 39.6293 73.211 38.8555 72.4363C38.0817 71.6616 37.0322 71.2264 35.9379 71.2264H28.6758C27.5815 71.2264 26.532 71.6616 25.7582 72.4363C24.9844 73.211 24.5497 74.2617 24.5497 75.3572V94.6701C24.5497 95.7656 24.9844 96.8163 25.7582 97.591C26.532 98.3657 27.5815 98.8009 28.6758 98.8009C29.7702 98.8009 30.8197 99.2361 31.5935 100.011C32.3673 100.786 32.802 101.836 32.802 102.932V113.286C32.802 114.382 33.2367 115.433 34.0105 116.207C34.7843 116.982 35.8338 117.417 36.9281 117.417H41.2193C42.3137 117.417 43.3632 117.853 44.137 118.627C44.9108 119.402 45.3455 120.453 45.3455 121.548V122.135C45.3455 123.231 45.7802 124.281 46.554 125.056C47.3278 125.831 48.3773 126.266 49.4717 126.266H75.714" stroke="#409CB5" stroke-width="2" stroke-miterlimit="10"/>
<path d="M195.458 63.2818H210.561C211.037 63.2818 211.509 63.1878 211.949 63.0054C212.389 62.8229 212.789 62.5554 213.125 62.2182C213.462 61.881 213.729 61.4807 213.912 61.0401C214.094 60.5996 214.188 60.1274 214.188 59.6505V38.8592C214.188 37.8961 214.57 36.9725 215.25 36.2915C215.93 35.6105 216.853 35.228 217.815 35.228H231.356C232.318 35.228 233.241 35.6105 233.921 36.2915C234.601 36.9725 234.984 37.8961 234.984 38.8592V77.9826C234.984 78.9456 235.366 79.8693 236.046 80.5502C236.726 81.2312 237.649 81.6138 238.611 81.6138H245.715C246.192 81.6138 246.663 81.7077 247.103 81.8902C247.544 82.0727 247.943 82.3402 248.28 82.6774C248.617 83.0146 248.884 83.4149 249.066 83.8554C249.249 84.296 249.343 84.7682 249.343 85.2451V88.8476C249.343 89.3244 249.249 89.7966 249.066 90.2372C248.884 90.6778 248.617 91.0781 248.28 91.4153C247.943 91.7524 247.544 92.0199 247.103 92.2024C246.663 92.3849 246.192 92.4788 245.715 92.4788H222.271C221.309 92.4788 220.387 92.8614 219.706 93.5424C219.026 94.2234 218.644 95.147 218.644 96.1101V97.9771C218.644 98.9402 219.026 99.8638 219.706 100.545C220.387 101.226 221.309 101.608 222.271 101.608H262.055C262.531 101.608 263.003 101.702 263.443 101.885C263.883 102.067 264.283 102.335 264.62 102.672C264.957 103.009 265.224 103.409 265.406 103.85C265.588 104.291 265.682 104.763 265.682 105.24V121.323C265.682 122.286 265.3 123.21 264.62 123.891C263.94 124.572 263.017 124.955 262.055 124.955H256.931C255.969 124.955 255.046 125.337 254.366 126.018C253.686 126.699 253.304 127.623 253.304 128.586C253.304 129.549 253.686 130.472 254.366 131.153C255.046 131.834 255.969 132.217 256.931 132.217H266.511C266.988 132.217 267.459 132.311 267.899 132.493C268.339 132.676 268.739 132.943 269.076 133.281C269.413 133.618 269.68 134.018 269.862 134.459C270.045 134.899 270.138 135.371 270.138 135.848V144.76C270.138 145.723 269.756 146.646 269.076 147.327C268.396 148.008 267.473 148.391 266.511 148.391H244.771" stroke="#409CB5" stroke-width="2" stroke-miterlimit="10"/>
<path d="M43.6548 170.615C47.978 170.615 51.4826 167.107 51.4826 162.779C51.4826 158.451 47.978 154.942 43.6548 154.942C39.3316 154.942 35.8269 158.451 35.8269 162.779C35.8269 167.107 39.3316 170.615 43.6548 170.615Z" fill="#B9D4DB"/>
<path d="M50.4549 177.791C51.8396 177.791 52.9622 176.667 52.9622 175.281C52.9622 173.895 51.8396 172.771 50.4549 172.771C49.0702 172.771 47.9477 173.895 47.9477 175.281C47.9477 176.667 49.0702 177.791 50.4549 177.791Z" fill="#B9D4DB"/>
<path d="M64.8039 176.678C67.5451 176.678 69.7673 174.453 69.7673 171.709C69.7673 168.964 67.5451 166.74 64.8039 166.74C62.0627 166.74 59.8405 168.964 59.8405 171.709C59.8405 174.453 62.0627 176.678 64.8039 176.678Z" fill="#B9D4DB"/>
<path d="M61.1843 161.658C63.6756 161.658 65.6953 159.636 65.6953 157.142C65.6953 154.648 63.6756 152.626 61.1843 152.626C58.693 152.626 56.6734 154.648 56.6734 157.142C56.6734 159.636 58.693 161.658 61.1843 161.658Z" fill="#B9D4DB"/>
<path d="M245.482 65.5713C249.806 65.5713 253.31 62.0626 253.31 57.7345C253.31 53.4064 249.806 49.8977 245.482 49.8977C241.159 49.8977 237.655 53.4064 237.655 57.7345C237.655 62.0626 241.159 65.5713 245.482 65.5713Z" fill="#B9D4DB"/>
<path d="M242.977 74.2575C244.362 74.2575 245.484 73.1337 245.484 71.7474C245.484 70.3611 244.362 69.2373 242.977 69.2373C241.592 69.2373 240.47 70.3611 240.47 71.7474C240.47 73.1337 241.592 74.2575 242.977 74.2575Z" fill="#B9D4DB"/>
<path d="M256.404 82.9146C259.145 82.9146 261.368 80.6899 261.368 77.9456C261.368 75.2013 259.145 72.9766 256.404 72.9766C253.663 72.9766 251.441 75.2013 251.441 77.9456C251.441 80.6899 253.663 82.9146 256.404 82.9146Z" fill="#B9D4DB"/>
<path d="M262.681 68.8299C265.173 68.8299 267.192 66.808 267.192 64.3138C267.192 61.8196 265.173 59.7977 262.681 59.7977C260.19 59.7977 258.17 61.8196 258.17 64.3138C258.17 66.808 260.19 68.8299 262.681 68.8299Z" fill="#B9D4DB"/>
<path d="M228.434 182.241C232.758 182.241 236.262 178.732 236.262 174.404C236.262 170.076 232.758 166.568 228.434 166.568C224.111 166.568 220.607 170.076 220.607 174.404C220.607 178.732 224.111 182.241 228.434 182.241Z" fill="#B9D4DB"/>
<path d="M220.606 193.259C221.991 193.259 223.113 192.135 223.113 190.749C223.113 189.363 221.991 188.239 220.606 188.239C219.222 188.239 218.099 189.363 218.099 190.749C218.099 192.135 219.222 193.259 220.606 193.259Z" fill="#B9D4DB"/>
<path d="M236.263 198.228C239.004 198.228 241.226 196.003 241.226 193.259C241.226 190.515 239.004 188.29 236.263 188.29C233.521 188.29 231.299 190.515 231.299 193.259C231.299 196.003 233.521 198.228 236.263 198.228Z" fill="#B9D4DB"/>
<path d="M243.48 183.437C245.972 183.437 247.991 181.415 247.991 178.92C247.991 176.426 245.972 174.404 243.48 174.404C240.989 174.404 238.969 176.426 238.969 178.92C238.969 181.415 240.989 183.437 243.48 183.437Z" fill="#B9D4DB"/>
<path d="M42.8483 60.2107C44.7497 60.2107 44.7497 62.9646 46.6512 62.9646C48.5521 62.9646 48.5521 60.2107 50.4529 60.2107C52.3551 60.2107 52.3551 62.9646 54.2572 62.9646C56.1594 62.9646 56.1594 60.2107 58.0615 60.2107" stroke="#409CB5" stroke-width="3" stroke-miterlimit="10" stroke-linecap="round"/>
<path d="M42.8483 65.0292C44.7497 65.0292 44.7497 67.7831 46.6512 67.7831C48.5521 67.7831 48.5521 65.0292 50.4529 65.0292C52.3551 65.0292 52.3551 67.7831 54.2572 67.7831C56.1594 67.7831 56.1594 65.0292 58.0615 65.0292" stroke="#409CB5" stroke-width="3" stroke-miterlimit="10" stroke-linecap="round"/>
<path d="M42.8483 69.8477C44.7497 69.8477 44.7497 72.6016 46.6512 72.6016C48.5521 72.6016 48.5521 69.8477 50.4529 69.8477C52.3551 69.8477 52.3551 72.6016 54.2572 72.6016C56.1594 72.6016 56.1594 69.8477 58.0615 69.8477" stroke="#409CB5" stroke-width="3" stroke-miterlimit="10" stroke-linecap="round"/>
<path d="M255.075 154.942C256.976 154.942 256.976 157.696 258.878 157.696C260.778 157.696 260.778 154.942 262.679 154.942C264.581 154.942 264.581 157.696 266.484 157.696C268.386 157.696 268.386 154.942 270.288 154.942" stroke="#409CB5" stroke-width="3" stroke-miterlimit="10" stroke-linecap="round"/>
<path d="M255.075 159.76C256.976 159.76 256.976 162.514 258.878 162.514C260.778 162.514 260.778 159.76 262.679 159.76C264.581 159.76 264.581 162.514 266.484 162.514C268.386 162.514 268.386 159.76 270.288 159.76" stroke="#409CB5" stroke-width="3" stroke-miterlimit="10" stroke-linecap="round"/>
<path d="M255.075 164.579C256.976 164.579 256.976 167.333 258.878 167.333C260.778 167.333 260.778 164.579 262.679 164.579C264.581 164.579 264.581 167.333 266.484 167.333C268.386 167.333 268.386 164.579 270.288 164.579" stroke="#409CB5" stroke-width="3" stroke-miterlimit="10" stroke-linecap="round"/>
<path d="M110.029 179.8C111.931 179.8 111.931 182.554 113.832 182.554C115.733 182.554 115.733 179.8 117.634 179.8C119.536 179.8 119.536 182.554 121.438 182.554C123.34 182.554 123.34 179.8 125.242 179.8" stroke="#409CB5" stroke-width="3" stroke-miterlimit="10" stroke-linecap="round"/>
<path d="M110.029 184.619C111.931 184.619 111.931 187.373 113.832 187.373C115.733 187.373 115.733 184.619 117.634 184.619C119.536 184.619 119.536 187.373 121.438 187.373C123.34 187.373 123.34 184.619 125.242 184.619" stroke="#409CB5" stroke-width="3" stroke-miterlimit="10" stroke-linecap="round"/>
<path d="M110.029 189.437C111.931 189.437 111.931 192.191 113.832 192.191C115.733 192.191 115.733 189.437 117.634 189.437C119.536 189.437 119.536 192.191 121.438 192.191C123.34 192.191 123.34 189.437 125.242 189.437" stroke="#409CB5" stroke-width="3" stroke-miterlimit="10" stroke-linecap="round"/>
</svg>
