<svg width="278" height="217" viewBox="0 0 278 217" fill="none" xmlns="http://www.w3.org/2000/svg">
<path d="M132.882 105.914C137.265 126.918 151.044 156.224 179.37 174.86C206.813 194.332 239.522 195.328 258.961 185.942C279.202 176.831 286.175 157.34 280.663 142.18C275.108 126.325 262.248 115.553 250.033 108.615C237.331 101.574 225.274 98.3677 210.042 95.2796C195.213 92.2871 179.55 87.5905 167.153 81.062C154.574 75.0264 145.262 67.158 138.95 69.2206C133.23 70.9128 128.357 84.2622 132.882 105.914Z" fill="#E7F0FE"/>
<path d="M163.868 135.493C160.846 114.251 148.981 84.1168 121.913 63.6945C95.7797 42.4941 63.2029 39.3926 43.2 47.5059C22.4139 55.2937 14.2018 74.2955 18.7271 89.778C23.25 105.959 35.3905 117.537 47.1324 125.247C59.3558 133.091 71.1805 137.068 86.1829 141.132C100.788 145.074 116.117 150.77 128.068 158.084C140.233 164.917 149.019 173.369 155.451 171.718C161.267 170.398 166.989 157.391 163.868 135.493Z" fill="#E7F0FE"/>
<path d="M170.372 178.849H131.247V199.07H170.372V178.849Z" fill="#A0C5FF"/>
<g opacity="0.3">
<path d="M170.372 191.972L131.247 187.616V178.849H170.372V191.972Z" fill="#000141"/>
</g>
<path d="M226.374 195.521H74.171C70.9658 195.521 68.3668 198.122 68.3668 201.329H232.179C232.178 198.121 229.58 195.521 226.374 195.521Z" fill="#C7DBFF"/>
<path d="M265.999 44.5813V173.82C265.999 179.088 261.724 183.366 256.459 183.366H51.8494C47.3928 183.366 43.6476 180.297 42.6015 176.154C42.4113 175.405 42.3134 174.625 42.3134 173.82V44.5813C42.3134 39.308 46.5884 35.0349 51.8486 35.0349H256.458C261.724 35.0349 265.999 39.308 265.999 44.5813Z" fill="#A0C5FF"/>
<path d="M252.83 40.4685H55.4818C51.2076 40.4685 47.7426 43.9358 47.7426 48.2129V170.186C47.7426 174.463 51.2076 177.93 55.4818 177.93H252.83C257.104 177.93 260.569 174.463 260.569 170.186V48.2129C260.569 43.9358 257.104 40.4685 252.83 40.4685Z" fill="#E7F0FE"/>
<path d="M252.83 40.4685H55.4818C51.2076 40.4685 47.7426 43.9358 47.7426 48.2129V170.186C47.7426 174.463 51.2076 177.93 55.4818 177.93H252.83C257.104 177.93 260.569 174.463 260.569 170.186V48.2129C260.569 43.9358 257.104 40.4685 252.83 40.4685Z" fill="#E7F0FE"/>
<path d="M252.83 45.1185H166.12V173.279H252.83C254.535 173.279 255.922 171.891 255.922 170.186V48.2129C255.922 46.5065 254.534 45.1185 252.83 45.1185Z" fill="white"/>
<path d="M46.2804 201.965H262.033C262.622 201.965 263.101 201.486 263.101 200.896C263.101 200.306 262.622 199.827 262.033 199.827H46.2804C45.6907 199.827 45.2123 200.306 45.2123 200.896C45.2123 201.487 45.6899 201.965 46.2804 201.965Z" fill="#A0C5FF"/>
<path d="M185.329 68.1012C182.311 68.1012 179.866 70.5478 179.866 73.5672C179.866 76.5866 182.312 79.0332 185.329 79.0332C188.346 79.0332 190.791 76.5866 190.791 73.5672C190.791 70.5486 188.346 68.1012 185.329 68.1012ZM185.329 78.135C182.807 78.135 180.759 76.0913 180.759 73.568C180.759 71.0447 182.807 69.001 185.329 69.001C187.85 69.001 189.893 71.0447 189.893 73.568C189.893 76.0913 187.85 78.135 185.329 78.135Z" fill="#A0C5FF"/>
<path d="M211.51 69.37H197.137C196.783 69.37 196.456 69.6117 196.399 69.9609C196.326 70.4057 196.668 70.7904 197.099 70.7904H211.51C211.902 70.7904 212.22 70.472 212.22 70.0802C212.22 69.6884 211.902 69.37 211.51 69.37Z" fill="#A0C5FF"/>
<path d="M238.959 69.37H213.894C213.502 69.37 213.185 69.6884 213.185 70.0802C213.185 70.4728 213.503 70.7904 213.894 70.7904H238.997C239.428 70.7904 239.77 70.4057 239.697 69.9609C239.641 69.6117 239.313 69.37 238.959 69.37Z" fill="#A0C5FF"/>
<path d="M217.706 72.8571H197.138C196.784 72.8571 196.456 73.0988 196.4 73.448C196.327 73.8927 196.669 74.2775 197.1 74.2775H217.707C218.099 74.2775 218.416 73.9591 218.416 73.5673C218.416 73.1754 218.097 72.8571 217.706 72.8571Z" fill="#A0C5FF"/>
<path d="M217.706 76.3448H197.138C196.784 76.3448 196.456 76.5866 196.4 76.9358C196.327 77.3805 196.669 77.7661 197.1 77.7661H217.707C218.099 77.7661 218.416 77.4477 218.416 77.0558C218.416 76.6624 218.097 76.3448 217.706 76.3448Z" fill="#A0C5FF"/>
<path d="M238.959 72.8571H220.089C219.698 72.8571 219.38 73.1754 219.38 73.5673C219.38 73.9599 219.698 74.2775 220.089 74.2775H238.996C239.428 74.2775 239.769 73.8927 239.697 73.448C239.641 73.0996 239.313 72.8571 238.959 72.8571Z" fill="#A0C5FF"/>
<path d="M185.25 76.2951C185.161 76.2951 185.073 76.2864 184.985 76.2683C184.641 76.1972 184.34 75.991 184.15 75.6955L182.217 72.7006C181.824 72.0931 181.999 71.2818 182.607 70.8892C183.215 70.495 184.025 70.6711 184.418 71.2786L185.628 73.1549L191.88 68.9671C192.481 68.5626 193.294 68.7246 193.696 69.3273C194.099 69.9277 193.938 70.7414 193.336 71.1443L185.979 76.0731C185.761 76.2193 185.507 76.2951 185.25 76.2951Z" fill="#A0C5FF"/>
<path d="M228.782 92.0682C228.782 95.0876 231.227 97.5342 234.245 97.5342C237.262 97.5342 239.707 95.0876 239.707 92.0682C239.707 89.0488 237.262 86.6022 234.245 86.6022C231.227 86.6022 228.782 89.0488 228.782 92.0682ZM229.681 92.0682C229.681 89.5449 231.723 87.5012 234.245 87.5012C236.766 87.5012 238.814 89.5449 238.814 92.0682C238.814 94.5914 236.766 96.6352 234.245 96.6352C231.723 96.6352 229.681 94.5914 229.681 92.0682Z" fill="#A0C5FF"/>
<path d="M208.063 87.8708H222.437C222.79 87.8708 223.118 88.1126 223.175 88.4618C223.247 88.9065 222.905 89.2913 222.474 89.2913H208.063C207.671 89.2913 207.354 88.9729 207.354 88.5811C207.354 88.1884 207.672 87.8708 208.063 87.8708Z" fill="#A0C5FF"/>
<path d="M180.614 87.8708H205.679C206.072 87.8708 206.389 88.1892 206.389 88.5811C206.389 88.9737 206.071 89.2913 205.679 89.2913H180.576C180.145 89.2913 179.803 88.9065 179.876 88.4618C179.933 88.1126 180.26 87.8708 180.614 87.8708Z" fill="#A0C5FF"/>
<path d="M201.868 91.3579H222.436C222.789 91.3579 223.117 91.5996 223.174 91.9488C223.246 92.3936 222.905 92.7783 222.474 92.7783H201.867C201.474 92.7783 201.157 92.46 201.157 92.0681C201.158 91.6763 201.476 91.3579 201.868 91.3579Z" fill="#A0C5FF"/>
<path d="M201.868 94.845H222.436C222.789 94.845 223.117 95.0867 223.174 95.4359C223.246 95.8807 222.905 96.2662 222.474 96.2662H201.867C201.474 96.2662 201.157 95.9478 201.157 95.556C201.158 95.1633 201.476 94.845 201.868 94.845Z" fill="#A0C5FF"/>
<path d="M180.615 91.3579H199.484C199.876 91.3579 200.194 91.6763 200.194 92.0681C200.194 92.4607 199.876 92.7783 199.484 92.7783H180.576C180.145 92.7783 179.803 92.3936 179.876 91.9488C179.933 91.5996 180.261 91.3579 180.615 91.3579Z" fill="#A0C5FF"/>
<path d="M234.853 94.1522C234.765 94.1522 234.677 94.1435 234.589 94.1253C234.245 94.0542 233.944 93.848 233.754 93.5526L231.82 90.5577C231.428 89.9502 231.602 89.1389 232.21 88.7462C232.818 88.352 233.628 88.5282 234.021 89.1357L235.232 91.0119L241.483 86.8242C242.084 86.4197 242.897 86.5816 243.3 87.1844C243.703 87.7848 243.542 88.5985 242.94 89.0014L235.582 93.9302C235.365 94.0764 235.111 94.1522 234.853 94.1522Z" fill="#A0C5FF"/>
<path d="M224.093 159.399C224.093 159.399 220.771 168.072 217.977 173.075C222.857 173.075 226.558 173.075 226.558 173.075V162.006L224.093 159.399Z" fill="#FECECC"/>
<path d="M234.486 146.771C234.486 146.771 226.653 152.231 223.247 159.323C223.247 159.323 227.927 168.418 230.721 166.954C234.801 164.815 234.486 146.771 234.486 146.771Z" fill="#A0C5FF"/>
<path d="M249.752 173.075C249.617 161.583 246.182 146.562 236.98 146.352C229.623 146.185 224.955 161.077 224.092 173.075H249.752Z" fill="#5D74E4"/>
<path d="M230.99 153.691C230.956 153.691 230.922 153.673 230.902 153.641C230.872 153.592 230.888 153.529 230.937 153.499C231.426 153.201 231.302 152.712 231.297 152.691C231.282 152.636 231.315 152.579 231.369 152.564C231.424 152.549 231.481 152.581 231.497 152.636C231.559 152.862 231.545 153.371 231.045 153.675C231.028 153.686 231.009 153.691 230.99 153.691Z" fill="#A0C5FF"/>
<path d="M233.486 158.479C233.451 158.479 233.417 158.461 233.398 158.429C233.368 158.38 233.383 158.316 233.432 158.287C233.922 157.989 233.798 157.5 233.792 157.479C233.777 157.424 233.81 157.367 233.865 157.352C233.919 157.337 233.976 157.37 233.992 157.424C234.054 157.65 234.04 158.158 233.54 158.463C233.523 158.474 233.505 158.479 233.486 158.479Z" fill="#A0C5FF"/>
<path d="M238.644 154.428C238.609 154.428 238.575 154.411 238.555 154.379C238.525 154.33 238.541 154.266 238.59 154.236C239.079 153.939 238.956 153.45 238.95 153.429C238.935 153.374 238.968 153.317 239.023 153.302C239.077 153.287 239.134 153.319 239.15 153.374C239.212 153.6 239.198 154.108 238.698 154.413C238.681 154.424 238.662 154.428 238.644 154.428Z" fill="#A0C5FF"/>
<path d="M231.452 161.237C231.452 161.271 231.434 161.305 231.402 161.325C231.353 161.355 231.289 161.339 231.26 161.29C230.962 160.801 230.473 160.925 230.453 160.93C230.398 160.945 230.341 160.912 230.326 160.857C230.31 160.803 230.343 160.746 230.398 160.73C230.623 160.668 231.131 160.682 231.436 161.182C231.447 161.2 231.452 161.218 231.452 161.237Z" fill="#A0C5FF"/>
<path d="M226.662 165.658C226.627 165.658 226.593 165.641 226.573 165.609C226.543 165.56 226.559 165.496 226.608 165.466C227.098 165.168 226.974 164.679 226.968 164.659C226.953 164.604 226.986 164.547 227.041 164.532C227.095 164.517 227.152 164.549 227.168 164.604C227.23 164.83 227.216 165.338 226.716 165.642C226.699 165.654 226.68 165.658 226.662 165.658Z" fill="#A0C5FF"/>
<path d="M230.37 155.836C230.367 155.801 230.381 155.766 230.411 155.743C230.457 155.709 230.522 155.718 230.555 155.763C230.898 156.222 231.373 156.053 231.392 156.046C231.446 156.026 231.505 156.053 231.526 156.106C231.546 156.159 231.519 156.219 231.466 156.24C231.246 156.324 230.74 156.358 230.389 155.888C230.379 155.873 230.372 155.854 230.37 155.836Z" fill="#A0C5FF"/>
<path d="M236.27 152.182C236.267 152.147 236.281 152.111 236.311 152.088C236.357 152.055 236.421 152.064 236.456 152.11C236.799 152.569 237.273 152.399 237.293 152.392C237.347 152.372 237.406 152.399 237.426 152.453C237.447 152.506 237.42 152.566 237.366 152.586C237.148 152.67 236.641 152.704 236.289 152.235C236.278 152.218 236.272 152.2 236.27 152.182Z" fill="#A0C5FF"/>
<path d="M232.634 165.312C232.631 165.277 232.645 165.242 232.675 165.219C232.721 165.185 232.786 165.194 232.82 165.24C233.162 165.699 233.637 165.529 233.657 165.522C233.71 165.503 233.769 165.529 233.79 165.583C233.811 165.636 233.784 165.696 233.73 165.717C233.511 165.8 233.004 165.834 232.653 165.365C232.643 165.349 232.636 165.33 232.634 165.312Z" fill="#A0C5FF"/>
<path d="M237.695 157.743C237.691 157.709 237.706 157.673 237.736 157.65C237.781 157.616 237.846 157.626 237.881 157.671C238.224 158.13 238.698 157.96 238.718 157.953C238.771 157.933 238.831 157.96 238.851 158.013C238.872 158.066 238.845 158.126 238.791 158.147C238.572 158.231 238.066 158.265 237.714 157.795C237.703 157.78 237.696 157.761 237.695 157.743Z" fill="#A0C5FF"/>
<path d="M226.243 161.685C226.24 161.65 226.254 161.614 226.284 161.591C226.33 161.557 226.395 161.567 226.429 161.613C226.772 162.072 227.246 161.902 227.266 161.895C227.319 161.875 227.379 161.902 227.399 161.956C227.42 162.009 227.393 162.069 227.339 162.089C227.12 162.173 226.614 162.207 226.262 161.738C226.252 161.721 226.245 161.703 226.243 161.685Z" fill="#A0C5FF"/>
<path d="M235.217 154.951C235.028 154.951 234.898 154.839 234.733 154.695C234.657 154.629 234.572 154.555 234.464 154.476C234.221 154.298 234.187 154.329 234.023 154.477C233.933 154.558 233.809 154.669 233.617 154.767C233.439 154.858 233.273 154.873 233.12 154.812C232.85 154.703 232.738 154.39 232.734 154.377C232.715 154.323 232.745 154.264 232.798 154.245C232.852 154.226 232.911 154.255 232.93 154.308C232.931 154.311 233.016 154.547 233.199 154.62C233.295 154.658 233.401 154.646 233.524 154.583C233.692 154.497 233.799 154.401 233.885 154.323C234.086 154.143 234.227 154.046 234.587 154.309C234.702 154.393 234.791 154.47 234.869 154.538C235.115 154.752 235.189 154.816 235.503 154.654C235.554 154.627 235.616 154.647 235.643 154.698C235.669 154.748 235.649 154.811 235.599 154.838C235.442 154.918 235.321 154.951 235.217 154.951Z" fill="#A0C5FF"/>
<path d="M237.092 164.931C236.902 164.931 236.773 164.818 236.607 164.674C236.531 164.608 236.446 164.534 236.338 164.455C236.095 164.277 236.061 164.308 235.897 164.456C235.807 164.537 235.683 164.648 235.491 164.747C235.314 164.837 235.147 164.852 234.995 164.791C234.724 164.682 234.613 164.369 234.609 164.356C234.59 164.302 234.618 164.243 234.673 164.224C234.726 164.205 234.785 164.233 234.804 164.287C234.805 164.289 234.891 164.525 235.074 164.599C235.169 164.637 235.275 164.625 235.398 164.562C235.566 164.476 235.674 164.379 235.76 164.302C235.96 164.122 236.102 164.025 236.462 164.288C236.576 164.371 236.665 164.449 236.743 164.517C236.989 164.73 237.063 164.795 237.377 164.632C237.428 164.606 237.49 164.626 237.517 164.676C237.543 164.727 237.523 164.789 237.473 164.816C237.317 164.897 237.195 164.931 237.092 164.931Z" fill="#A0C5FF"/>
<path d="M227.893 159.399C227.885 159.399 227.876 159.398 227.867 159.396C227.593 159.325 227.473 159.154 227.42 159.024C227.323 158.779 227.389 158.493 227.498 158.318C227.69 158.008 227.76 157.752 227.474 157.51C227.329 157.387 227.308 157.26 227.316 157.174C227.34 156.909 227.666 156.716 227.703 156.695C227.753 156.667 227.816 156.684 227.844 156.734C227.873 156.783 227.856 156.847 227.806 156.875C227.736 156.915 227.534 157.059 227.522 157.193C227.52 157.213 227.514 157.273 227.608 157.351C228.089 157.759 227.788 158.244 227.674 158.427C227.595 158.553 227.542 158.77 227.613 158.946C227.663 159.071 227.766 159.155 227.919 159.195C227.975 159.209 228.008 159.266 227.994 159.321C227.982 159.368 227.939 159.399 227.893 159.399Z" fill="#A0C5FF"/>
<path d="M230.012 171.952C230.003 171.952 229.994 171.951 229.986 171.949C229.711 171.878 229.591 171.707 229.539 171.577C229.441 171.332 229.507 171.046 229.616 170.871C229.809 170.561 229.878 170.305 229.592 170.063C229.447 169.94 229.426 169.813 229.434 169.728C229.458 169.462 229.784 169.269 229.821 169.248C229.871 169.22 229.934 169.237 229.963 169.287C229.991 169.337 229.974 169.4 229.924 169.428C229.854 169.468 229.652 169.612 229.641 169.747C229.639 169.766 229.633 169.826 229.727 169.905C230.208 170.312 229.907 170.797 229.793 170.98C229.714 171.106 229.661 171.323 229.732 171.5C229.782 171.624 229.885 171.708 230.038 171.748C230.094 171.762 230.127 171.819 230.113 171.874C230.099 171.921 230.057 171.952 230.012 171.952Z" fill="#A0C5FF"/>
<path d="M229.007 168.866C228.998 168.866 228.989 168.865 228.981 168.863C228.706 168.791 228.586 168.621 228.534 168.49C228.436 168.246 228.502 167.96 228.611 167.784C228.804 167.474 228.873 167.219 228.587 166.977C228.442 166.854 228.421 166.726 228.429 166.641C228.453 166.376 228.779 166.183 228.816 166.161C228.866 166.133 228.929 166.15 228.958 166.2C228.986 166.25 228.969 166.313 228.919 166.342C228.849 166.382 228.647 166.526 228.636 166.66C228.634 166.68 228.628 166.74 228.722 166.818C229.203 167.226 228.902 167.711 228.788 167.893C228.709 168.02 228.656 168.237 228.727 168.413C228.777 168.538 228.88 168.622 229.033 168.661C229.089 168.675 229.122 168.732 229.108 168.787C229.094 168.834 229.052 168.866 229.007 168.866Z" fill="#A0C5FF"/>
<path d="M236.345 160.389C236.35 160.396 236.354 160.404 236.357 160.413C236.453 160.681 236.379 160.876 236.301 160.992C236.154 161.21 235.88 161.316 235.674 161.324C235.31 161.339 235.059 161.425 235.02 161.798C235 161.988 234.906 162.077 234.831 162.118C234.598 162.247 234.256 162.086 234.217 162.067C234.166 162.042 234.144 161.98 234.17 161.929C234.195 161.877 234.257 161.856 234.308 161.881C234.38 161.917 234.613 162.002 234.731 161.937C234.748 161.928 234.8 161.899 234.814 161.777C234.88 161.149 235.451 161.126 235.666 161.118C235.815 161.112 236.023 161.034 236.13 160.876C236.205 160.765 236.216 160.632 236.163 160.483C236.144 160.429 236.172 160.37 236.225 160.35C236.27 160.334 236.319 160.351 236.345 160.389Z" fill="#A0C5FF"/>
<path d="M234.574 169.859C234.574 169.868 234.573 169.877 234.571 169.886C234.5 170.16 234.329 170.281 234.199 170.333C233.954 170.431 233.668 170.364 233.493 170.255C233.184 170.062 232.928 169.993 232.686 170.279C232.563 170.424 232.436 170.446 232.351 170.438C232.086 170.413 231.893 170.087 231.872 170.05C231.843 170 231.861 169.937 231.91 169.908C231.96 169.88 232.023 169.897 232.052 169.947C232.092 170.017 232.236 170.219 232.37 170.232C232.389 170.233 232.449 170.239 232.528 170.145C232.935 169.664 233.42 169.965 233.602 170.079C233.728 170.158 233.946 170.211 234.122 170.14C234.246 170.09 234.33 169.987 234.369 169.833C234.384 169.778 234.441 169.745 234.496 169.759C234.542 169.772 234.574 169.814 234.574 169.859Z" fill="#A0C5FF"/>
<path d="M230.029 165.629C229.734 165.629 229.494 165.389 229.494 165.093C229.494 164.799 229.734 164.559 230.029 164.559C230.324 164.559 230.564 164.799 230.564 165.093C230.563 165.389 230.323 165.629 230.029 165.629ZM230.029 164.766C229.848 164.766 229.701 164.913 229.701 165.093C229.701 165.274 229.848 165.421 230.029 165.421C230.21 165.421 230.357 165.274 230.357 165.093C230.357 164.913 230.21 164.766 230.029 164.766Z" fill="#A0C5FF"/>
<path d="M238.063 156.794C237.767 156.794 237.527 156.553 237.527 156.258C237.527 155.963 237.767 155.722 238.063 155.722C238.358 155.722 238.598 155.963 238.598 156.258C238.597 156.553 238.357 156.794 238.063 156.794ZM238.063 155.93C237.882 155.93 237.735 156.077 237.735 156.258C237.735 156.439 237.882 156.586 238.063 156.586C238.243 156.586 238.39 156.439 238.39 156.258C238.39 156.077 238.243 155.93 238.063 155.93Z" fill="#A0C5FF"/>
<path d="M229.772 157.884C229.477 157.884 229.237 157.644 229.237 157.348C229.237 157.053 229.477 156.813 229.772 156.813C230.068 156.813 230.308 157.054 230.308 157.348C230.307 157.644 230.068 157.884 229.772 157.884ZM229.772 157.02C229.592 157.02 229.445 157.167 229.445 157.348C229.445 157.529 229.592 157.676 229.772 157.676C229.953 157.676 230.1 157.529 230.1 157.348C230.1 157.167 229.953 157.02 229.772 157.02Z" fill="#A0C5FF"/>
<path d="M225.948 171.953C225.653 171.953 225.413 171.713 225.413 171.417C225.413 171.123 225.653 170.883 225.948 170.883C226.243 170.883 226.483 171.123 226.483 171.417C226.483 171.713 226.243 171.953 225.948 171.953ZM225.948 171.09C225.767 171.09 225.62 171.237 225.62 171.418C225.62 171.599 225.767 171.746 225.948 171.746C226.129 171.746 226.276 171.599 226.276 171.418C226.277 171.237 226.129 171.09 225.948 171.09Z" fill="#A0C5FF"/>
<path d="M234.291 152.352C233.995 152.352 233.755 152.112 233.755 151.817C233.755 151.522 233.995 151.282 234.291 151.282C234.586 151.282 234.826 151.522 234.826 151.817C234.825 152.112 234.585 152.352 234.291 152.352ZM234.291 151.489C234.11 151.489 233.963 151.636 233.963 151.817C233.963 151.998 234.11 152.145 234.291 152.145C234.471 152.145 234.618 151.998 234.618 151.817C234.618 151.636 234.471 151.489 234.291 151.489Z" fill="#A0C5FF"/>
<path d="M238.39 170.098C238.095 170.098 237.855 169.858 237.855 169.562C237.855 169.267 238.095 169.027 238.39 169.027C238.686 169.027 238.925 169.267 238.925 169.562C238.925 169.858 238.686 170.098 238.39 170.098ZM238.39 169.235C238.209 169.235 238.063 169.382 238.063 169.562C238.063 169.743 238.209 169.89 238.39 169.89C238.571 169.89 238.718 169.743 238.718 169.562C238.718 169.382 238.571 169.235 238.39 169.235Z" fill="#A0C5FF"/>
<path d="M235.081 143.361L234.492 146.843C234.492 146.843 235.138 150.117 239.589 147.627L238.502 142.65L235.081 143.361Z" fill="#FECECC"/>
<path opacity="0.1" d="M238.501 142.651L235.081 143.361L234.825 144.872C234.906 144.896 234.988 144.918 235.07 144.94C235.463 145.043 235.863 145.13 236.246 145.251C236.546 145.346 236.845 145.467 237.067 145.647C237.3 145.836 237.415 146.071 237.431 146.324C237.458 146.738 237.164 147.1 236.957 147.47C236.823 147.708 236.751 148.028 236.458 148.193C236.244 148.313 235.965 148.357 235.689 148.353C236.446 148.703 237.659 148.707 239.589 147.628L238.501 142.651Z" fill="#201135"/>
<path d="M232.005 133.761C232.005 133.761 229.954 144.945 234.135 145.208C238.317 145.471 241.183 141.024 241.183 141.024C241.183 141.024 242.919 140.747 243.038 138.655C243.133 136.969 242.091 137.274 242.091 137.274C242.091 137.274 242.893 132.97 239.896 132.128C236.897 131.288 232.005 133.761 232.005 133.761Z" fill="#FECECC"/>
<path opacity="0.1" d="M238.154 139.543C238.2 139.815 237.904 140.092 237.493 140.162C237.081 140.231 236.711 140.067 236.665 139.794C236.62 139.523 236.916 139.245 237.327 139.176C237.738 139.107 238.108 139.272 238.154 139.543Z" fill="#201135"/>
<path opacity="0.1" d="M233.496 139.569C233.541 139.841 233.245 140.118 232.834 140.187C232.423 140.257 232.052 140.092 232.007 139.82C231.961 139.548 232.257 139.271 232.668 139.202C233.079 139.132 233.449 139.297 233.496 139.569Z" fill="#201135"/>
<path d="M233.693 137.011C233.653 137.011 233.615 136.991 233.593 136.954C233.575 136.921 233.13 136.187 232.039 136.67C231.981 136.696 231.913 136.669 231.887 136.612C231.861 136.554 231.887 136.485 231.946 136.46C233.232 135.89 233.787 136.83 233.792 136.839C233.824 136.894 233.805 136.965 233.75 136.996C233.732 137.007 233.712 137.011 233.693 137.011Z" fill="#000141"/>
<path d="M235.923 137.032C235.909 137.032 235.895 137.03 235.881 137.024C235.821 137 235.792 136.934 235.816 136.875C235.82 136.864 236.238 135.86 237.75 136.184C237.812 136.198 237.852 136.258 237.838 136.321C237.825 136.382 237.765 136.423 237.702 136.409C236.377 136.125 236.033 136.951 236.03 136.96C236.012 137.004 235.969 137.032 235.923 137.032Z" fill="#000141"/>
<path d="M234.614 139.911C234.574 139.911 234.535 139.906 234.496 139.895C234.252 139.824 234.149 139.549 234.145 139.538C234.132 139.504 234.137 139.466 234.156 139.435C234.569 138.801 234.46 137.946 234.458 137.937C234.449 137.874 234.494 137.816 234.557 137.808C234.621 137.798 234.677 137.843 234.686 137.906C234.692 137.944 234.802 138.81 234.383 139.506C234.416 139.566 234.478 139.65 234.561 139.674C234.638 139.697 234.733 139.666 234.842 139.583C234.892 139.544 234.964 139.554 235.003 139.604C235.041 139.655 235.032 139.727 234.981 139.765C234.855 139.862 234.731 139.911 234.614 139.911Z" fill="#000141"/>
<path d="M233.138 141.41C233.138 141.41 234.449 142.005 235.918 141.321C236.252 141.932 234.511 143.523 233.138 141.41Z" fill="#FCFAF7"/>
<path d="M233.344 137.939C233.344 138.297 233.145 138.588 232.9 138.588C232.656 138.588 232.457 138.297 232.457 137.939C232.457 137.58 232.656 137.29 232.9 137.29C233.145 137.29 233.344 137.581 233.344 137.939Z" fill="#000141"/>
<path d="M237.337 137.939C237.337 138.297 237.139 138.588 236.894 138.588C236.649 138.588 236.45 138.297 236.45 137.939C236.45 137.58 236.649 137.29 236.894 137.29C237.139 137.29 237.337 137.581 237.337 137.939Z" fill="#000141"/>
<path opacity="0.1" d="M234.838 143.04C234.717 143.04 234.638 143.022 234.63 143.02C234.599 143.013 234.58 142.982 234.587 142.951C234.595 142.921 234.626 142.902 234.657 142.909C234.662 142.91 235.166 143.022 235.624 142.625C235.648 142.605 235.685 142.608 235.705 142.631C235.726 142.655 235.723 142.691 235.7 142.713C235.381 142.988 235.047 143.04 234.838 143.04Z" fill="#201135"/>
<path opacity="0.1" d="M241.893 137.959C241.893 137.959 242.563 137.643 242.695 138.117C242.827 138.591 242.406 139.787 241.762 140.064C241.762 140.064 242.932 138.933 242.551 138.248C242.169 137.564 241.933 138.287 241.893 137.959Z" fill="#201135"/>
<path d="M239.404 146.641C239.404 146.641 240.407 147.565 239.864 148.985C239.404 150.189 238.808 151.249 237.123 150.956C235.438 150.664 235.378 148.985 235.378 148.985C235.378 148.985 233.923 150.917 232.708 149.902C230.644 148.176 234.549 146.507 234.549 146.507C234.549 146.507 234.493 147.488 235.97 147.927C237.448 148.368 239.404 146.641 239.404 146.641Z" fill="#A0C5FF"/>
<path d="M238.287 132.828C238.287 132.828 237.079 135.028 235.783 134.934C234.486 134.84 234.365 134.599 234.365 134.599C234.365 134.599 233.613 135.751 231.694 135.657C229.775 135.563 229.618 134.246 229.618 134.246C229.618 134.246 228.194 133.798 228.613 132.199C229.031 130.6 230.378 131.099 230.378 131.099C230.378 131.099 229.66 130.124 231.036 129.056C232.413 127.987 233.747 129.904 233.747 129.904C233.747 129.904 234.115 129.351 236.013 128.732C237.911 128.113 239.212 130.156 239.212 130.156C239.212 130.156 241.837 129.308 242.372 131.823C242.372 131.823 244.131 132.86 243.346 134.4C243.346 134.4 244.674 137.481 241.946 137.496C241.946 137.496 241.492 139.048 240.392 138.956C239.293 138.865 239.927 137.337 239.689 136.733C239.449 136.129 237.69 135.595 238.287 132.828Z" fill="#000141"/>
<path d="M248.889 162.167C248.889 162.167 252.214 171.423 250.623 173.076H237.527C237.527 173.076 242.909 171.264 243.043 169.235C243.178 167.205 241.226 164.126 241.226 164.126L248.889 162.167Z" fill="#FECECC"/>
<path d="M240.389 165.715C240.389 165.715 246.52 167.546 249.849 163.276C249.849 163.276 248.324 152.706 242.057 148.135C238.317 149.012 240.389 165.715 240.389 165.715Z" fill="#A0C5FF"/>
<path opacity="0.1" d="M219.065 106.091H160.841C159.274 106.091 158.004 107.363 158.006 108.932L158.042 138.007C158.044 139.573 159.313 140.841 160.877 140.841H210.125L216.013 142.857L217.246 140.841H219.065C222.913 140.841 226.031 137.721 226.031 133.871V113.062C226.03 109.212 222.912 106.091 219.065 106.091Z" fill="#000141"/>
<path d="M216.013 138.056V142.856L206.164 138.635L216.013 138.056Z" fill="white"/>
<path d="M162.029 105.058H217.831C221.678 105.058 224.796 108.179 224.796 112.028V132.836C224.796 136.686 221.678 139.806 217.831 139.806H162.029C158.182 139.806 155.064 136.686 155.064 132.836V112.028C155.064 108.179 158.182 105.058 162.029 105.058Z" fill="white"/>
<path d="M165.151 121.456C163.081 121.456 161.404 123.135 161.404 125.206C161.404 127.278 163.081 128.956 165.151 128.956C167.221 128.956 168.899 127.278 168.899 125.206C168.899 123.135 167.221 121.456 165.151 121.456ZM165.151 128.339C163.422 128.339 162.016 126.936 162.016 125.206C162.016 123.475 163.421 122.072 165.151 122.072C166.881 122.072 168.283 123.475 168.283 125.206C168.283 126.936 166.881 128.339 165.151 128.339Z" fill="#A0C5FF"/>
<path d="M165.643 125.205C165.643 125.478 165.423 125.698 165.151 125.698C164.878 125.698 164.657 125.478 164.657 125.205C164.657 124.933 164.878 124.713 165.151 124.713C165.423 124.713 165.643 124.933 165.643 125.205Z" fill="#A0C5FF"/>
<path d="M165.15 122.55C164.975 122.55 164.833 122.691 164.833 122.866V125.065C164.833 125.24 164.975 125.382 165.15 125.382C165.324 125.382 165.466 125.24 165.466 125.065V122.866C165.466 122.691 165.324 122.55 165.15 122.55Z" fill="#A0C5FF"/>
<path d="M167 123.456C166.876 123.332 166.676 123.332 166.552 123.456L164.998 125.01C164.875 125.134 164.875 125.334 164.998 125.458C165.121 125.582 165.322 125.582 165.446 125.458L167 123.904C167.123 123.78 167.123 123.579 167 123.456Z" fill="#A0C5FF"/>
<path d="M183.113 122.326H173.253C173.011 122.326 172.786 122.492 172.747 122.731C172.697 123.037 172.932 123.3 173.227 123.3H183.114C183.383 123.3 183.601 123.082 183.601 122.813C183.599 122.544 183.381 122.326 183.113 122.326Z" fill="#A0C5FF"/>
<path d="M201.943 122.326H184.748C184.479 122.326 184.261 122.544 184.261 122.813C184.261 123.083 184.479 123.301 184.748 123.301H201.969C202.265 123.301 202.499 123.037 202.449 122.732C202.411 122.492 202.186 122.326 201.943 122.326Z" fill="#A0C5FF"/>
<path d="M187.363 124.718H173.252C173.01 124.718 172.785 124.884 172.745 125.123C172.696 125.428 172.93 125.693 173.225 125.693H187.362C187.631 125.693 187.849 125.475 187.849 125.205C187.85 124.937 187.632 124.718 187.363 124.718Z" fill="#A0C5FF"/>
<path d="M187.363 127.111H173.252C173.01 127.111 172.785 127.277 172.745 127.516C172.696 127.822 172.93 128.086 173.225 128.086H187.362C187.631 128.086 187.849 127.868 187.849 127.598C187.85 127.329 187.632 127.111 187.363 127.111Z" fill="#A0C5FF"/>
<path d="M201.943 124.718H188.998C188.729 124.718 188.511 124.936 188.511 125.205C188.511 125.475 188.729 125.693 188.998 125.693H201.969C202.265 125.693 202.499 125.429 202.449 125.123C202.411 124.884 202.186 124.718 201.943 124.718Z" fill="#A0C5FF"/>
<path d="M156.297 115.677V112.028C156.297 108.865 158.868 106.292 162.028 106.292H217.83C220.99 106.292 223.561 108.865 223.561 112.028V115.677H156.297Z" fill="#5D74E4"/>
<path d="M168.86 111.946L168.517 113.007H167.386L168.861 108.918H170.164L171.639 113.007H170.478L170.135 111.946H168.86ZM169.121 111.117H169.879L169.5 109.86L169.121 111.117Z" fill="white"/>
<path d="M175.658 110.245C175.658 111.051 175.119 111.472 174.526 111.543C174.308 111.567 174.142 111.572 173.887 111.572H173.413V113.006H172.348V108.917H173.888C174.143 108.917 174.309 108.924 174.527 108.947C175.119 109.018 175.658 109.439 175.658 110.245ZM174.545 110.245C174.545 109.937 174.385 109.777 174.112 109.754C174.035 109.748 173.941 109.748 173.828 109.748H173.413V110.743H173.828C173.941 110.743 174.035 110.743 174.112 110.737C174.385 110.714 174.545 110.553 174.545 110.245Z" fill="white"/>
<path d="M179.796 110.245C179.796 111.051 179.257 111.472 178.665 111.543C178.446 111.567 178.28 111.572 178.025 111.572H177.552V113.006H176.486V108.917H178.026C178.281 108.917 178.447 108.924 178.666 108.947C179.257 109.018 179.796 109.439 179.796 110.245ZM178.682 110.245C178.682 109.937 178.522 109.777 178.25 109.754C178.173 109.748 178.078 109.748 177.965 109.748H177.551V110.743H177.965C178.078 110.743 178.173 110.743 178.25 110.737C178.523 110.714 178.682 110.553 178.682 110.245Z" fill="white"/>
<path d="M184.652 110.963C184.652 112.272 183.834 113.09 182.561 113.09C181.288 113.09 180.47 112.272 180.47 110.963C180.47 109.647 181.288 108.835 182.561 108.835C183.834 108.835 184.652 109.647 184.652 110.963ZM183.561 110.963C183.561 110.091 183.177 109.617 182.56 109.617C181.944 109.617 181.559 110.091 181.559 110.963C181.559 111.828 181.944 112.308 182.56 112.308C183.177 112.308 183.561 111.828 183.561 110.963Z" fill="white"/>
<path d="M185.615 113.007V108.918H186.68V113.007H185.615Z" fill="white"/>
<path d="M190.316 113.007L188.829 110.304C188.865 110.719 188.865 111.081 188.865 111.318V113.007H187.799V108.918H189.125L190.677 111.739C190.647 111.324 190.642 110.903 190.642 110.666V108.918H191.708V113.007H190.316Z" fill="white"/>
<path d="M194.827 109.747V113.007H193.761V109.747H192.435V108.918H196.154V109.747H194.827Z" fill="white"/>
<path d="M201.565 113.007H200.499V111.288C200.499 110.932 200.499 110.405 200.511 109.99C200.44 110.405 200.322 110.926 200.227 111.288L199.777 113.007H198.681L198.225 111.288C198.13 110.932 198.012 110.405 197.947 109.99C197.959 110.405 197.959 110.932 197.959 111.288V113.007H196.893V108.918H198.557L199.25 111.97L199.944 108.918H201.567V113.007H201.565Z" fill="white"/>
<path d="M205.815 113.007H202.682V108.918H205.756V109.747H203.748V110.541H205.637V111.371H203.748V112.178H205.815V113.007Z" fill="white"/>
<path d="M209.308 113.007L207.822 110.304C207.857 110.719 207.857 111.081 207.857 111.318V113.007H206.792V108.918H208.118L209.67 111.739C209.64 111.324 209.634 110.903 209.634 110.666V108.918H210.7V113.007H209.308Z" fill="white"/>
<path d="M213.819 109.747V113.007H212.754V109.747H211.427V108.918H215.146V109.747H213.819Z" fill="white"/>
<path d="M218.172 119.423H209.161C207.506 119.423 206.164 120.766 206.164 122.422V131.378C206.164 133.034 207.506 134.377 209.161 134.377H218.172C219.827 134.377 221.169 133.034 221.169 131.378V122.422C221.169 120.766 219.827 119.423 218.172 119.423Z" fill="#E7F0FE"/>
<path d="M220.639 123.993V122.422C220.639 121.061 219.532 119.954 218.172 119.954H209.161C207.801 119.954 206.694 121.061 206.694 122.422V123.993H220.639Z" fill="#A0C5FF"/>
<path d="M211.089 122.482L210.976 122.827H210.608L211.088 121.495H211.513L211.993 122.827H211.614L211.502 122.482H211.089ZM211.174 122.212H211.421L211.298 121.803L211.174 122.212Z" fill="white"/>
<path d="M213.302 121.929C213.302 122.191 213.127 122.328 212.934 122.351C212.862 122.359 212.808 122.361 212.725 122.361H212.57V122.828H212.223V121.496H212.724C212.807 121.496 212.861 121.497 212.933 121.505C213.127 121.529 213.302 121.665 213.302 121.929ZM212.94 121.929C212.94 121.828 212.888 121.776 212.799 121.768C212.774 121.767 212.743 121.767 212.707 121.767H212.572V122.091H212.707C212.743 122.091 212.775 122.091 212.799 122.09C212.888 122.081 212.94 122.029 212.94 121.929Z" fill="white"/>
<path d="M214.71 122.828H214.332C214.301 122.733 214.281 122.656 214.27 122.561C214.253 122.414 214.195 122.33 214.106 122.324C214.067 122.321 214.035 122.321 213.996 122.321H213.919V122.827H213.572V121.495H214.1C214.183 121.495 214.237 121.496 214.308 121.504C214.501 121.527 214.669 121.622 214.669 121.857C214.669 122.026 214.578 122.137 214.4 122.189C214.539 122.24 214.59 122.342 214.609 122.502C214.627 122.655 214.658 122.749 214.71 122.828ZM214.044 122.072C214.081 122.072 214.112 122.072 214.137 122.07C214.225 122.062 214.307 122.031 214.307 121.92C214.307 121.809 214.235 121.777 214.146 121.769C214.121 121.767 214.09 121.767 214.054 121.767H213.919V122.072H214.044V122.072Z" fill="white"/>
<path d="M214.993 122.828V121.496H215.341V122.828H214.993Z" fill="white"/>
<path d="M216.725 122.828H215.705V121.496H216.053V122.534H216.726V122.828H216.725Z" fill="white"/>
<path d="M212.945 129.958V130.99H209.007V130.416L210.605 128.913C211.363 128.198 211.621 127.845 211.621 127.359C211.621 126.976 211.408 126.763 211.047 126.763C210.664 126.763 210.473 127.006 210.421 127.536L210.414 127.61H209.089L209.096 127.536C209.206 126.417 209.913 125.79 211.157 125.79C212.342 125.79 213.005 126.357 213.005 127.308C213.005 127.904 212.733 128.362 211.754 129.304L211.077 129.96H212.945V129.958Z" fill="#A0C5FF"/>
<path d="M218.326 129.479C218.326 130.452 217.531 131.093 216.25 131.093C214.962 131.093 214.211 130.466 214.107 129.45L214.1 129.377H215.425L215.44 129.45C215.513 129.804 215.764 130.121 216.199 130.121C216.655 130.121 216.942 129.863 216.942 129.517C216.942 129.082 216.626 128.861 216.096 128.839L215.897 128.832V127.977L216.096 127.962C216.582 127.925 216.825 127.66 216.825 127.313C216.825 126.981 216.626 126.775 216.258 126.775C215.868 126.775 215.706 127.092 215.676 127.424L215.669 127.497H214.344L214.351 127.424C214.439 126.569 215.072 125.803 216.39 125.803C217.634 125.803 218.208 126.436 218.208 127.158C218.208 127.755 217.906 128.153 217.243 128.315C217.966 128.455 218.326 128.824 218.326 129.479Z" fill="#A0C5FF"/>
<path d="M121.547 76.1283C120.733 81.4419 120.999 84.6801 121.452 87.2586C122.24 91.8035 123.602 94.3481 120.661 102.672C116.045 115.722 102.798 106.128 91.1202 117.379C78.2739 129.771 66.0978 134.83 55.9105 134.905C43.9365 134.996 34.6949 128.181 30.2897 118.252C22.1399 99.8536 29.5871 94.2541 45.8549 88.9405C62.1134 83.6278 54.7784 68.4787 63.4255 63.0175C72.0742 57.5665 82.5805 59.092 86.6968 55.612C90.8115 52.1321 103.352 47.366 114.684 51.8998C124.151 55.6736 123.785 61.477 121.547 76.1283Z" fill="#000141"/>
<path opacity="0.5" d="M120.661 102.672C116.046 115.722 102.798 106.128 91.1203 117.379C78.2739 129.771 66.0979 134.83 55.9105 134.905C55.9468 134.642 55.9737 134.38 56.0116 134.127C57.1508 125.849 59.576 117.211 63.3726 109.763C67.0729 102.497 72.5953 96.6825 79.0713 91.8216C82.331 89.3639 85.7597 87.1432 89.1521 84.8775C90.9403 83.6783 92.7631 82.5249 94.7131 81.5935C96.5708 80.7142 98.6605 80.1036 100.285 78.7953C102.903 76.6868 103.731 73.4604 104.066 70.2657C104.358 67.4446 104.415 64.4837 106.369 62.3989C111.186 61.6555 111.241 68.9179 111.531 72.183C111.765 74.839 112.198 77.4997 112.995 80.0546C114.006 83.2888 116.042 85.6588 119.297 86.7317C120.002 86.9615 120.72 87.1393 121.45 87.257C122.241 91.8035 123.603 94.3473 120.661 102.672Z" fill="black"/>
<path d="M117.246 96.7599L116.598 87.0366C116.598 87.0366 134.29 91.2276 140.173 129.289C142.344 143.342 137.987 148.986 131.154 150.086C124.319 151.186 107.11 126.894 117.246 96.7599Z" fill="#5D74E4"/>
<path d="M148.514 78.6887C148.493 78.8412 148.46 78.9763 148.424 79.0798C148.416 79.1011 148.41 79.1201 148.403 79.1366C148.225 79.5743 148.026 80.0009 147.829 80.3896C147.301 81.4363 146.789 82.2184 146.789 82.2184C146.789 82.2184 146.65 89.0432 146.305 89.8648C145.643 90.56 141.965 89.6484 141.965 89.6484C141.467 88.9753 142.45 82.1789 142.367 80.8336C142.286 79.4866 142.76 77.9603 142.76 77.9603C142.76 77.9603 142.854 71.0044 144.425 71.0289C145.123 71.0391 144.824 74.5507 144.862 75.8992C144.863 75.9103 144.862 75.9213 144.863 75.9324C144.864 75.9292 145.344 75.5429 145.829 75.8281C146.067 75.9664 146.135 76.141 146.135 76.141C146.135 76.141 146.48 76.0146 146.731 76.0904C146.983 76.1662 147.324 76.4198 147.318 76.5462C147.323 76.5462 147.621 76.4183 147.89 76.6126C148.158 76.8054 148.239 77.2959 148.239 77.2959H148.236C148.271 77.3457 148.303 77.3955 148.332 77.4468C148.547 77.8403 148.565 78.3182 148.514 78.6887Z" fill="#FECECC"/>
<path opacity="0.2" d="M148.514 78.6888C148.468 78.6382 148.415 78.5963 148.348 78.5711C148.054 78.4589 147.864 78.7133 147.757 78.9305C147.695 79.0577 147.653 79.2007 147.575 79.32C147.509 79.425 147.392 79.5104 147.285 79.5736C146.371 80.1297 144.569 79.6581 144.555 78.4739C144.549 77.9888 144.586 77.4848 144.65 77.0076C144.703 76.6087 144.731 76.3085 144.863 75.9325C144.864 75.9293 145.344 75.543 145.829 75.8282C146.067 75.9664 146.135 76.141 146.135 76.141C146.135 76.141 146.48 76.0146 146.731 76.0905C146.983 76.1663 147.324 76.4199 147.318 76.5463C147.323 76.5463 147.621 76.4183 147.89 76.6126C148.158 76.8054 148.239 77.296 148.239 77.296H148.236C148.271 77.3458 148.303 77.3955 148.332 77.4469C148.547 77.8403 148.565 78.3183 148.514 78.6888Z" fill="white"/>
<path opacity="0.1" d="M147.852 78.6951C147.583 79.8911 146.931 80.1534 146.642 80.2103C145.871 80.0231 145.156 79.7181 144.819 79.3974C144.583 79.1738 144.506 78.6619 144.516 78.082C144.51 78.1136 144.504 78.1452 144.497 78.1776C144.403 78.7101 144.323 79.3247 144.564 79.8311C144.801 80.3312 145.329 80.5579 145.858 80.5784C146.283 80.595 146.709 80.505 147.115 80.3683H147.116C147.117 80.3683 147.118 80.3675 147.118 80.3667C147.156 80.3541 147.194 80.3414 147.232 80.328C147.222 80.3264 147.211 80.3248 147.201 80.3225C147.833 79.9567 147.852 78.6951 147.852 78.6951Z" fill="#5D74E4"/>
<path d="M146.625 80.0736C146.782 79.7173 146.878 79.425 146.977 79.0522C147.075 78.6714 147.142 78.2772 147.118 77.8853C147.114 78.278 147.021 78.6603 146.899 79.0292C146.774 79.3966 146.451 80.0713 146.451 80.0713C146.319 80.0689 145.88 79.9077 145.695 79.8279C145.685 79.824 145.677 79.82 145.667 79.8161C145.796 79.4408 145.91 79.064 146.006 78.6809C146.102 78.2938 146.186 77.8996 146.202 77.5006C146.159 77.8972 146.049 78.2811 145.928 78.6587C145.807 79.0285 145.669 79.3934 145.519 79.7505C145.394 79.6936 145.271 79.6352 145.157 79.5625C144.844 79.3618 144.704 79.1975 144.606 78.6058C144.572 78.4075 144.566 78.2037 144.562 77.9999C144.553 77.7961 144.558 77.5922 144.563 77.3868C144.486 77.7905 144.454 78.2029 144.482 78.6184C144.497 78.8262 144.528 79.0364 144.617 79.2386C144.643 79.2876 144.664 79.3397 144.702 79.384L144.755 79.4519L144.815 79.5088C144.854 79.5483 144.896 79.5815 144.94 79.6123C144.983 79.6454 145.027 79.6755 145.073 79.7015C145.437 79.918 145.83 80.0539 146.228 80.1597C146.626 80.2648 147.013 80.2435 147.37 79.7561C147.139 80.0318 146.709 80.0981 146.625 80.0736Z" fill="#EAB2B2"/>
<path opacity="0.1" d="M146.751 82.1513C146.244 82.5526 145.198 82.4949 144.249 82.3448C143.527 82.2311 142.948 81.8013 142.536 81.3755C142.588 81.4987 142.643 81.622 142.708 81.7413C142.879 82.0525 143.548 83.4421 144.496 83.5053C145.977 83.6041 146.453 82.3519 146.743 82.2105C146.746 82.1908 146.749 82.171 146.751 82.1513Z" fill="#5D74E4"/>
<path opacity="0.1" d="M144.388 77.6934C144.388 77.6934 144.538 78.1081 144.171 78.2337C143.805 78.3585 143.239 77.849 143.092 78.8839C142.945 79.918 142.468 81.1085 142.357 80.2632C142.247 79.4179 142.106 77.9122 142.685 77.6894C143.266 77.465 144.388 77.6934 144.388 77.6934Z" fill="#5D74E4"/>
<path d="M142.367 80.8336C142.367 80.8336 141.284 78.7867 141.257 78.0883C141.23 77.39 142.079 76.5328 142.601 76.4688C143.083 76.4104 144.133 77.0266 144.336 77.3418C144.54 77.657 144.716 78.1018 143.743 78.0346C142.77 77.9675 142.715 78.2266 142.715 78.2266L142.367 80.8336Z" fill="#EAB2B2"/>
<path opacity="0.2" d="M143.713 77.3931C143.713 77.3931 144.241 77.7826 144.361 77.7391C144.481 77.6957 144.267 77.262 144.066 77.1822C143.864 77.1024 143.713 77.3931 143.713 77.3931Z" fill="white"/>
<path d="M141.407 85.6803C141.406 86.49 131.744 121.708 131.205 124.284C126.253 147.93 140.525 148.578 140.525 148.578C140.735 148.507 140.943 148.434 141.133 148.338C156.494 140.664 147.384 85.4038 147.384 85.4038C147.384 85.4038 141.424 84.8437 141.407 85.6803Z" fill="#5D74E4"/>
<g opacity="0.1">
<path d="M143.781 140.885C142.464 140.633 141.336 139.902 140.842 138.617C140.334 137.299 140.435 135.801 140.604 134.426C140.803 132.808 141.159 131.214 141.403 129.603C141.607 128.258 141.833 126.744 141.374 125.426C140.608 123.225 139.171 121.34 137.904 119.412C136.576 117.388 135.434 115.286 135.071 112.862C134.949 112.05 134.893 111.233 134.868 110.414C133.004 117.345 131.415 123.283 131.205 124.284C126.253 147.93 140.525 148.578 140.525 148.578C140.735 148.507 140.943 148.434 141.133 148.338C143.745 147.033 145.648 144.35 147.01 140.8C145.957 141.056 144.848 141.088 143.781 140.885Z" fill="#000141"/>
</g>
<path d="M75.5233 173.614H132.476C127.966 146.029 134.529 89.292 109.675 84.1033C96.5138 81.3557 72.1325 99.4159 77.8223 123.472C79.3831 140.236 81.8336 156.787 75.5233 173.614Z" fill="#C7DBFF"/>
<path d="M121.829 130.78C121.829 131.44 121.862 132.134 121.895 132.793C121.862 132.827 121.895 132.827 121.895 132.827C121.951 135.002 122.043 137.274 122.16 139.498C122.19 140.346 122.2 141.159 122.292 141.976C122.347 143.607 122.439 145.424 122.522 147.062C123.085 159.79 124.722 165.806 126.551 173.614H137.97C134.431 82.8133 117.893 88.22 116.034 86.9781C115.711 96.0094 121.312 117.944 121.829 130.714C121.797 130.747 121.797 130.747 121.829 130.78Z" fill="#C7DBFF"/>
<path d="M99.1816 173.075C100.138 168.919 105.38 165.432 105.627 157.185C105.66 157.152 105.66 157.119 105.627 157.086C105.677 156.263 105.655 155.304 105.66 154.477C105.66 154.444 105.66 154.444 105.627 154.412C105.55 139.934 103.551 125.261 101.006 111.081C100.974 111.048 100.974 111.048 100.974 111.048C99.6047 105.33 98.6368 86.1162 99.8131 85.1477C97.3981 87.1346 92.9171 94.0542 90.915 96.2654C91.9926 98.7902 95.4284 103.663 96.551 106.291L87.4413 124.423C100.374 143.388 99.1816 173.075 99.1816 173.075Z" fill="#5D74E4"/>
<path d="M118.562 107.129C119.642 118.906 112.843 149.622 119.845 172.88C119.845 172.88 121.053 143.388 126.088 124.978L118.903 109.423C125.233 106.241 123.32 98.7918 124.084 96.2669C121.806 94.0557 116.859 86.655 113.938 85.7054C116.574 86.5618 117.322 93.6197 118.562 107.129Z" fill="#5D74E4"/>
<path d="M99.1815 86.5081C98.7671 88.3473 100.78 96.4029 105.523 100.111C107.45 101.713 109.614 102.633 111.719 102.277C118.745 101.149 115.395 89.5496 114.18 86.1676C114.15 86.0491 114.091 85.9299 114.062 85.8414C112.935 82.9642 113.35 73.1153 113.35 73.1153L106.146 71.6024C106.146 71.6024 106.591 73.323 104.753 78.2771C102.884 83.2312 99.8037 83.928 99.1815 86.5081Z" fill="#FECECC"/>
<path opacity="0.5" d="M105.523 100.111C107.451 101.713 109.614 102.633 111.719 102.276C118.745 101.149 115.395 89.5495 114.18 86.1676C114.15 86.0491 114.091 85.9298 114.062 85.8413C112.935 82.9641 113.35 73.1152 113.35 73.1152L106.591 71.7208C106.828 71.8986 106.976 72.1956 107.006 72.5811C107.154 76.5264 110.563 79.2851 111.986 82.7856C113.083 85.4858 113.794 89.1933 112.134 91.8334C111.66 92.6053 108.339 96.8183 105.523 100.111Z" fill="#EAB2B2"/>
<path d="M118.395 76.7334C115.826 80.3279 106.347 77.2185 105.275 72.5851C104.942 71.1268 104.37 68.6193 104.37 68.6193C104.37 68.6193 102.091 67.6208 102.415 65.2855C102.687 63.478 104.18 64.6203 104.18 64.6203L104.173 62.6129L118.246 60.8757C118.246 60.8757 118.466 61.8964 118.753 63.4685C118.892 64.2783 119.023 65.2571 119.168 66.2888C119.624 70.0437 119.825 74.7552 118.395 76.7334Z" fill="#FECECC"/>
<path opacity="0.5" d="M119.168 66.2873C117.108 66.7004 114.55 67.0425 113.225 66.9366C110.892 66.7352 104.206 64.2325 104.206 64.2325L117.873 60.0881C118.728 61.1515 119.023 65.2555 119.168 66.2873Z" fill="#EAB2B2"/>
<path opacity="0.1" d="M109.676 71.2737C109.657 71.6908 110.152 72.0527 110.782 72.0819C111.412 72.1111 111.939 71.7975 111.958 71.3804C111.978 70.964 111.483 70.6022 110.852 70.5722C110.222 70.543 109.696 70.8574 109.676 71.2737Z" fill="#201135"/>
<path opacity="0.1" d="M116.676 70.4663C116.657 70.8827 117.152 71.2445 117.782 71.2737C118.412 71.3029 118.939 70.9893 118.959 70.5722C118.978 70.1559 118.483 69.794 117.853 69.7648C117.222 69.7348 116.696 70.0492 116.676 70.4663Z" fill="#201135"/>
<path d="M115.916 66.6617C115.976 66.6546 116.03 66.6167 116.055 66.5574C116.077 66.5061 116.612 65.3211 118.337 65.8488C118.431 65.8764 118.527 65.8251 118.555 65.7335C118.582 65.6418 118.531 65.5446 118.439 65.5162C116.406 64.8929 115.742 66.4065 115.735 66.4215C115.698 66.51 115.739 66.6119 115.828 66.6498C115.856 66.6617 115.887 66.6657 115.916 66.6617Z" fill="#000141"/>
<path d="M112.571 67.0978C112.592 67.0954 112.614 67.0883 112.633 67.078C112.718 67.0322 112.749 66.9264 112.703 66.8426C112.695 66.8276 111.885 65.3969 109.674 66.1577C109.583 66.1885 109.535 66.288 109.566 66.3789C109.598 66.4697 109.695 66.5187 109.787 66.4871C111.725 65.8196 112.391 66.9975 112.398 67.0093C112.432 67.0725 112.502 67.1065 112.571 67.0978Z" fill="#000141"/>
<path d="M115.059 71.1836C115.119 71.1765 115.177 71.1607 115.232 71.137C115.585 70.9861 115.69 70.5548 115.695 70.5366C115.708 70.4829 115.694 70.4268 115.659 70.3849C114.924 69.5088 114.934 68.2038 114.934 68.1911C114.936 68.0947 114.858 68.0157 114.763 68.0149C114.664 68.0126 114.587 68.0908 114.587 68.1864C114.586 68.244 114.576 69.5641 115.332 70.5335C115.293 70.6298 115.216 70.7673 115.095 70.8179C114.983 70.8645 114.834 70.8368 114.657 70.731C114.574 70.682 114.467 70.7096 114.419 70.7926C114.37 70.8755 114.398 70.9822 114.481 71.0312C114.688 71.1536 114.883 71.205 115.059 71.1836Z" fill="#000141"/>
<path d="M117.547 73.1658C117.547 73.1658 115.686 74.297 113.356 73.5371C112.967 74.5143 115.87 76.5857 117.547 73.1658Z" fill="#FCFAF7"/>
<path d="M116.608 67.9913C116.672 68.5293 117.024 68.9298 117.392 68.8848C117.759 68.8405 118.005 68.3673 117.94 67.8293C117.876 67.2913 117.524 66.8908 117.156 66.9358C116.788 66.9809 116.543 67.4533 116.608 67.9913Z" fill="#000141"/>
<path d="M110.612 68.7165C110.677 69.2545 111.028 69.655 111.396 69.61C111.764 69.5657 112.01 69.0933 111.945 68.5545C111.88 68.0166 111.529 67.616 111.161 67.661C110.792 67.7061 110.547 68.1785 110.612 68.7165Z" fill="#000141"/>
<path opacity="0.1" d="M115.289 75.9213C115.472 75.8992 115.587 75.8581 115.599 75.8534C115.644 75.8368 115.667 75.787 115.65 75.742C115.633 75.697 115.583 75.6741 115.539 75.6899C115.532 75.693 114.794 75.9529 114.036 75.4394C113.994 75.4142 113.942 75.4236 113.915 75.4631C113.888 75.5026 113.899 75.5572 113.938 75.584C114.466 75.9411 114.977 75.9593 115.289 75.9213Z" fill="#201135"/>
<path opacity="0.5" d="M103.848 65.0832C103.848 65.0832 103.338 64.5342 103.093 64.9521C102.85 65.3708 103.011 66.9611 103.798 67.4943C103.798 67.4943 102.99 66.0676 103.22 65.5786C103.45 65.0888 104.071 65.4948 103.848 65.0832Z" fill="#EAB2B2"/>
<path d="M118.528 63.7395C118.281 62.5655 117.859 61.868 116.508 61.5733C116.25 61.5164 117.748 62.5727 117.869 64.1132C117.139 64.6093 116.275 65.0311 115.369 65.2989C112.023 66.2983 103.881 64.129 103.881 64.129C102.837 52.8209 118.848 55.7858 120.527 59.8013C120.896 60.6798 119.808 62.5418 118.528 63.7395Z" fill="#000141"/>
<path d="M114.28 167.388C121.145 148.664 124.254 128.925 123.29 107.515C123.25 106.642 122.619 106.017 121.891 106.112C112.016 107.42 101.433 108.456 90.0836 109.202C89.5404 109.237 89.0786 109.866 89.0328 110.606C87.9489 128.918 83.7599 146.186 76.5433 162.813C76.241 163.51 76.4628 164.157 77.0502 164.254C89.3873 166.289 101.124 167.752 112.26 168.695C113.079 168.767 113.993 168.177 114.28 167.388Z" fill="white"/>
<g opacity="0.2">
<path opacity="0.1" d="M113.119 162.035C118.551 145.7 121.151 128.547 120.713 110.151C111.599 111.158 101.908 111.931 91.6034 112.459C90.521 129.573 86.7126 145.769 80.2523 161.38C87.4373 162.453 94.4092 163.337 101.169 164.043C105.249 163.395 109.231 162.725 113.119 162.035Z" fill="#5D74E4"/>
</g>
<path d="M112.843 161.279C118.194 144.963 120.725 127.818 120.229 109.416C111.169 110.44 101.535 111.235 91.2891 111.791C90.2612 128.902 86.5183 145.086 80.1346 160.673C87.2881 161.73 94.2291 162.602 100.959 163.297C105.016 162.645 108.976 161.972 112.843 161.279Z" fill="#A0C5FF"/>
<g opacity="0.1">
<path d="M120.229 109.416C118.261 109.639 116.252 109.846 114.229 110.046C116.291 114.566 117.519 119.544 115.929 124.068C114.671 127.647 112.046 129.752 108.537 130.887C107.539 131.21 106.153 131.571 105.473 132.455C105.456 132.477 105.448 132.482 105.434 132.499C105.434 132.5 105.435 132.5 105.435 132.5C105.452 132.637 105.717 133.003 105.76 133.083C106.612 134.653 107.248 136.299 107.452 138.084C107.811 141.234 106.396 143.959 103.844 145.77C100.404 148.211 95.8933 150.144 91.687 150.597C89.1473 150.87 86.5815 150.517 84.0907 149.851C82.9057 153.491 81.5983 157.1 80.1346 160.673C87.2881 161.73 94.2291 162.602 100.959 163.297C105.016 162.645 108.977 161.972 112.843 161.279C118.194 144.963 120.726 127.818 120.229 109.416Z" fill="#5D74E4"/>
</g>
<path d="M112.843 161.279C112.156 160.447 111.464 159.604 110.766 158.75C107.596 160.256 104.328 161.772 100.959 163.297C105.016 162.645 108.977 161.972 112.843 161.279Z" fill="#A0C5FF"/>
<path opacity="0.25" d="M76.4083 152.698V158.955C76.4083 158.955 94.687 164.487 105.868 155.827C117.05 147.166 116.717 143.274 116.717 143.274C116.717 143.274 122.215 145.502 121.945 142.99C121.675 140.479 115.927 138.91 113.604 139.429C111.28 139.949 76.4083 152.698 76.4083 152.698Z" fill="#000141"/>
<path d="M116.609 138.132C115.365 138.422 109.942 138.302 109.393 138.875C109.393 138.875 109.132 141.866 109.887 142.374C110.709 142.568 116.93 141.866 116.93 141.866C116.93 141.866 117.668 142.535 119.277 142.889C119.705 142.984 120.14 143.054 120.553 143.085V143.086C120.555 143.086 120.555 143.086 120.557 143.088C120.578 143.09 120.684 143.11 120.838 143.135H120.84C121.399 143.223 122.6 143.386 122.792 143.165C123.035 142.888 123.139 142.492 122.904 142.255C122.915 142.243 122.923 142.23 122.934 142.218C123.08 142.201 123.447 142.127 123.594 141.837C123.738 141.555 123.563 141.326 123.477 141.237C123.482 141.222 123.488 141.207 123.493 141.193C123.614 141.185 123.88 141.148 123.949 140.975C124.036 140.751 124.108 140.362 123.771 140.175C123.773 140.171 123.773 140.164 123.774 140.159C123.845 140.123 124.12 139.96 124.081 139.565C124.036 139.113 123.824 139.049 123.824 139.049C123.824 139.049 124.098 138.675 124.039 138.359C123.98 138.041 123.696 137.653 122.976 137.557L122.97 137.558C122.9 137.531 122.826 137.507 122.747 137.495C122.421 137.442 122.101 137.413 121.796 137.401C121.734 137.399 121.672 137.398 121.61 137.396C120.423 137.374 119.515 137.595 119.515 137.595C119.515 137.595 121.204 135.903 120.556 134.968C119.91 134.035 117.855 137.842 116.609 138.132Z" fill="#FECECC"/>
<path opacity="0.2" d="M121.797 137.402C122.289 139.376 121.074 142.061 120.554 143.084C120.553 143.084 120.553 143.086 120.553 143.086H120.554C120.556 143.086 120.556 143.086 120.558 143.087C120.641 143.094 120.736 143.11 120.839 143.134H120.841C121.4 143.222 122.601 143.385 122.793 143.164C123.036 142.887 123.14 142.491 122.905 142.255C122.916 142.243 122.924 142.229 122.934 142.217C123.081 142.2 123.448 142.126 123.594 141.836C123.739 141.554 123.564 141.326 123.478 141.236C123.482 141.221 123.489 141.206 123.493 141.192C123.615 141.184 123.881 141.147 123.95 140.974C124.037 140.75 124.109 140.362 123.772 140.175C123.774 140.17 123.774 140.163 123.775 140.159C123.846 140.122 124.121 139.96 124.082 139.565C124.037 139.112 123.825 139.049 123.825 139.049C123.825 139.049 124.099 138.674 124.04 138.358C123.981 138.041 123.697 137.652 122.977 137.556L122.971 137.557C122.901 137.53 122.827 137.506 122.747 137.494C122.421 137.443 122.101 137.413 121.797 137.402Z" fill="white"/>
<path d="M122.853 142.135C122.611 141.991 122.36 141.875 122.101 141.777C121.841 141.681 121.572 141.61 121.298 141.581C121.569 141.63 121.829 141.72 122.077 141.834C122.324 141.948 122.564 142.084 122.784 142.238L122.786 142.239C122.814 142.258 122.852 142.252 122.872 142.224C122.892 142.196 122.885 142.157 122.857 142.138C122.855 142.137 122.854 142.136 122.853 142.135Z" fill="#FF97A6"/>
<path d="M123.745 138.956C123.474 138.809 123.194 138.69 122.906 138.594C122.617 138.499 122.319 138.432 122.018 138.413C122.317 138.455 122.605 138.543 122.882 138.658C123.158 138.772 123.427 138.911 123.673 139.071L123.676 139.072C123.707 139.093 123.749 139.084 123.769 139.053C123.789 139.021 123.781 138.979 123.749 138.959C123.748 138.958 123.747 138.957 123.745 138.956Z" fill="#FF97A6"/>
<path d="M123.684 140.05C123.414 139.888 123.133 139.758 122.842 139.649C122.552 139.542 122.251 139.462 121.944 139.43C122.248 139.485 122.539 139.586 122.816 139.713C123.092 139.84 123.362 139.992 123.607 140.164L123.609 140.166C123.64 140.188 123.684 140.18 123.705 140.149C123.727 140.118 123.719 140.075 123.688 140.053C123.688 140.052 123.686 140.05 123.684 140.05Z" fill="#FF97A6"/>
<path d="M123.412 141.097C123.141 140.937 122.862 140.806 122.571 140.697C122.281 140.59 121.981 140.511 121.675 140.479C121.978 140.534 122.268 140.634 122.545 140.761C122.821 140.889 123.089 141.039 123.335 141.212L123.337 141.213C123.369 141.235 123.411 141.228 123.433 141.197C123.455 141.166 123.447 141.122 123.416 141.101C123.414 141.099 123.413 141.098 123.412 141.097Z" fill="#FF97A6"/>
<path opacity="0.2" d="M120.142 134.94C120.142 134.94 119.663 135.694 119.503 135.705C119.342 135.716 119.291 135.528 119.291 135.528C119.291 135.528 119.859 134.885 120.142 134.94Z" fill="white"/>
<path d="M89.8696 90.8311C89.8696 90.8311 60.1136 114.13 66.8786 146.66C68.4165 154.055 85.7209 143.802 84.2817 140.238C75.2415 117.855 89.8696 90.8311 89.8696 90.8311Z" fill="#5D74E4"/>
<path opacity="0.25" d="M83.5184 138.158C80.7086 129.808 80.9534 120.962 82.3397 113.204C82.3397 113.199 82.3397 113.195 82.3397 113.19C82.3531 112.087 82.4518 110.986 82.5576 109.888C81.7381 110.639 81.0876 111.561 80.5073 112.504C79.8315 113.603 79.2505 114.756 78.6473 115.895C78.3489 116.459 78.0371 117.012 77.82 117.614C77.5973 118.232 77.4615 118.876 77.4015 119.529C77.2879 120.776 77.4529 122.023 77.6605 123.252C78.0544 125.588 78.761 128.144 77.711 130.404C77.2586 131.379 76.5923 132.225 75.9521 133.079C75.2115 134.067 74.5358 135.096 73.9942 136.208C72.9102 138.434 72.3229 140.947 72.7863 143.403C73.8805 142.295 75.0931 141.31 76.4289 140.505C78.5865 139.207 81.0197 138.421 83.5184 138.158Z" fill="#000141"/>
<path d="M115.113 137.143C115.113 137.143 116.674 141.703 115.126 143.446C113.578 145.189 83.8507 155.43 75.5234 153.691C60.6939 150.592 65.6415 138.522 78.9923 136.198C92.3431 133.874 115.113 137.143 115.113 137.143Z" fill="#5D74E4"/>
<path d="M67.5718 173.64H142.676C142.881 173.64 143.048 173.474 143.048 173.268C143.048 173.063 142.881 172.896 142.676 172.896H67.5718C67.3665 172.896 67.2 173.063 67.2 173.268C67.2 173.474 67.3665 173.64 67.5718 173.64Z" fill="#A0C5FF"/>
<path d="M184.146 57.0986C184.146 58.6881 183.154 59.6811 181.609 59.6811C180.063 59.6811 179.071 58.6881 179.071 57.0986C179.071 55.5012 180.063 54.5161 181.609 54.5161C183.154 54.5161 184.146 55.5012 184.146 57.0986ZM182.823 57.0986C182.823 56.0408 182.356 55.4657 181.608 55.4657C180.86 55.4657 180.393 56.0408 180.393 57.0986C180.393 58.1485 180.86 58.7316 181.608 58.7316C182.356 58.7316 182.823 58.1485 182.823 57.0986Z" fill="#5D74E4"/>
<path d="M188.375 59.5802L186.57 56.2993C186.613 56.8034 186.613 57.2418 186.613 57.5294V59.5794H185.319V54.6158H186.93L188.814 58.0405C188.777 57.5365 188.77 57.0261 188.77 56.7378V54.6158H190.064V59.5794H188.375V59.5802Z" fill="#5D74E4"/>
<path d="M195.228 59.5801H191.425V54.6166H192.719V58.4868H195.228V59.5801Z" fill="#5D74E4"/>
<path d="M196.336 59.5801V54.6166H197.63V59.5801H196.336Z" fill="#5D74E4"/>
<path d="M202.045 59.5802L200.24 56.2993C200.284 56.8034 200.284 57.2418 200.284 57.5294V59.5794H198.99V54.6158H200.6L202.484 58.0405C202.448 57.5365 202.441 57.0261 202.441 56.7378V54.6158H203.735V59.5794H202.045V59.5802Z" fill="#5D74E4"/>
<path d="M208.898 59.5801H205.095V54.6166H208.826V55.6238H206.389V56.5876H208.682V57.5949H206.389V58.5729H208.898V59.5801Z" fill="#5D74E4"/>
<path d="M216.355 57.034C216.355 58.5879 215.406 59.4221 214.256 59.5517C214.004 59.5801 213.89 59.5801 213.624 59.5801H211.747V54.6166H213.624C213.89 54.6166 214.004 54.6166 214.256 54.645C215.406 54.7746 216.355 55.4801 216.355 57.034ZM215.004 57.0553C215.004 56.1705 214.557 55.6957 213.911 55.6381C213.746 55.6238 213.631 55.6238 213.444 55.6238H213.041V58.5737H213.444C213.631 58.5737 213.746 58.5737 213.911 58.5595C214.557 58.5018 215.004 57.9401 215.004 57.0553Z" fill="#5D74E4"/>
<path d="M222.417 57.0987C222.417 58.6882 221.424 59.6813 219.879 59.6813C218.333 59.6813 217.34 58.6882 217.34 57.0987C217.34 55.5014 218.333 54.5162 219.879 54.5162C221.424 54.5162 222.417 55.5014 222.417 57.0987ZM221.094 57.0987C221.094 56.0409 220.627 55.4658 219.879 55.4658C219.132 55.4658 218.664 56.0409 218.664 57.0987C218.664 58.1487 219.132 58.7317 219.879 58.7317C220.627 58.7317 221.094 58.1487 221.094 57.0987Z" fill="#5D74E4"/>
<path d="M228.098 56.2496L228.105 56.3214H226.811L226.797 56.2496C226.689 55.7171 226.366 55.4659 225.841 55.4659C225.223 55.4659 224.755 55.9841 224.755 57.0553C224.755 58.3075 225.273 58.7317 225.848 58.7317C226.351 58.7317 226.674 58.4221 226.783 57.8754L226.797 57.8035H228.091L228.084 57.8754C227.961 59.0698 227.049 59.6813 225.804 59.6813C224.474 59.6813 223.404 58.8178 223.404 57.1343C223.404 55.4074 224.51 54.5155 225.855 54.5155C227.271 54.5163 227.998 55.2715 228.098 56.2496Z" fill="#5D74E4"/>
<path d="M231.694 55.6238V59.5809H230.4V55.6238H228.789V54.6166H233.304V55.6238H231.694Z" fill="#5D74E4"/>
<path d="M238.935 57.0987C238.935 58.6882 237.942 59.6813 236.397 59.6813C234.851 59.6813 233.859 58.6882 233.859 57.0987C233.859 55.5014 234.851 54.5162 236.397 54.5162C237.942 54.5162 238.935 55.5014 238.935 57.0987ZM237.612 57.0987C237.612 56.0409 237.144 55.4658 236.397 55.4658C235.649 55.4658 235.182 56.0409 235.182 57.0987C235.182 58.1487 235.649 58.7317 236.397 58.7317C237.144 58.7317 237.612 58.1487 237.612 57.0987Z" fill="#5D74E4"/>
<path d="M244.35 59.5801H242.941C242.825 59.2278 242.754 58.9402 242.711 58.5871C242.646 58.0404 242.431 57.7236 242.1 57.7023C241.956 57.6952 241.834 57.6952 241.69 57.6952H241.403V59.5801H240.109V54.6166H242.079C242.388 54.6166 242.589 54.6237 242.855 54.6521C243.574 54.7382 244.199 55.0906 244.199 55.9691C244.199 56.5947 243.861 57.0119 243.2 57.2062C243.718 57.3934 243.904 57.775 243.976 58.3714C244.04 58.9331 244.156 59.2855 244.35 59.5801ZM241.869 56.7606C242.006 56.7606 242.121 56.7606 242.214 56.7535C242.545 56.7251 242.847 56.6097 242.847 56.1926C242.847 55.7755 242.581 55.6602 242.25 55.6317C242.157 55.6246 242.042 55.6246 241.905 55.6246H241.402V56.7614H241.869V56.7606Z" fill="#5D74E4"/>
<path d="M135.628 70.6766V65.3133H135.533C132.972 65.3133 130.888 63.2285 130.888 60.6657V57.9449C130.888 55.3822 132.971 53.2974 135.533 53.2974H154.829C157.39 53.2974 159.474 55.3822 159.474 57.9449V60.6657C159.474 63.2285 157.389 65.3133 154.829 65.3133H141.519L135.628 70.6766ZM135.533 53.848C133.276 53.848 131.439 55.6855 131.439 57.9441V60.6649C131.439 62.9235 133.276 64.7611 135.533 64.7611H136.179V69.4284L141.305 64.7611H154.828C157.085 64.7611 158.922 62.9235 158.922 60.6649V57.9441C158.922 55.6855 157.085 53.848 154.828 53.848H135.533Z" fill="#A0C5FF"/>
<path d="M143.699 59.4934C143.752 60.3126 144.458 60.9335 145.276 60.8806C146.095 60.8285 146.716 60.1214 146.663 59.303C146.61 58.4838 145.904 57.8628 145.086 57.9157C144.267 57.9679 143.646 58.6741 143.699 59.4934Z" fill="#A0C5FF"/>
<path d="M149.435 59.3986C149.435 60.2194 150.099 60.8846 150.92 60.8846C151.74 60.8846 152.405 60.2194 152.405 59.3986C152.405 58.5778 151.74 57.9126 150.92 57.9126C150.099 57.9126 149.435 58.5778 149.435 59.3986Z" fill="#A0C5FF"/>
<path d="M137.96 59.4935C138.013 60.3127 138.719 60.9337 139.537 60.8807C140.356 60.8286 140.976 60.1215 140.924 59.3031C140.871 58.4839 140.165 57.8629 139.347 57.9159C138.529 57.968 137.908 58.6743 137.96 59.4935Z" fill="#A0C5FF"/>
<path opacity="0.2" d="M42.2589 83.1996V86.5034C42.2589 86.5034 44.9352 87.2855 47.7426 85.1485V81.5098L42.2589 83.1996Z" fill="#000141"/>
<path d="M39.7863 84.8982C36.4129 84.8982 33.0394 83.6136 30.4713 81.043C25.3357 75.9032 25.3357 67.5395 30.4713 62.4006C35.6068 57.26 43.9657 57.26 49.1013 62.4006C49.7581 63.0578 49.7581 64.122 49.1013 64.7793C48.4444 65.4365 47.3802 65.4365 46.7242 64.7793C44.8713 62.9251 42.4065 61.9037 39.7863 61.9037C37.166 61.9037 34.7013 62.9251 32.8484 64.7793C29.0234 68.6076 29.0234 74.836 32.8484 78.6643C34.7013 80.5184 37.166 81.5399 39.7863 81.5399C42.4065 81.5399 44.8713 80.5184 46.7242 78.6643C49.7273 75.6583 50.4607 71.0914 48.5494 67.2994C48.131 66.4699 48.4642 65.4579 49.2923 65.0392C50.1221 64.6157 51.1318 64.9531 51.551 65.7826C54.1192 70.8749 53.1347 77.0077 49.1021 81.043C46.5331 83.6129 43.1589 84.8982 39.7863 84.8982Z" fill="#A0C5FF"/>
<path d="M47.4023 64.0998C51.6086 68.3089 51.6086 75.1337 47.4023 79.3429C43.196 83.552 36.3757 83.552 32.1694 79.3429C27.9631 75.1337 27.9631 68.3089 32.1694 64.0998C36.3757 59.8899 43.1952 59.8899 47.4023 64.0998Z" fill="white"/>
<path opacity="0.54" d="M43.3113 70.5099V75.8621C43.3113 76.7556 42.5905 77.4777 41.7016 77.4777H37.9958C37.1076 77.4777 36.3868 76.7556 36.3868 75.8621V70.5099C36.3868 70.4522 36.3916 70.4001 36.3963 70.3471C36.4247 70.0414 36.5447 69.7499 36.7358 69.5113L38.6171 67.1216H41.0818L42.9632 69.5113C43.1542 69.7499 43.2734 70.0422 43.3026 70.3471C43.3066 70.4001 43.3113 70.453 43.3113 70.5099Z" fill="#A0C5FF"/>
<path d="M43.3113 70.5099V75.1836H36.3868L36.3963 70.3472H43.3018C43.3066 70.4001 43.3113 70.453 43.3113 70.5099Z" fill="#5D74E4"/>
<path d="M41.475 65.3496V66.5946C41.475 66.8893 41.2382 67.1271 40.9429 67.1271H38.745C38.4505 67.1271 38.2129 66.8893 38.2129 66.5946V65.3275C38.2263 65.0415 38.4592 64.8171 38.745 64.8171H40.9429C41.2382 64.8171 41.475 65.0549 41.475 65.3496Z" fill="#A0C5FF"/>
<path d="M40.3981 65.3275H38.2136V65.4373H40.3981V65.3275Z" fill="white"/>
<path d="M39.9899 65.6703H38.2136V65.7801H39.9899V65.6703Z" fill="white"/>
<path d="M40.3981 66.04H38.2136V66.1499H40.3981V66.04Z" fill="white"/>
<path d="M39.9899 66.3829H38.2136V66.4975H39.9899V66.3829Z" fill="white"/>
<path d="M42.0773 70.3472V75.1836H41.6541V70.5099C41.6541 70.4522 41.651 70.4001 41.6478 70.3472H42.0773Z" fill="white"/>
<path opacity="0.2" d="M265.999 122.828V126.484C265.999 126.484 264.298 127.536 260.569 126.484V121.924L265.999 122.828Z" fill="#000141"/>
<path d="M263.094 124.684C259.62 124.684 256.146 123.361 253.502 120.714C248.214 115.422 248.214 106.81 253.502 101.519C258.79 96.2259 267.397 96.2259 272.685 101.519C273.361 102.195 273.361 103.292 272.685 103.969C272.009 104.646 270.913 104.646 270.237 103.969C268.329 102.059 265.791 101.009 263.094 101.009C260.395 101.009 257.858 102.06 255.95 103.969C252.013 107.91 252.013 114.323 255.95 118.265C257.859 120.175 260.396 121.225 263.094 121.225C265.791 121.225 268.329 120.174 270.237 118.265C273.328 115.171 274.085 110.468 272.116 106.563C271.685 105.709 272.027 104.667 272.881 104.237C273.736 103.8 274.775 104.148 275.207 105.002C277.85 110.245 276.837 116.56 272.685 120.715C270.04 123.36 266.567 124.684 263.094 124.684Z" fill="#A0C5FF"/>
<path d="M270.935 103.269C275.267 107.603 275.267 114.63 270.935 118.964C266.604 123.298 259.582 123.298 255.251 118.964C250.92 114.63 250.92 107.603 255.251 103.269C259.582 98.9348 266.604 98.9348 270.935 103.269Z" fill="url(#paint0_linear_1_4601)"/>
<path d="M267.103 106.492L265.247 112.692C264.95 113.687 263.901 114.26 262.905 113.961C261.91 113.663 261.35 112.608 261.647 111.612L263.503 105.413C263.802 104.417 264.85 103.845 265.845 104.143C266.84 104.441 267.402 105.497 267.103 106.492Z" fill="#5D74E4"/>
<path d="M267.103 106.492L266.191 109.54L262.591 108.461L263.503 105.413C263.802 104.417 264.85 103.845 265.845 104.143C266.84 104.441 267.402 105.497 267.103 106.492Z" fill="#A0C5FF"/>
<path opacity="0.44" d="M262.591 108.461L266.059 109.989L266.191 109.54L262.591 108.461Z" fill="#BAF1EB"/>
<path opacity="0.49" d="M266 104.545C266.315 104.735 266.591 105.013 266.759 105.368C266.96 105.726 266.84 106.192 266.747 106.517C266.574 107.232 266.383 107.942 266.179 108.647C265.773 110.06 265.335 111.462 264.831 112.844L264.824 112.864L264.821 112.869C264.65 113.141 264.425 113.359 264.148 113.506C263.87 113.653 263.534 113.672 263.263 113.554C263.555 113.606 263.845 113.538 264.069 113.374C264.288 113.209 264.465 112.977 264.588 112.745L264.578 112.769C264.918 111.336 265.322 109.924 265.76 108.521C265.978 107.82 266.207 107.122 266.455 106.43C266.593 106.07 266.693 105.775 266.584 105.433C266.489 105.101 266.263 104.8 266 104.545Z" fill="white"/>
<path d="M262.754 109.545V116.017C262.754 117.057 261.914 117.906 260.875 117.906C259.836 117.906 258.995 117.057 258.995 116.017V109.545C258.995 108.506 259.835 107.656 260.875 107.656C261.914 107.656 262.754 108.506 262.754 109.545Z" fill="#5D74E4"/>
<path d="M262.754 109.545V112.727H258.996V109.545C258.996 108.506 259.836 107.656 260.876 107.656C261.914 107.656 262.754 108.506 262.754 109.545Z" fill="#A0C5FF"/>
<path opacity="0.44" d="M258.996 112.727L262.756 113.195L262.754 112.727H258.996Z" fill="#BAF1EB"/>
<path opacity="0.49" d="M261.139 107.998C261.497 108.089 261.839 108.275 262.102 108.567C262.397 108.852 262.415 109.333 262.42 109.672C262.459 110.406 262.479 111.141 262.487 111.876C262.503 113.345 262.486 114.814 262.4 116.283L262.399 116.305L262.397 116.309C262.312 116.62 262.16 116.893 261.935 117.113C261.712 117.333 261.395 117.448 261.102 117.413C261.397 117.379 261.655 117.23 261.822 117.009C261.985 116.788 262.088 116.515 262.138 116.257L262.136 116.283C262.051 114.814 262.033 113.344 262.049 111.876C262.057 111.141 262.077 110.406 262.115 109.672C262.145 109.288 262.156 108.977 261.954 108.68C261.767 108.389 261.464 108.165 261.139 107.998Z" fill="white"/>
<path d="M265.895 116.812C265.577 117.315 264.986 117.532 264.443 117.403C264.379 117.391 264.319 117.374 264.256 117.349C264.181 117.322 264.101 117.279 264.029 117.235C263.948 117.184 263.878 117.125 263.811 117.062C263.762 117.016 263.72 116.969 263.683 116.917C263.345 116.483 263.292 115.868 263.606 115.369C263.917 114.875 264.498 114.652 265.034 114.77C265.098 114.781 265.158 114.798 265.221 114.823C265.307 114.856 265.389 114.894 265.471 114.946C265.542 114.991 265.615 115.044 265.671 115.101C265.721 115.146 265.762 115.194 265.8 115.246C266.152 115.681 266.211 116.309 265.895 116.812Z" fill="#5D74E4"/>
<path d="M265.801 115.246C265.801 115.246 264.319 117.375 264.256 117.35C264.181 117.323 264.101 117.28 264.029 117.236C263.948 117.185 263.878 117.126 263.811 117.063C263.762 117.017 265.034 114.77 265.034 114.77C265.098 114.782 265.158 114.799 265.221 114.824C265.307 114.857 265.389 114.895 265.471 114.947C265.542 114.992 265.615 115.045 265.671 115.101C265.722 115.146 265.763 115.194 265.801 115.246Z" fill="#A0C5FF"/>
<path opacity="0.49" d="M265.672 115.101L264.256 117.35C264.181 117.323 264.101 117.28 264.029 117.236C263.948 117.185 263.878 117.126 263.811 117.063L265.221 114.824C265.307 114.857 265.389 114.895 265.471 114.947C265.543 114.991 265.616 115.044 265.672 115.101Z" fill="white"/>
<path d="M269.157 113.926C269.275 114.667 268.896 115.364 268.273 115.694C268.202 115.737 268.131 115.77 268.052 115.798C267.958 115.836 267.847 115.861 267.742 115.878C267.622 115.897 267.508 115.9 267.392 115.895C267.307 115.893 267.23 115.883 267.15 115.865C266.47 115.736 265.908 115.195 265.792 114.462C265.677 113.736 266.041 113.042 266.647 112.707C266.717 112.664 266.788 112.63 266.868 112.603C266.976 112.562 267.087 112.529 267.206 112.51C267.311 112.494 267.425 112.484 267.525 112.49C267.61 112.493 267.688 112.503 267.767 112.521C268.461 112.641 269.039 113.185 269.157 113.926Z" fill="#5D74E4"/>
<path d="M267.767 112.521C267.767 112.521 268.131 115.77 268.052 115.798C267.958 115.836 267.847 115.861 267.742 115.878C267.622 115.897 267.508 115.9 267.392 115.895C267.307 115.893 266.647 112.707 266.647 112.707C266.717 112.664 266.788 112.63 266.868 112.603C266.976 112.562 267.087 112.529 267.206 112.51C267.311 112.494 267.425 112.484 267.525 112.49C267.61 112.493 267.688 112.503 267.767 112.521Z" fill="#A0C5FF"/>
<path opacity="0.49" d="M267.526 112.49L268.052 115.798C267.958 115.836 267.848 115.861 267.743 115.878C267.623 115.897 267.508 115.9 267.393 115.895L266.869 112.603C266.977 112.562 267.088 112.529 267.207 112.51C267.311 112.494 267.425 112.484 267.526 112.49Z" fill="white"/>
<path d="M271.063 78.4297C271.311 78.4297 271.513 78.2282 271.513 77.9794C271.513 77.7305 271.311 77.5291 271.063 77.5291C270.814 77.5291 270.613 77.7305 270.613 77.9794C270.613 78.2282 270.815 78.4297 271.063 78.4297Z" fill="#A0C5FF"/>
<path d="M271.063 81.8819C271.311 81.8819 271.513 81.6805 271.513 81.4316C271.513 81.1828 271.311 80.9813 271.063 80.9813C270.814 80.9813 270.613 81.1828 270.613 81.4316C270.613 81.6805 270.815 81.8819 271.063 81.8819Z" fill="#A0C5FF"/>
<path d="M271.063 85.3342C271.311 85.3342 271.513 85.1327 271.513 84.8839C271.513 84.635 271.311 84.4336 271.063 84.4336C270.814 84.4336 270.613 84.635 270.613 84.8839C270.613 85.1327 270.815 85.3342 271.063 85.3342Z" fill="#A0C5FF"/>
<path d="M271.063 88.7866C271.311 88.7866 271.513 88.5851 271.513 88.3363C271.513 88.0874 271.311 87.886 271.063 87.886C270.814 87.886 270.613 88.0874 270.613 88.3363C270.613 88.5851 270.815 88.7866 271.063 88.7866Z" fill="#A0C5FF"/>
<path d="M273.005 76.6245C273.253 76.6245 273.455 76.423 273.455 76.1742C273.455 75.9253 273.253 75.7239 273.005 75.7239C272.756 75.7239 272.555 75.9253 272.555 76.1742C272.555 76.423 272.757 76.6245 273.005 76.6245Z" fill="#A0C5FF"/>
<path d="M273.005 80.0776C273.253 80.0776 273.455 79.8762 273.455 79.6273C273.455 79.3785 273.253 79.177 273.005 79.177C272.756 79.177 272.555 79.3785 272.555 79.6273C272.555 79.8754 272.757 80.0776 273.005 80.0776Z" fill="#A0C5FF"/>
<path d="M273.005 83.5299C273.253 83.5299 273.455 83.3284 273.455 83.0796C273.455 82.8307 273.253 82.6293 273.005 82.6293C272.756 82.6293 272.555 82.8307 272.555 83.0796C272.555 83.3284 272.757 83.5299 273.005 83.5299Z" fill="#A0C5FF"/>
<path d="M273.005 86.9821C273.253 86.9821 273.455 86.7807 273.455 86.5318C273.455 86.283 273.253 86.0815 273.005 86.0815C272.756 86.0815 272.555 86.283 272.555 86.5318C272.555 86.7807 272.757 86.9821 273.005 86.9821Z" fill="#A0C5FF"/>
<path d="M28.7984 162.699C29.111 162.699 29.3637 162.445 29.3637 162.133C29.3637 161.82 29.1103 161.568 28.7984 161.568C28.4866 161.568 28.2332 161.821 28.2332 162.133C28.2332 162.446 28.4858 162.699 28.7984 162.699Z" fill="#A0C5FF"/>
<path d="M28.7984 167.037C29.111 167.037 29.3637 166.783 29.3637 166.471C29.3637 166.159 29.1103 165.906 28.7984 165.906C28.4866 165.906 28.2332 166.159 28.2332 166.471C28.2332 166.784 28.4858 167.037 28.7984 167.037Z" fill="#A0C5FF"/>
<path d="M28.7984 171.375C29.111 171.375 29.3637 171.121 29.3637 170.809C29.3637 170.496 29.1103 170.243 28.7984 170.243C28.4866 170.243 28.2332 170.497 28.2332 170.809C28.2332 171.121 28.4858 171.375 28.7984 171.375Z" fill="#A0C5FF"/>
<path d="M28.7984 175.713C29.111 175.713 29.3637 175.459 29.3637 175.147C29.3637 174.834 29.1103 174.581 28.7984 174.581C28.4866 174.581 28.2332 174.835 28.2332 175.147C28.2332 175.459 28.4858 175.713 28.7984 175.713Z" fill="#A0C5FF"/>
<path d="M31.2387 160.432C31.5514 160.432 31.804 160.178 31.804 159.866C31.804 159.554 31.5506 159.3 31.2387 159.3C30.9269 159.3 30.6735 159.554 30.6735 159.866C30.6735 160.178 30.9261 160.432 31.2387 160.432Z" fill="#A0C5FF"/>
<path d="M31.2387 164.769C31.5514 164.769 31.804 164.516 31.804 164.204C31.804 163.892 31.5506 163.638 31.2387 163.638C30.9269 163.638 30.6735 163.892 30.6735 164.204C30.6735 164.516 30.9261 164.769 31.2387 164.769Z" fill="#A0C5FF"/>
<path d="M31.2387 169.107C31.5514 169.107 31.804 168.854 31.804 168.542C31.804 168.229 31.5506 167.976 31.2387 167.976C30.9269 167.976 30.6735 168.23 30.6735 168.542C30.6727 168.854 30.9261 169.107 31.2387 169.107Z" fill="#A0C5FF"/>
<path d="M31.2387 173.445C31.5514 173.445 31.804 173.192 31.804 172.88C31.804 172.568 31.5506 172.314 31.2387 172.314C30.9269 172.314 30.6735 172.568 30.6735 172.88C30.6727 173.192 30.9261 173.445 31.2387 173.445Z" fill="#A0C5FF"/>
<defs>
<linearGradient id="paint0_linear_1_4601" x1="252.002" y1="111.116" x2="274.184" y2="111.116" gradientUnits="userSpaceOnUse">
<stop stop-color="#D1F4FF"/>
<stop offset="0.4183" stop-color="#FBFEFE"/>
<stop offset="1" stop-color="#D1F4FF"/>
</linearGradient>
</defs>
</svg>
