<svg width="325" height="250" viewBox="0 0 325 250" fill="none" xmlns="http://www.w3.org/2000/svg">
<g opacity="0.4">
<path d="M96.8429 44.6602L108.82 65.4202L96.8429 86.1803H72.8892L60.9123 65.4202L72.8892 44.6602H96.8429Z" stroke="#424242" stroke-width="6" stroke-miterlimit="10"/>
<path d="M138.363 68.614L150.34 89.3741L138.363 110.134H114.409L102.432 89.3741L114.409 68.614H138.363Z" fill="#424242" stroke="#424242" stroke-width="6" stroke-miterlimit="10"/>
<path d="M138.363 116.522L150.34 137.282L138.363 158.042H114.409L102.432 137.282L114.409 116.522H138.363ZM179.883 44.6602L191.86 65.4202L179.883 86.1803H155.929L143.952 65.4202L155.929 44.6602H179.883Z" stroke="#424242" stroke-width="6" stroke-miterlimit="10"/>
<path d="M179.883 92.5678L191.86 113.328L179.883 134.088H155.929L143.952 113.328L155.929 92.5678H179.883ZM221.403 20.7064L233.38 41.4665L221.403 62.2262H197.449L185.472 41.4665L197.449 20.7064H221.403Z" fill="#424242" stroke="#424242" stroke-width="6" stroke-miterlimit="10"/>
<path d="M221.403 68.614L233.38 89.3741L221.403 110.134H197.449L185.472 89.3741L197.449 68.614H221.403ZM221.403 116.522L233.38 137.282L221.403 158.042H197.449L185.472 137.282L197.449 116.522H221.403Z" stroke="#424242" stroke-width="6" stroke-miterlimit="10"/>
<path d="M262.923 92.5678L274.9 113.328L262.923 134.088H238.969L226.992 113.328L238.969 92.5678H262.923ZM304.443 20.7064L316.42 41.4665L304.443 62.2262H280.489L268.512 41.4665L280.489 20.7064H304.443Z" fill="#424242" stroke="#424242" stroke-width="6" stroke-miterlimit="10"/>
<path d="M304.443 68.614L316.42 89.3741L304.443 110.134H280.489L268.512 89.3741L280.489 68.614H304.443Z" stroke="#424242" stroke-width="6" stroke-miterlimit="10"/>
</g>
<path d="M304.3 237.228C300.543 237.228 297.498 234.182 297.498 230.426V177.084H311.102V230.426C311.102 234.182 308.056 237.228 304.3 237.228Z" fill="white"/>
<path d="M312.176 171.356H296.424C295.664 171.356 294.936 171.658 294.399 172.195C293.862 172.732 293.56 173.46 293.56 174.22C293.56 174.98 293.862 175.708 294.399 176.245C294.936 176.782 295.664 177.084 296.424 177.084H312.176C312.936 177.084 313.664 176.782 314.201 176.245C314.738 175.708 315.04 174.98 315.04 174.22C315.04 173.46 314.738 172.732 314.201 172.195C313.664 171.658 312.936 171.356 312.176 171.356Z" fill="#D8D8D8"/>
<path d="M304.3 237.228C300.544 237.228 297.498 234.182 297.498 230.426V177.084H311.102V230.426C311.102 234.182 308.056 237.228 304.3 237.228ZM312.176 171.356H296.424C295.664 171.356 294.936 171.658 294.399 172.195C293.862 172.732 293.56 173.46 293.56 174.22C293.56 174.98 293.862 175.708 294.399 176.245C294.936 176.782 295.664 177.084 296.424 177.084H312.176C312.936 177.084 313.664 176.782 314.201 176.245C314.738 175.708 315.04 174.98 315.04 174.22C315.04 173.46 314.738 172.732 314.201 172.195C313.664 171.658 312.936 171.356 312.176 171.356Z" stroke="#30292C" stroke-width="3" stroke-miterlimit="10" stroke-linecap="round" stroke-linejoin="round"/>
<path d="M300.72 211.094V230.426C300.72 232.4 302.326 234.006 304.3 234.006C306.274 234.006 307.88 232.4 307.88 230.426V211.094H300.72Z" fill="#FF415B"/>
<path d="M300.72 211.094V230.426C300.72 232.4 302.326 234.006 304.3 234.006C306.274 234.006 307.88 232.4 307.88 230.426V211.094H300.72Z" stroke="#30292C" stroke-width="3" stroke-miterlimit="10" stroke-linecap="round" stroke-linejoin="round"/>
<path d="M302.492 164.537C303.124 164.537 303.635 164.025 303.635 163.394C303.635 162.763 303.124 162.251 302.492 162.251C301.861 162.251 301.35 162.763 301.35 163.394C301.35 164.025 301.861 164.537 302.492 164.537Z" fill="#EC1CE4"/>
<path d="M298.034 153.296C299.461 153.296 300.618 152.139 300.618 150.711C300.618 149.284 299.461 148.127 298.034 148.127C296.607 148.127 295.45 149.284 295.45 150.711C295.45 152.139 296.607 153.296 298.034 153.296Z" fill="#FF415B"/>
<path d="M310.161 162.807C311.384 162.807 312.376 161.815 312.376 160.592C312.376 159.369 311.384 158.377 310.161 158.377C308.938 158.377 307.946 159.369 307.946 160.592C307.946 161.815 308.938 162.807 310.161 162.807Z" fill="#FF415B"/>
<path d="M302.492 164.537C303.124 164.537 303.635 164.025 303.635 163.394C303.635 162.763 303.124 162.251 302.492 162.251C301.861 162.251 301.35 162.763 301.35 163.394C301.35 164.025 301.861 164.537 302.492 164.537Z" stroke="#133B4F" stroke-width="3" stroke-miterlimit="10" stroke-linecap="round" stroke-linejoin="round"/>
<path d="M305.028 156.518C305.436 156.518 305.766 156.187 305.766 155.779C305.766 155.372 305.436 155.041 305.028 155.041C304.62 155.041 304.29 155.372 304.29 155.779C304.29 156.187 304.62 156.518 305.028 156.518Z" stroke="#133B4F" stroke-width="3" stroke-miterlimit="10" stroke-linecap="round" stroke-linejoin="round"/>
<path d="M298.034 153.296C299.461 153.296 300.618 152.139 300.618 150.711C300.618 149.284 299.461 148.127 298.034 148.127C296.607 148.127 295.45 149.284 295.45 150.711C295.45 152.139 296.607 153.296 298.034 153.296Z" stroke="#133B4F" stroke-width="3" stroke-miterlimit="10" stroke-linecap="round" stroke-linejoin="round"/>
<path d="M310.161 162.807C311.384 162.807 312.376 161.815 312.376 160.592C312.376 159.369 311.384 158.377 310.161 158.377C308.938 158.377 307.946 159.369 307.946 160.592C307.946 161.815 308.938 162.807 310.161 162.807Z" stroke="#133B4F" stroke-width="3" stroke-miterlimit="10" stroke-linecap="round" stroke-linejoin="round"/>
<path d="M303.05 199.519C304.483 199.519 305.645 198.357 305.645 196.923C305.645 195.49 304.483 194.328 303.05 194.328C301.616 194.328 300.454 195.49 300.454 196.923C300.454 198.357 301.616 199.519 303.05 199.519Z" fill="#FF415B"/>
<path d="M303.05 199.519C304.483 199.519 305.645 198.357 305.645 196.923C305.645 195.49 304.483 194.328 303.05 194.328C301.616 194.328 300.454 195.49 300.454 196.923C300.454 198.357 301.616 199.519 303.05 199.519Z" stroke="#30292C" stroke-width="3" stroke-miterlimit="10" stroke-linecap="round" stroke-linejoin="round"/>
<path d="M305.285 206.857C305.894 206.857 306.388 206.363 306.388 205.754C306.388 205.144 305.894 204.65 305.285 204.65C304.675 204.65 304.181 205.144 304.181 205.754C304.181 206.363 304.675 206.857 305.285 206.857Z" fill="#FF415B"/>
<path d="M305.285 206.857C305.894 206.857 306.388 206.363 306.388 205.754C306.388 205.144 305.894 204.65 305.285 204.65C304.675 204.65 304.181 205.144 304.181 205.754C304.181 206.363 304.675 206.857 305.285 206.857Z" stroke="#30292C" stroke-width="3" stroke-miterlimit="10" stroke-linecap="round" stroke-linejoin="round"/>
<path d="M306.749 183.643C307.597 183.643 308.284 182.956 308.284 182.108C308.284 181.261 307.597 180.574 306.749 180.574C305.902 180.574 305.215 181.261 305.215 182.108C305.215 182.956 305.902 183.643 306.749 183.643Z" fill="#FF415B"/>
<path d="M306.749 183.643C307.597 183.643 308.284 182.956 308.284 182.108C308.284 181.261 307.597 180.574 306.749 180.574C305.902 180.574 305.215 181.261 305.215 182.108C305.215 182.956 305.902 183.643 306.749 183.643Z" stroke="#30292C" stroke-width="3" stroke-miterlimit="10" stroke-linecap="round" stroke-linejoin="round"/>
<path d="M301.349 180.27C301.669 180.27 301.929 180.011 301.929 179.691C301.929 179.37 301.669 179.111 301.349 179.111C301.029 179.111 300.77 179.37 300.77 179.691C300.77 180.011 301.029 180.27 301.349 180.27Z" fill="#67CC70"/>
<path d="M301.349 180.27C301.669 180.27 301.929 180.011 301.929 179.691C301.929 179.37 301.669 179.111 301.349 179.111C301.029 179.111 300.77 179.37 300.77 179.691C300.77 180.011 301.029 180.27 301.349 180.27Z" stroke="#30292C" stroke-width="3" stroke-miterlimit="10" stroke-linecap="round" stroke-linejoin="round"/>
<path d="M304.742 217.229C305.052 217.229 305.303 216.977 305.303 216.667C305.303 216.357 305.052 216.106 304.742 216.106C304.432 216.106 304.181 216.357 304.181 216.667C304.181 216.977 304.432 217.229 304.742 217.229Z" fill="#30292C"/>
<path d="M301.66 223.624C302.179 223.624 302.599 223.203 302.599 222.684C302.599 222.165 302.179 221.745 301.66 221.745C301.141 221.745 300.72 222.165 300.72 222.684C300.72 223.203 301.141 223.624 301.66 223.624Z" fill="#30292C"/>
<path d="M305.842 228.683C306.585 228.683 307.188 228.081 307.188 227.337C307.188 226.594 306.585 225.991 305.842 225.991C305.099 225.991 304.496 226.594 304.496 227.337C304.496 228.081 305.099 228.683 305.842 228.683Z" fill="#30292C"/>
<path d="M303.847 215.215C303.959 215.215 304.05 215.124 304.05 215.012C304.05 214.899 303.959 214.808 303.847 214.808C303.735 214.808 303.644 214.899 303.644 215.012C303.644 215.124 303.735 215.215 303.847 215.215Z" fill="#30292C"/>
<path d="M280.001 237.228C276.245 237.228 273.199 234.182 273.199 230.426V177.084H286.803V230.426C286.803 234.182 283.758 237.228 280.001 237.228Z" fill="white"/>
<path d="M280.001 237.228C276.245 237.228 273.199 234.182 273.199 230.426V177.084H286.803V230.426C286.803 234.182 283.758 237.228 280.001 237.228Z" stroke="#30292C" stroke-width="3" stroke-miterlimit="10" stroke-linecap="round" stroke-linejoin="round"/>
<path d="M274.363 164.315H285.64V177.084H274.363V164.315Z" fill="#CE7867"/>
<path d="M274.363 164.315H285.64V177.084H274.363V164.315Z" stroke="#30292C" stroke-width="3" stroke-miterlimit="10" stroke-linecap="round" stroke-linejoin="round"/>
<path d="M287.877 171.356H272.125C271.366 171.356 270.637 171.658 270.1 172.195C269.563 172.732 269.261 173.46 269.261 174.22C269.261 174.98 269.563 175.708 270.1 176.245C270.637 176.782 271.366 177.084 272.125 177.084H287.877C288.637 177.084 289.365 176.782 289.902 176.245C290.439 175.708 290.741 174.98 290.741 174.22C290.741 173.46 290.439 172.732 289.902 172.195C289.365 171.658 288.637 171.356 287.877 171.356Z" fill="#D8D8D8"/>
<path d="M287.877 171.356H272.125C271.366 171.356 270.637 171.658 270.1 172.195C269.563 172.732 269.261 173.46 269.261 174.22C269.261 174.98 269.563 175.708 270.1 176.245C270.637 176.782 271.366 177.084 272.125 177.084H287.877C288.637 177.084 289.365 176.782 289.902 176.245C290.439 175.708 290.741 174.98 290.741 174.22C290.741 173.46 290.439 172.732 289.902 172.195C289.365 171.658 288.637 171.356 287.877 171.356Z" stroke="#30292C" stroke-width="3" stroke-miterlimit="10" stroke-linecap="round" stroke-linejoin="round"/>
<path d="M276.421 192.12V230.426C276.421 232.4 278.027 234.006 280.001 234.006C281.975 234.006 283.581 232.4 283.581 230.426V192.12H276.421Z" fill="#5CECFF"/>
<path d="M276.421 192.12V230.426C276.421 232.4 278.027 234.006 280.001 234.006C281.975 234.006 283.581 232.4 283.581 230.426V192.12H276.421Z" stroke="#30292C" stroke-width="3" stroke-miterlimit="10" stroke-linecap="round" stroke-linejoin="round"/>
<path d="M277.719 203.934C278.312 203.934 278.793 203.453 278.793 202.86C278.793 202.267 278.312 201.786 277.719 201.786C277.125 201.786 276.645 202.267 276.645 202.86C276.645 203.453 277.125 203.934 277.719 203.934Z" fill="#30292C"/>
<path d="M277.718 185.586C278.707 185.586 279.508 184.785 279.508 183.796C279.508 182.808 278.707 182.006 277.718 182.006C276.73 182.006 275.928 182.808 275.928 183.796C275.928 184.785 276.73 185.586 277.718 185.586Z" fill="#5CECFF"/>
<path d="M277.718 185.586C278.707 185.586 279.508 184.785 279.508 183.796C279.508 182.808 278.707 182.006 277.718 182.006C276.73 182.006 275.928 182.808 275.928 183.796C275.928 184.785 276.73 185.586 277.718 185.586Z" stroke="#30292C" stroke-width="3" stroke-miterlimit="10" stroke-linecap="round" stroke-linejoin="round"/>
<path d="M282.253 209.304C282.649 209.304 282.969 208.984 282.969 208.588C282.969 208.193 282.649 207.872 282.253 207.872C281.858 207.872 281.537 208.193 281.537 208.588C281.537 208.984 281.858 209.304 282.253 209.304Z" fill="#30292C"/>
<path d="M279.435 227.98C279.79 227.98 280.078 227.692 280.078 227.337C280.078 226.982 279.79 226.695 279.435 226.695C279.08 226.695 278.792 226.982 278.792 227.337C278.792 227.692 279.08 227.98 279.435 227.98Z" fill="#30292C"/>
<path d="M279.793 224.726C280.361 224.726 280.821 224.265 280.821 223.697C280.821 223.13 280.361 222.669 279.793 222.669C279.225 222.669 278.765 223.13 278.765 223.697C278.765 224.265 279.225 224.726 279.793 224.726Z" fill="#30292C"/>
<path d="M131.594 207.514C131.449 207.514 131.306 207.485 131.172 207.43C131.038 207.375 130.916 207.293 130.814 207.191C130.712 207.088 130.63 206.967 130.575 206.833C130.52 206.699 130.491 206.556 130.491 206.411V202.502H121.899V206.411C121.899 206.703 121.783 206.984 121.576 207.191C121.369 207.398 121.089 207.514 120.796 207.514H120.438C117.982 207.514 115.992 209.504 115.992 211.96V234.622C115.992 236.753 117.72 238.481 119.851 238.481H132.181C134.312 238.481 136.04 236.753 136.04 234.621V211.96C136.04 209.504 134.05 207.514 131.594 207.514Z" fill="white"/>
<path d="M131.594 207.514C131.449 207.514 131.306 207.485 131.172 207.43C131.038 207.375 130.916 207.293 130.814 207.191C130.712 207.088 130.63 206.967 130.575 206.833C130.52 206.699 130.491 206.556 130.491 206.411V202.502H121.899V206.411C121.899 206.703 121.783 206.984 121.576 207.191C121.369 207.398 121.089 207.514 120.796 207.514H120.438C117.982 207.514 115.992 209.504 115.992 211.96V234.622C115.992 236.753 117.72 238.481 119.851 238.481H132.181C134.312 238.481 136.04 236.753 136.04 234.621V211.96C136.04 209.504 134.05 207.514 131.594 207.514Z" stroke="#30292C" stroke-width="3" stroke-miterlimit="10" stroke-linecap="round" stroke-linejoin="round"/>
<path d="M118.856 202.502V198.986C118.856 198.59 119.014 198.209 119.294 197.928C119.575 197.648 119.956 197.49 120.352 197.49H132.396C132.792 197.49 133.173 197.648 133.454 197.928C133.734 198.209 133.892 198.59 133.892 198.986V202.502" fill="#CCCCCC"/>
<path d="M133.892 202.502H118.856V198.986C118.856 198.59 119.014 198.209 119.294 197.928C119.575 197.648 119.956 197.49 120.352 197.49H132.396C132.792 197.49 133.173 197.648 133.454 197.928C133.734 198.209 133.892 198.59 133.892 198.986V202.502Z" stroke="#30292C" stroke-width="3" stroke-miterlimit="10" stroke-linecap="round" stroke-linejoin="round"/>
<path d="M133.158 213.6C133.068 212.796 132.393 212.168 131.565 212.168C131.232 212.168 130.923 212.269 130.666 212.442C130.645 211.793 130.372 211.177 129.905 210.725C129.438 210.273 128.814 210.02 128.164 210.02C127.499 210.02 126.862 210.284 126.392 210.754C125.922 211.224 125.658 211.861 125.658 212.526V213.063C125.658 212.541 125.451 212.04 125.081 211.671C124.712 211.301 124.211 211.094 123.689 211.094C123.167 211.094 122.666 211.301 122.297 211.671C121.927 212.04 121.72 212.541 121.72 213.063C121.72 213.25 121.362 213.482 121.362 213.421C121.362 213.089 121.23 212.77 120.995 212.535C120.76 212.3 120.441 212.168 120.109 212.168C119.777 212.168 119.458 212.3 119.223 212.535C118.988 212.77 118.856 213.089 118.856 213.421C118.856 213.482 118.866 213.541 118.874 213.6H118.856V234.622C118.856 234.886 118.961 235.139 119.147 235.326C119.334 235.512 119.587 235.617 119.851 235.617H132.181C132.445 235.617 132.698 235.512 132.884 235.326C133.071 235.139 133.176 234.886 133.176 234.622V213.6H133.158Z" fill="#5CECFF"/>
<path d="M122.333 218.97C122.908 218.97 123.374 218.504 123.374 217.929C123.374 217.353 122.908 216.887 122.333 216.887C121.758 216.887 121.291 217.353 121.291 217.929C121.291 218.504 121.758 218.97 122.333 218.97Z" fill="#30292C"/>
<path d="M126.339 223.402C126.556 223.402 126.732 223.226 126.732 223.009C126.732 222.791 126.556 222.615 126.339 222.615C126.121 222.615 125.945 222.791 125.945 223.009C125.945 223.226 126.121 223.402 126.339 223.402Z" fill="#30292C"/>
<path d="M125.981 207.65C126.198 207.65 126.374 207.474 126.374 207.257C126.374 207.039 126.198 206.863 125.981 206.863C125.763 206.863 125.587 207.039 125.587 207.257C125.587 207.474 125.763 207.65 125.981 207.65Z" fill="#30292C"/>
<path d="M123.654 208.724C123.772 208.724 123.868 208.628 123.868 208.51C123.868 208.391 123.772 208.295 123.654 208.295C123.535 208.295 123.439 208.391 123.439 208.51C123.439 208.628 123.535 208.724 123.654 208.724Z" fill="#30292C"/>
<path d="M129.74 231.278C130.056 231.278 130.312 231.022 130.312 230.706C130.312 230.389 130.056 230.133 129.74 230.133C129.423 230.133 129.167 230.389 129.167 230.706C129.167 231.022 129.423 231.278 129.74 231.278Z" fill="#30292C"/>
<path d="M128.845 218.032C129.062 218.032 129.238 217.856 129.238 217.639C129.238 217.421 129.062 217.245 128.845 217.245C128.627 217.245 128.451 217.421 128.451 217.639C128.451 217.856 128.627 218.032 128.845 218.032Z" fill="#30292C"/>
<path d="M133.158 213.6C133.068 212.796 132.393 212.168 131.565 212.168C131.232 212.168 130.923 212.269 130.666 212.442C130.645 211.793 130.372 211.177 129.905 210.725C129.438 210.273 128.814 210.02 128.164 210.02C127.499 210.02 126.862 210.284 126.392 210.754C125.922 211.224 125.658 211.861 125.658 212.526V213.063C125.658 212.541 125.451 212.04 125.081 211.671C124.712 211.301 124.211 211.094 123.689 211.094C123.167 211.094 122.666 211.301 122.297 211.671C121.927 212.04 121.72 212.541 121.72 213.063C121.72 213.25 121.362 213.482 121.362 213.421C121.362 213.089 121.23 212.77 120.995 212.535C120.76 212.3 120.441 212.168 120.109 212.168C119.777 212.168 119.458 212.3 119.223 212.535C118.988 212.77 118.856 213.089 118.856 213.421C118.856 213.482 118.866 213.541 118.874 213.6H118.856V234.622C118.856 234.886 118.961 235.139 119.147 235.326C119.334 235.512 119.587 235.617 119.851 235.617H132.181C132.445 235.617 132.698 235.512 132.884 235.326C133.071 235.139 133.176 234.886 133.176 234.622V213.6H133.158Z" stroke="#30292C" stroke-width="3" stroke-miterlimit="10" stroke-linecap="round" stroke-linejoin="round"/>
<path d="M236.369 223.624H155.103C152.335 223.624 150.091 225.868 150.091 228.636V233.648C150.091 236.416 152.335 238.66 155.103 238.66H158.792C159.615 235.966 162.12 234.006 165.083 234.006H226.39C229.353 234.006 231.858 235.966 232.681 238.66H236.369C239.138 238.66 241.381 236.416 241.381 233.648V228.636C241.381 225.868 239.138 223.624 236.369 223.624Z" fill="#CCCCCC"/>
<path d="M236.369 223.624H155.103C152.335 223.624 150.091 225.868 150.091 228.636V233.648C150.091 236.416 152.335 238.66 155.103 238.66H158.792C159.615 235.966 162.12 234.006 165.083 234.006H226.39C229.353 234.006 231.858 235.966 232.681 238.66H236.369C239.138 238.66 241.381 236.416 241.381 233.648V228.636C241.381 225.868 239.138 223.624 236.369 223.624Z" stroke="#30292C" stroke-width="3" stroke-miterlimit="10" stroke-linecap="round" stroke-linejoin="round"/>
<path d="M100.3 182.812C96.9385 182.812 94.2138 180.087 94.2138 176.726V171.356H79.8938V176.726C79.8938 180.087 77.1691 182.812 73.8078 182.812C69.0625 182.812 65.2158 186.659 65.2158 191.404V230.068C65.2158 234.813 69.0625 238.66 73.8078 238.66H100.3C105.045 238.66 108.892 234.813 108.892 230.068V191.404C108.892 186.659 105.045 182.812 100.3 182.812Z" fill="white"/>
<path d="M91.2871 194.267C91.9788 194.267 92.5394 193.706 92.5394 193.014C92.5394 192.323 91.9788 191.762 91.2871 191.762C90.5955 191.762 90.0349 192.323 90.0349 193.014C90.0349 193.706 90.5955 194.267 91.2871 194.267Z" fill="#FF415B"/>
<path d="M91.2871 194.267C91.9788 194.267 92.5394 193.706 92.5394 193.014C92.5394 192.323 91.9788 191.762 91.2871 191.762C90.5955 191.762 90.0349 192.323 90.0349 193.014C90.0349 193.706 90.5955 194.267 91.2871 194.267Z" stroke="#30292C" stroke-width="3" stroke-miterlimit="10" stroke-linecap="round" stroke-linejoin="round"/>
<path d="M68.0798 193.91V230.068C68.0798 233.226 70.6495 235.796 73.8078 235.796H100.3C103.458 235.796 106.028 233.226 106.028 230.068V193.91H68.0798Z" fill="#FF415B"/>
<path d="M100.3 182.812C96.9385 182.812 94.2138 180.087 94.2138 176.726V171.356H79.8938V176.726C79.8938 180.087 77.1691 182.812 73.8078 182.812C69.0625 182.812 65.2158 186.659 65.2158 191.404V230.068C65.2158 234.813 69.0625 238.66 73.8078 238.66H100.3C105.045 238.66 108.892 234.813 108.892 230.068V191.404C108.892 186.659 105.045 182.812 100.3 182.812Z" stroke="#30292C" stroke-width="3" stroke-miterlimit="10" stroke-linecap="round" stroke-linejoin="round"/>
<path d="M76.6718 165.628H97.4358V175.652H76.6718V165.628Z" fill="#8E5645"/>
<path d="M78.402 165.628H80.55V175.652H78.402V165.628ZM83.5332 165.628H85.6812V175.652H83.5332V165.628ZM88.6648 165.628H90.8128V175.652H88.6648V165.628ZM93.796 165.628H95.944V175.652H93.796V165.628Z" fill="#AE6553"/>
<path d="M96.302 165.628H77.8052V164.797C77.8052 164.163 78.0571 163.555 78.5054 163.106C78.9538 162.658 79.5619 162.406 80.1959 162.406H93.9113C94.5453 162.406 95.1534 162.658 95.6018 163.106C96.0501 163.555 96.302 164.163 96.302 164.797V165.628Z" fill="#8E5645"/>
<path d="M76.6718 165.628H97.4358V175.652H76.6718V165.628ZM96.302 165.628H77.8052V164.797C77.8052 164.163 78.0571 163.555 78.5054 163.106C78.9538 162.658 79.5619 162.406 80.1959 162.406H93.9113C94.5453 162.406 95.1534 162.658 95.6018 163.106C96.0501 163.555 96.302 164.163 96.302 164.797V165.628ZM68.0798 193.91V230.068C68.0798 233.226 70.6495 235.796 73.8078 235.796H100.3C103.458 235.796 106.028 233.226 106.028 230.068V193.91H68.0798Z" stroke="#30292C" stroke-width="3" stroke-miterlimit="10" stroke-linecap="round" stroke-linejoin="round"/>
<path d="M73.4498 198.922H100.658V218.97H73.4498V198.922Z" fill="#FFC25D"/>
<path d="M73.4498 198.922H100.658V218.97H73.4498V198.922Z" stroke="#30292C" stroke-width="3" stroke-miterlimit="10" stroke-linecap="round" stroke-linejoin="round"/>
<path d="M71.0598 221.492C71.3698 221.492 71.6211 221.241 71.6211 220.931C71.6211 220.621 71.3698 220.369 71.0598 220.369C70.7498 220.369 70.4984 220.621 70.4984 220.931C70.4984 221.241 70.7498 221.492 71.0598 221.492Z" fill="#30292C"/>
<path d="M81.5814 225.381C82.1004 225.381 82.5212 224.961 82.5212 224.442C82.5212 223.923 82.1004 223.502 81.5814 223.502C81.0624 223.502 80.6417 223.923 80.6417 224.442C80.6417 224.961 81.0624 225.381 81.5814 225.381Z" fill="#30292C"/>
<path d="M85.7636 230.441C86.507 230.441 87.1096 229.838 87.1096 229.095C87.1096 228.351 86.507 227.749 85.7636 227.749C85.0201 227.749 84.4175 228.351 84.4175 229.095C84.4175 229.838 85.0201 230.441 85.7636 230.441Z" fill="#30292C"/>
<path d="M98.6516 225.787C99.395 225.787 99.9976 225.184 99.9976 224.441C99.9976 223.697 99.395 223.094 98.6516 223.094C97.9081 223.094 97.3055 223.697 97.3055 224.441C97.3055 225.184 97.9081 225.787 98.6516 225.787Z" fill="#30292C"/>
<path d="M78.044 204.292H96.302M86.278 208.946H96.302M86.278 212.884H96.302" stroke="#30292C" stroke-width="3" stroke-miterlimit="10" stroke-linecap="round" stroke-linejoin="round"/>
<path d="M80.55 213.6C81.934 213.6 83.056 212.478 83.056 211.094C83.056 209.71 81.934 208.588 80.55 208.588C79.166 208.588 78.044 209.71 78.044 211.094C78.044 212.478 79.166 213.6 80.55 213.6Z" stroke="#30292C" stroke-width="3" stroke-miterlimit="10" stroke-linecap="round" stroke-linejoin="round"/>
<path d="M84.4851 188.896C85.4506 188.896 86.2333 188.114 86.2333 187.148C86.2333 186.183 85.4506 185.4 84.4851 185.4C83.5197 185.4 82.737 186.183 82.737 187.148C82.737 188.114 83.5197 188.896 84.4851 188.896Z" fill="#FF415B"/>
<path d="M84.4851 188.896C85.4506 188.896 86.2333 188.114 86.2333 187.148C86.2333 186.183 85.4506 185.4 84.4851 185.4C83.5197 185.4 82.737 186.183 82.737 187.148C82.737 188.114 83.5197 188.896 84.4851 188.896Z" stroke="#30292C" stroke-width="3" stroke-miterlimit="10" stroke-linecap="round" stroke-linejoin="round"/>
<path d="M91.1679 185.4C91.5633 185.4 91.8839 185.08 91.8839 184.684C91.8839 184.289 91.5633 183.968 91.1679 183.968C90.7725 183.968 90.4519 184.289 90.4519 184.684C90.4519 185.08 90.7725 185.4 91.1679 185.4Z" stroke="#30292C" stroke-width="3" stroke-miterlimit="10" stroke-linecap="round" stroke-linejoin="round"/>
<path d="M100.521 190.44C101.089 190.44 101.55 189.98 101.55 189.412C101.55 188.844 101.089 188.384 100.521 188.384C99.9536 188.384 99.4932 188.844 99.4932 189.412C99.4932 189.98 99.9536 190.44 100.521 190.44Z" fill="#30292C"/>
<path d="M73.3134 191.872C73.8812 191.872 74.3416 191.412 74.3416 190.844C74.3416 190.276 73.8812 189.816 73.3134 189.816C72.7455 189.816 72.2852 190.276 72.2852 190.844C72.2852 191.412 72.7455 191.872 73.3134 191.872Z" fill="#30292C"/>
<path d="M228.665 165.893C221.285 179.084 207.182 188.003 190.993 188.003C167.168 188.003 147.854 168.689 147.854 144.864C147.854 122.699 164.572 104.441 186.085 102.005L184.614 93.4208C159.449 97.875 140.336 119.853 140.336 146.296C140.336 175.954 164.378 199.996 194.036 199.996C215.052 199.996 233.245 187.922 242.065 170.333L228.665 165.893Z" fill="#CCCCCC"/>
<path d="M228.665 165.893C221.285 179.084 207.182 188.003 190.993 188.003C167.168 188.003 147.854 168.689 147.854 144.864C147.854 122.699 164.572 104.441 186.085 102.005L184.614 93.4208C159.449 97.875 140.336 119.853 140.336 146.296C140.336 175.954 164.378 199.996 194.036 199.996C215.052 199.996 233.245 187.922 242.065 170.333L228.665 165.893Z" stroke="#30292C" stroke-width="3" stroke-miterlimit="10" stroke-linecap="round" stroke-linejoin="round"/>
<path d="M198.75 223.624H167.246V189.972C167.246 181.273 174.298 174.22 182.998 174.22C191.698 174.22 198.75 181.272 198.75 189.972V223.624Z" fill="white"/>
<path d="M182.998 199.459C188.336 199.459 192.664 195.131 192.664 189.793C192.664 184.455 188.336 180.127 182.998 180.127C177.659 180.127 173.332 184.455 173.332 189.793C173.332 195.131 177.659 199.459 182.998 199.459Z" fill="#00C899"/>
<path d="M182.998 194.089C185.37 194.089 187.294 192.166 187.294 189.793C187.294 187.42 185.37 185.497 182.998 185.497C180.625 185.497 178.702 187.42 178.702 189.793C178.702 192.166 180.625 194.089 182.998 194.089Z" fill="#00C899"/>
<path d="M198.75 223.624H167.246V189.972C167.246 181.273 174.298 174.22 182.998 174.22C191.698 174.22 198.75 181.272 198.75 189.972V223.624Z" stroke="#30292C" stroke-width="3" stroke-miterlimit="10" stroke-linecap="round" stroke-linejoin="round"/>
<path d="M182.998 199.459C188.336 199.459 192.664 195.131 192.664 189.793C192.664 184.455 188.336 180.127 182.998 180.127C177.659 180.127 173.332 184.455 173.332 189.793C173.332 195.131 177.659 199.459 182.998 199.459Z" stroke="#30292C" stroke-width="3" stroke-miterlimit="10" stroke-linecap="round" stroke-linejoin="round"/>
<path d="M182.998 194.089C185.37 194.089 187.294 192.166 187.294 189.793C187.294 187.42 185.37 185.497 182.998 185.497C180.625 185.497 178.702 187.42 178.702 189.793C178.702 192.166 180.625 194.089 182.998 194.089Z" fill="#959595"/>
<path d="M182.998 194.089C185.37 194.089 187.294 192.166 187.294 189.793C187.294 187.42 185.37 185.497 182.998 185.497C180.625 185.497 178.702 187.42 178.702 189.793C178.702 192.166 180.625 194.089 182.998 194.089Z" stroke="#30292C" stroke-width="3" stroke-miterlimit="10" stroke-linecap="round" stroke-linejoin="round"/>
<path d="M236.638 176.726C241.976 176.726 246.304 172.398 246.304 167.06C246.304 161.722 241.976 157.394 236.638 157.394C231.3 157.394 226.972 161.722 226.972 167.06C226.972 172.398 231.3 176.726 236.638 176.726Z" fill="white"/>
<path d="M236.638 176.726C241.976 176.726 246.304 172.398 246.304 167.06C246.304 161.722 241.976 157.394 236.638 157.394C231.3 157.394 226.972 161.722 226.972 167.06C226.972 172.398 231.3 176.726 236.638 176.726Z" stroke="#30292C" stroke-width="3" stroke-miterlimit="10" stroke-linecap="round" stroke-linejoin="round"/>
<path d="M236.638 171.356C239.011 171.356 240.934 169.433 240.934 167.06C240.934 164.687 239.011 162.764 236.638 162.764C234.265 162.764 232.342 164.687 232.342 167.06C232.342 169.433 234.265 171.356 236.638 171.356Z" fill="#959595"/>
<path d="M236.638 171.356C239.011 171.356 240.934 169.433 240.934 167.06C240.934 164.687 239.011 162.764 236.638 162.764C234.265 162.764 232.342 164.687 232.342 167.06C232.342 169.433 234.265 171.356 236.638 171.356Z" stroke="#30292C" stroke-width="3" stroke-miterlimit="10" stroke-linecap="round" stroke-linejoin="round"/>
<path d="M179.886 64.4874L193.781 61.0233L196.769 73.0075L182.874 76.4716L179.886 64.4874Z" fill="#00B2C8"/>
<path d="M195.548 60.5787L178.122 64.9234C177.783 65.0079 177.425 64.9652 177.115 64.8032C176.805 64.6412 176.566 64.3713 176.442 64.0445L174.335 58.4887L195.871 53.119L196.619 59.0138C196.663 59.3605 196.578 59.7113 196.381 59.9997C196.183 60.2882 195.887 60.4941 195.548 60.5787Z" fill="white"/>
<path d="M180.442 77.078L199.2 72.4015L216.52 141.875L197.763 146.551L180.442 77.078Z" fill="white"/>
<path d="M180.442 77.078L199.2 72.4015L216.52 141.875L197.763 146.551L180.442 77.078Z" stroke="#30292C" stroke-width="3" stroke-miterlimit="10" stroke-linecap="round" stroke-linejoin="round"/>
<path d="M195.727 138.389L214.485 133.712L216.52 141.875L197.763 146.552L195.727 138.389Z" fill="#959595"/>
<path d="M195.727 138.389L214.485 133.712L216.52 141.875L197.763 146.552L195.727 138.389Z" stroke="#30292C" stroke-width="3" stroke-miterlimit="10" stroke-linecap="round" stroke-linejoin="round"/>
<path d="M179.886 64.4874L193.781 61.0233L196.769 73.0075L182.874 76.4716L179.886 64.4874Z" stroke="#30292C" stroke-width="3" stroke-miterlimit="10" stroke-linecap="round" stroke-linejoin="round"/>
<path d="M206.039 119.055L208.067 127.191M195.509 76.8226L203.042 107.037M190.702 64.942L192.261 71.1948M195.548 60.5787L178.122 64.9234C177.783 65.0079 177.425 64.9652 177.115 64.8032C176.805 64.6412 176.566 64.3713 176.442 64.0445L174.335 58.4887L195.871 53.119L196.619 59.0138C196.663 59.3605 196.578 59.7113 196.381 59.9997C196.183 60.2882 195.887 60.4941 195.548 60.5787Z" stroke="#30292C" stroke-width="3" stroke-miterlimit="10" stroke-linecap="round" stroke-linejoin="round"/>
<path d="M184.37 107.274C189.708 107.274 194.036 102.946 194.036 97.608C194.036 92.2696 189.708 87.942 184.37 87.942C179.032 87.942 174.704 92.2696 174.704 97.608C174.704 102.946 179.032 107.274 184.37 107.274Z" fill="white"/>
<path d="M184.37 107.274C189.708 107.274 194.036 102.946 194.036 97.608C194.036 92.2696 189.708 87.942 184.37 87.942C179.032 87.942 174.704 92.2696 174.704 97.608C174.704 102.946 179.032 107.274 184.37 107.274Z" stroke="#30292C" stroke-width="3" stroke-miterlimit="10" stroke-linecap="round" stroke-linejoin="round"/>
<path d="M184.37 101.904C186.743 101.904 188.666 99.9806 188.666 97.608C188.666 95.2354 186.743 93.312 184.37 93.312C181.997 93.312 180.074 95.2354 180.074 97.608C180.074 99.9806 181.997 101.904 184.37 101.904Z" fill="#959595"/>
<path d="M184.37 101.904C186.743 101.904 188.666 99.9806 188.666 97.608C188.666 95.2354 186.743 93.312 184.37 93.312C181.997 93.312 180.074 95.2354 180.074 97.608C180.074 99.9806 181.997 101.904 184.37 101.904Z" stroke="#30292C" stroke-width="3" stroke-miterlimit="10" stroke-linecap="round" stroke-linejoin="round"/>
<path d="M256.312 154.047L198.075 169.776C197.758 169.862 197.426 169.885 197.1 169.842C196.773 169.8 196.459 169.694 196.173 169.53C195.888 169.366 195.638 169.147 195.437 168.887C195.236 168.626 195.088 168.328 195.003 168.01C194.917 167.693 194.894 167.361 194.937 167.035C194.979 166.708 195.085 166.394 195.249 166.108C195.413 165.823 195.632 165.573 195.893 165.372C196.153 165.171 196.451 165.024 196.769 164.938L255.005 149.208C255.643 149.047 256.318 149.143 256.886 149.475C257.453 149.808 257.867 150.35 258.039 150.985C258.21 151.62 258.125 152.297 257.802 152.87C257.479 153.442 256.944 153.865 256.312 154.047Z" fill="white"/>
<path d="M256.312 154.047L198.075 169.776C197.758 169.862 197.426 169.885 197.1 169.842C196.773 169.8 196.459 169.694 196.173 169.53C195.888 169.366 195.638 169.147 195.437 168.887C195.236 168.626 195.088 168.328 195.003 168.01C194.917 167.693 194.894 167.361 194.937 167.035C194.979 166.708 195.085 166.394 195.249 166.108C195.413 165.823 195.632 165.573 195.893 165.372C196.153 165.171 196.451 165.024 196.769 164.938L255.005 149.208C255.323 149.122 255.654 149.1 255.98 149.142C256.307 149.185 256.622 149.291 256.907 149.455C257.192 149.619 257.443 149.837 257.643 150.098C257.844 150.359 257.992 150.657 258.078 150.974C258.251 151.616 258.162 152.3 257.831 152.876C257.5 153.453 256.953 153.874 256.312 154.047Z" stroke="#30292C" stroke-width="3" stroke-miterlimit="10" stroke-linecap="round" stroke-linejoin="round"/>
<path d="M226.318 156.957L199.706 164.144L200.069 161.08L224.462 154.491L226.318 156.957Z" fill="#959595"/>
<path d="M226.318 156.957L199.706 164.144L200.069 161.08L224.462 154.491L226.318 156.957Z" stroke="#30292C" stroke-width="3" stroke-miterlimit="10" stroke-linecap="round" stroke-linejoin="round"/>
<path d="M44.75 238.66H332.582" stroke="#30292C" stroke-width="3" stroke-miterlimit="10" stroke-linecap="round" stroke-linejoin="round"/>
<path d="M280.001 237.228C276.245 237.228 273.199 234.182 273.199 230.426V177.084H286.803V230.426C286.803 234.182 283.758 237.228 280.001 237.228Z" stroke="#30292C" stroke-width="3" stroke-miterlimit="10" stroke-linecap="round" stroke-linejoin="round"/>
<path d="M322.2 228.278H262.414V233.29H272.833C273.799 236.1 276.459 238.123 279.598 238.123C282.737 238.123 285.397 236.1 286.363 233.29H297.111C298.023 236.195 300.736 238.302 303.942 238.302C307.148 238.302 309.861 236.195 310.773 233.29H322.2V228.278Z" fill="#CCCCCC"/>
<path d="M322.2 228.278H262.414V233.29H272.833C273.799 236.1 276.459 238.123 279.598 238.123C282.737 238.123 285.397 236.1 286.363 233.29H297.111C298.023 236.195 300.736 238.302 303.942 238.302C307.148 238.302 309.861 236.195 310.773 233.29H322.2V228.278Z" stroke="#30292C" stroke-width="3" stroke-miterlimit="10" stroke-linecap="round" stroke-linejoin="round"/>
</svg>
