<svg width="200" height="200" viewBox="0 0 200 200" fill="none" xmlns="http://www.w3.org/2000/svg">
<path d="M95.775 97.6562H89.0625V110.938H95.775C99.4453 110.938 102.432 107.968 102.432 104.297C102.432 100.626 99.4453 97.6562 95.775 97.6562Z" fill="#D74949"/>
<path d="M64.4531 152.814V76.7617C64.4531 74.6043 66.1543 73.0469 68.3117 73.0469H144.531V30.0781H119.141C116.984 30.0781 115.234 28.3293 115.234 26.1719V0.390625H30.0781V174.219H144.531V156.641H68.3117C66.1543 156.641 64.4531 154.971 64.4531 152.814ZM42.9688 22.2656H85.1562C87.3137 22.2656 89.0625 24.0145 89.0625 26.1719C89.0625 28.3293 87.3137 30.0781 85.1562 30.0781H42.9688C40.8117 30.0781 39.0625 28.3293 39.0625 26.1719C39.0625 24.0145 40.8117 22.2656 42.9688 22.2656ZM42.9688 39.0625H131.641C133.798 39.0625 135.547 40.8113 135.547 42.9688C135.547 45.1262 133.798 46.875 131.641 46.875H42.9688C40.8117 46.875 39.0625 45.1262 39.0625 42.9688C39.0625 40.8113 40.8117 39.0625 42.9688 39.0625ZM39.0625 59.7656C39.0625 57.6082 40.8117 55.8594 42.9688 55.8594H131.641C133.798 55.8594 135.547 57.6082 135.547 59.7656C135.547 61.923 133.798 63.6719 131.641 63.6719H42.9688C40.8117 63.6719 39.0625 61.923 39.0625 59.7656Z" fill="#485C88"/>
<path d="M130.421 97.6562H126.953V132.031H130.421C138.285 132.031 144.531 125.609 144.531 117.746V111.83C144.531 103.966 138.285 97.6562 130.421 97.6562Z" fill="#D74949"/>
<path d="M149.642 80.8594C149.262 80.8594 148.858 81.0508 148.438 81.0508C148.017 81.0508 147.612 80.8594 147.233 80.8594H72.2656V148.828H147.649C147.904 148.828 148.167 148.748 148.438 148.748C148.708 148.748 148.971 148.828 149.226 148.828H195.312V80.8594H149.642ZM95.775 118.75H89.0625V135.914C89.0625 138.071 87.3137 139.82 85.1562 139.82C82.9988 139.82 81.25 138.071 81.25 135.914V93.6621C81.25 91.5047 83.0547 89.8438 85.2121 89.8438H95.775C103.754 89.8438 110.244 96.3187 110.244 104.297C110.244 112.275 103.753 118.75 95.775 118.75ZM152.344 117.746C152.344 129.917 142.593 139.844 130.421 139.844H123.238C121.081 139.844 119.141 138.071 119.141 135.914V93.6621C119.141 91.5047 121.081 89.8438 123.238 89.8438H130.421C142.593 89.8438 152.344 99.6586 152.344 111.83V117.746ZM182.422 97.6562H169.531V110.938H178.125C180.282 110.938 182.031 112.687 182.031 114.844C182.031 117.001 180.282 118.75 178.125 118.75H169.531V135.938C169.531 138.095 167.782 139.844 165.625 139.844C163.468 139.844 161.719 138.095 161.719 135.938V93.75C161.719 91.5926 163.468 89.8438 165.625 89.8438H182.422C184.579 89.8438 186.328 91.5926 186.328 93.75C186.328 95.9074 184.579 97.6562 182.422 97.6562Z" fill="#D74949"/>
<path d="M123.047 6.07733V22.2656H139.152L123.047 6.07733Z" fill="#485C88"/>
<path d="M22.2656 178.125V34.375H4.6875V199.609H115.234V182.031H26.1719C24.0148 182.031 22.2656 180.282 22.2656 178.125Z" fill="#485C88"/>
</svg>
