<svg width="660" height="495" viewBox="0 0 660 495" fill="none" xmlns="http://www.w3.org/2000/svg">
<path d="M128.415 400.804C113.945 389.681 50.1356 337.873 43.5458 262.907C34.3 157.706 145.167 92.0294 175.59 74.0186C245.316 32.7074 412.929 -29.6026 519.2 63.4749C604.312 138.027 597.621 275.143 544.998 353.588C458.283 482.859 243.186 489.048 128.415 400.804Z" fill="#FFECF2"/>
<path d="M534.545 194.425H501.055C500.448 194.425 499.955 194.918 499.955 195.525V209.237C499.955 209.844 500.448 210.337 501.055 210.337H534.545C535.152 210.337 535.645 209.844 535.645 209.237V195.525C535.645 194.918 535.152 194.425 534.545 194.425Z" fill="#FC7E85"/>
<path d="M534.545 226.193H501.055C500.448 226.193 499.955 226.686 499.955 227.293V241.005C499.955 241.612 500.448 242.105 501.055 242.105H534.545C535.152 242.105 535.645 241.612 535.645 241.005V227.293C535.645 226.686 535.152 226.193 534.545 226.193Z" fill="#FC7E85"/>
<path d="M552.392 210.336H518.903C518.295 210.336 517.803 210.829 517.803 211.436V225.148C517.803 225.755 518.295 226.248 518.903 226.248H552.392C553 226.248 553.492 225.755 553.492 225.148V211.436C553.492 210.829 553 210.336 552.392 210.336Z" stroke="#FC7E85" stroke-width="2" stroke-miterlimit="10"/>
<path d="M516.703 210.336H483.213C482.606 210.336 482.113 210.829 482.113 211.436V225.148C482.113 225.755 482.606 226.248 483.213 226.248H516.703C517.31 226.248 517.803 225.755 517.803 225.148V211.436C517.803 210.829 517.31 210.336 516.703 210.336Z" stroke="#FC7E85" stroke-width="2" stroke-miterlimit="10"/>
<path d="M143.066 273.07H109.576C108.969 273.07 108.476 273.562 108.476 274.17V287.881C108.476 288.489 108.969 288.981 109.576 288.981H143.066C143.673 288.981 144.166 288.489 144.166 287.881V274.17C144.166 273.562 143.673 273.07 143.066 273.07Z" stroke="#FC7E85" stroke-width="2" stroke-miterlimit="10"/>
<path d="M160.913 304.838H127.424C126.816 304.838 126.324 305.33 126.324 305.938V319.649C126.324 320.257 126.816 320.749 127.424 320.749H160.913C161.521 320.749 162.013 320.257 162.013 319.649V305.938C162.013 305.33 161.521 304.838 160.913 304.838Z" stroke="#FC7E85" stroke-width="2" stroke-miterlimit="10"/>
<path d="M168.327 288.981H134.838C134.23 288.981 133.738 289.473 133.738 290.081V303.792C133.738 304.4 134.23 304.892 134.838 304.892H168.327C168.935 304.892 169.427 304.4 169.427 303.792V290.081C169.427 289.473 168.935 288.981 168.327 288.981Z" stroke="#FC7E85" stroke-width="2" stroke-miterlimit="10"/>
<path d="M132.638 288.981H99.1485C98.5409 288.981 98.0485 289.473 98.0485 290.081V303.792C98.0485 304.4 98.5409 304.892 99.1485 304.892H132.638C133.245 304.892 133.738 304.4 133.738 303.792V290.081C133.738 289.473 133.245 288.981 132.638 288.981Z" fill="#FC7E85"/>
<path d="M350.636 61.083H317.146C316.539 61.083 316.046 61.5755 316.046 62.183V75.8945C316.046 76.502 316.539 76.9945 317.146 76.9945H350.636C351.243 76.9945 351.736 76.502 351.736 75.8945V62.183C351.736 61.5755 351.243 61.083 350.636 61.083Z" stroke="#FC7E85" stroke-width="2" stroke-miterlimit="10"/>
<path d="M362.692 92.906H329.202C328.595 92.906 328.102 93.3985 328.102 94.006V107.718C328.102 108.325 328.595 108.818 329.202 108.818H362.692C363.299 108.818 363.792 108.325 363.792 107.718V94.006C363.792 93.3985 363.299 92.906 362.692 92.906Z" stroke="#FC7E85" stroke-width="2" stroke-miterlimit="10"/>
<path d="M375.897 76.9945H342.408C341.8 76.9945 341.308 77.487 341.308 78.0945V91.806C341.308 92.4135 341.8 92.906 342.408 92.906H375.897C376.505 92.906 376.997 92.4135 376.997 91.806V78.0945C376.997 77.487 376.505 76.9945 375.897 76.9945Z" fill="#FC7E85"/>
<path d="M340.208 76.9945H306.718C306.111 76.9945 305.618 77.487 305.618 78.0945V91.806C305.618 92.4135 306.111 92.906 306.718 92.906H340.208C340.815 92.906 341.308 92.4135 341.308 91.806V78.0945C341.308 77.487 340.815 76.9945 340.208 76.9945Z" stroke="#FC7E85" stroke-width="2" stroke-miterlimit="10"/>
<path d="M316.943 452.501C324.643 453.601 332.139 451.027 334.889 448.772C337.639 446.517 342.1 447.408 342.1 447.408L341.962 452.771L350.025 452.54C350.025 452.54 350.427 447.221 350.784 442.431C350.966 440.038 350.185 438.702 349.877 436.381C349.569 434.06 347.908 430.331 347.908 430.331C343.568 430.474 332.37 431.128 330.308 428.642C329.516 430.246 328.458 431.704 327.178 432.954C326.76 433.378 326.32 433.796 325.869 434.203C325.418 434.61 325.094 434.841 324.698 435.154C324.192 435.556 323.675 435.957 323.125 436.342C317.625 440.231 310.777 443.201 306.988 445.967C301.075 450.351 309.243 451.396 316.943 452.501Z" fill="#454851"/>
<path d="M393.701 448.47C400.818 445.324 405.801 439.159 406.934 435.787C408.067 432.416 412.17 430.133 412.17 430.133L414.419 433.73L421.135 429.253C421.135 429.253 419.287 426.217 417.054 421.966C415.954 419.843 414.568 419.127 413.088 417.34C411.609 415.552 408.215 413.27 408.215 413.27C404.613 415.696 395.466 422.197 392.414 421.168C392.599 422.947 392.476 424.744 392.051 426.481C391.93 427.064 391.77 427.652 391.605 428.235C391.451 428.719 391.292 429.193 391.121 429.666C390.901 430.276 390.676 430.886 390.417 431.503C387.832 437.706 383.586 443.872 381.843 448.228C379.109 455.065 386.584 451.616 393.701 448.47Z" fill="#454851"/>
<path d="M335.28 269.725C335.28 269.725 326.7 345.917 326.425 352.633C326.15 359.348 330.05 429.149 330.05 429.149C330.05 429.149 340.5 433.356 347.996 430.491C347.996 430.491 353.903 376.976 353.007 363.391L354.976 337.617C354.976 337.617 356.587 359.095 358.199 361.603C359.81 364.111 391.133 423 391.133 423C391.133 423 409.03 414.942 409.03 412.616C409.03 412.616 398.651 369.66 385.38 357.665C385.325 341.048 385.266 324.432 385.204 307.818C388.174 300.312 389.28 292.196 388.427 284.168C387.861 279.066 386.501 274.083 384.395 269.401C384.395 269.401 346.022 275.099 335.28 269.725Z" fill="#25BEEF"/>
<path d="M354.348 329.274C352.913 312.774 349.948 296.951 348.98 297.055C348.238 297.132 348.98 305.344 349.244 324.17C349.448 339.532 349.14 349.844 348.694 364.447C347.853 392.937 346.709 397.826 345.488 401.764C342.288 411.864 337.025 421.189 330.033 429.149C333.553 430.738 339.256 432.559 345.636 431.15C346.43 430.976 347.212 430.756 347.979 430.491C347.979 430.491 353.886 376.976 352.99 363.391L354.893 338.448C354.838 335.918 354.684 333.163 354.348 329.274Z" fill="#1A87C4"/>
<path d="M395.714 395.725C393.514 383.922 386.837 381.601 381.342 367.791C378.042 359.475 377.657 349.932 376.893 330.847C375.721 301.576 378.807 299.337 374.951 292.22C364.793 273.482 334.862 272.861 335.28 269.726C346.879 273.708 379.071 270.083 383.823 269.478L384.208 269.428H384.389C386.496 274.111 387.856 279.093 388.421 284.196C389.274 292.224 388.168 300.339 385.198 307.846C385.26 324.463 385.319 341.079 385.374 357.692C398.623 369.688 409.024 412.643 409.024 412.643C408.613 413.178 408.168 413.706 407.687 414.227C404.09 417.01 394.267 421.586 391.737 422.746L391.688 422.774H391.638L391.506 422.834L391.429 422.867H391.375L391.303 422.9H391.275L391.132 422.967C394.311 416.438 397.76 406.609 395.714 395.725Z" fill="#1A87C4"/>
<path d="M386.1 273.702C386.1 273.702 357.802 280.852 334.823 273.702" stroke="white" stroke-width="3" stroke-miterlimit="10"/>
<path d="M363.468 152.636C363.468 152.636 375.568 147.378 380.237 157.779C384.907 168.179 392.073 201.597 404.283 203.456C404.283 203.456 397.551 207.609 390.885 199.447C384.219 191.285 379.764 183.7 378.527 179.955C379.231 186.886 381.82 193.491 386.012 199.056C393.03 208.406 403.145 225.907 390.198 228.965C390.198 228.965 396.924 226.061 390.231 217.729C383.537 209.396 350.273 181.187 363.765 159.605C366.405 155.381 363.468 152.636 363.468 152.636Z" fill="black"/>
<path d="M354.277 151.058C361.097 152.389 365.277 161.073 364.32 171.149H364.37C366.234 171.512 367.334 173.899 366.828 176.517C366.322 179.135 364.397 180.917 362.533 180.576C362.284 180.527 362.045 180.44 361.823 180.318C358.034 187.952 350.68 192.198 344.63 191.021C337.123 189.552 334.461 180.285 336.677 168.938C338.894 157.592 346.77 149.6 354.277 151.058Z" fill="#EA9D7D"/>
<path d="M347.05 196.982C347.397 195.767 345.95 192.797 345.07 191.086C351.043 192.005 358.149 187.786 361.851 180.328C362.072 180.451 362.312 180.538 362.56 180.587C362.56 180.587 363.138 196.102 366.504 196.295C370.436 199.666 383.284 211.09 380.666 216.386C378.466 220.83 366.608 218.537 348.92 215.121C347.201 214.853 345.597 214.088 344.306 212.921C340.599 209.385 341.611 203.021 342.106 201.586C342.782 199.71 346.528 198.742 347.05 196.982Z" fill="#EA9D7D"/>
<path d="M363.033 186.769C362.643 183.469 362.533 180.587 362.533 180.587C362.284 180.538 362.045 180.451 361.823 180.328C358.122 187.786 351.016 192.005 345.043 191.086C345.722 192.331 346.298 193.63 346.764 194.969C346.918 195.008 347.067 195.046 347.221 195.074C352.605 196.124 359.018 192.874 363.033 186.769Z" fill="#D18165"/>
<path d="M364.436 173.47C364.895 173.782 365.242 174.233 365.425 174.757C365.63 175.298 365.673 175.886 365.552 176.451C365.438 177.013 365.167 177.532 364.771 177.947C364.586 178.156 364.375 178.34 364.144 178.497C363.907 178.631 363.656 178.74 363.396 178.822C363.501 178.582 363.62 178.348 363.754 178.123C363.853 177.897 363.985 177.7 364.062 177.48C364.245 177.088 364.384 176.676 364.474 176.253C364.634 175.331 364.621 174.387 364.436 173.47Z" fill="#D18165"/>
<path d="M366.476 196.295C364.425 196.18 363.412 190.366 362.928 185.845L359.92 187.198L357.341 192.588C357.341 192.588 362.291 193.688 359.92 198.748C357.814 203.307 352.22 213.658 344.135 212.773C345.307 213.422 346.923 214.264 348.892 215.122C361.845 220.754 379.517 222.536 382.091 217.443C384.665 212.35 371.8 200.822 366.476 196.295Z" fill="#D18165"/>
<path d="M339.35 161.106C339.35 161.106 342.799 155.744 343.8 156.943C344.801 158.142 346.72 161.376 353.276 161.035C353.276 161.035 357.676 166.755 358.578 173.465C359.48 180.175 364.386 171.16 364.386 171.16C364.386 171.16 370.656 155.535 363.886 151.817C357.115 148.099 350.328 148.016 343.536 151.817C336.743 155.617 339.35 161.106 339.35 161.106Z" fill="black"/>
<path d="M340.043 183.596C345.543 183.849 346.165 179.625 346.165 179.625C343.957 180.322 341.616 180.484 339.333 180.098C339.333 180.098 340.951 181.929 340.043 183.596Z" fill="#BE3E5F"/>
<path d="M341.583 168.173C341.791 169.31 341.815 170.472 341.655 171.616C341.578 172.223 341.406 172.813 341.143 173.365C340.995 173.679 340.841 173.877 340.703 174.124C340.566 174.372 340.417 174.587 340.296 174.818C340.051 175.21 339.9 175.655 339.856 176.115C339.852 176.197 339.864 176.278 339.891 176.354C339.919 176.431 339.961 176.501 340.016 176.561C340.164 176.713 340.342 176.833 340.538 176.913C341.58 177.23 342.657 177.415 343.745 177.463C342.624 177.848 341.422 177.933 340.258 177.71C339.914 177.63 339.596 177.463 339.334 177.227C339.037 176.95 338.853 176.574 338.817 176.17C338.805 175.504 338.982 174.848 339.328 174.278C339.471 174.014 339.625 173.761 339.785 173.525C339.944 173.288 340.131 173.035 340.236 172.848C340.486 172.397 340.682 171.917 340.819 171.419C341.121 170.39 341.336 169.29 341.583 168.173Z" fill="#D18165"/>
<path d="M345.021 165.919C346.116 166.085 347.199 166.329 348.26 166.65C348.772 166.809 349.271 167.01 349.75 167.25C350.245 167.481 350.697 167.8 351.214 168.086C350.961 167.543 350.584 167.069 350.114 166.7C349.64 166.321 349.101 166.032 348.524 165.847C347.955 165.666 347.361 165.573 346.764 165.572C346.165 165.568 345.572 165.686 345.021 165.919Z" fill="black"/>
<path d="M339.394 164.852C338.911 164.651 338.398 164.53 337.876 164.494C337.777 164.763 337.689 165.044 337.601 165.319C338.138 165.328 338.673 165.382 339.202 165.478C339.752 165.555 340.258 165.731 340.852 165.869C340.454 165.418 339.954 165.069 339.394 164.852Z" fill="black"/>
<path d="M338.107 172.331C338.215 172.353 338.327 172.353 338.435 172.331C338.544 172.309 338.647 172.266 338.738 172.204C338.83 172.142 338.908 172.063 338.969 171.97C339.029 171.878 339.071 171.775 339.092 171.666L339.565 169.246C339.594 169.033 339.54 168.816 339.415 168.641C339.29 168.466 339.102 168.346 338.891 168.305C338.679 168.264 338.46 168.306 338.279 168.421C338.097 168.537 337.967 168.718 337.915 168.927L337.447 171.347C337.425 171.455 337.425 171.566 337.447 171.674C337.468 171.782 337.511 171.885 337.572 171.976C337.634 172.068 337.713 172.146 337.804 172.207C337.896 172.268 337.999 172.31 338.107 172.331Z" fill="black"/>
<path d="M346.583 172.848C346.691 172.87 346.803 172.87 346.912 172.848C347.021 172.826 347.124 172.783 347.216 172.721C347.308 172.66 347.387 172.58 347.448 172.488C347.509 172.395 347.552 172.292 347.573 172.183L348.046 169.768C348.072 169.658 348.076 169.544 348.057 169.432C348.038 169.32 347.997 169.213 347.935 169.118C347.874 169.023 347.794 168.94 347.7 168.877C347.607 168.813 347.501 168.769 347.39 168.747C347.278 168.725 347.164 168.726 347.053 168.749C346.942 168.773 346.837 168.819 346.744 168.884C346.651 168.949 346.573 169.032 346.513 169.128C346.453 169.225 346.413 169.332 346.396 169.444L345.923 171.864C345.881 172.082 345.926 172.308 346.05 172.492C346.174 172.677 346.365 172.805 346.583 172.848Z" fill="black"/>
<path d="M353.458 158.669C354.365 160.001 355.179 161.394 355.894 162.839C356.607 164.268 357.236 165.737 357.781 167.239C358.887 170.229 359.581 173.356 359.843 176.534C360.394 182.895 358.699 189.249 355.053 194.491C356.713 191.835 357.913 188.917 358.6 185.861C359.262 182.824 359.4 179.695 359.007 176.61C358.619 173.538 357.814 170.533 356.615 167.678C356.022 166.254 355.35 164.864 354.602 163.515C353.864 162.177 353.038 160.891 352.127 159.665L353.458 158.669Z" fill="black"/>
<path d="M277.2 246.312C274.164 243.733 269.615 240.009 268.642 240.015C267.146 240.015 264.5 240.972 270.677 246.268L270.627 246.306C270.402 246.46 269.373 247.06 266.821 247.082C263.884 247.082 260.612 264.379 269.467 261.932L281.787 261.03C289.817 262.592 319.137 282.161 327.074 274.747C334.504 267.801 340.186 234.113 340.186 234.113L320.617 237.529L315.21 256.13C315.086 256.563 314.875 256.966 314.589 257.315C314.302 257.663 313.948 257.949 313.547 258.155C313.146 258.362 312.707 258.483 312.257 258.513C311.807 258.543 311.356 258.481 310.931 258.33L277.2 246.312Z" fill="#EA9D7D"/>
<path d="M277.2 246.312C274.164 243.733 269.615 240.009 268.642 240.015C267.146 240.015 264.5 240.972 270.677 246.268L270.627 246.306C270.402 246.46 269.373 247.06 266.821 247.082C263.884 247.082 260.612 264.379 269.467 261.932L281.787 261.03C289.817 262.592 319.137 282.161 327.074 274.747C334.504 267.801 340.186 234.113 340.186 234.113L320.617 237.529L315.21 256.13C315.086 256.563 314.875 256.966 314.589 257.315C314.302 257.663 313.948 257.949 313.547 258.155C313.146 258.362 312.707 258.483 312.257 258.513C311.807 258.543 311.356 258.481 310.931 258.33L277.2 246.312Z" fill="#EA9D7D"/>
<path d="M285.521 249.15L283.992 261.255" stroke="#2F170B" stroke-width="6" stroke-linecap="round" stroke-linejoin="round"/>
<path d="M270.6 246.433C270.6 246.433 273.762 255.084 281.6 251.933" stroke="#2F170B" stroke-width="2" stroke-miterlimit="10"/>
<path d="M260.109 234.09L267.778 233.401L270.729 266.269C270.82 267.286 270.503 268.298 269.849 269.081C269.194 269.865 268.255 270.357 267.238 270.448C266.221 270.539 265.21 270.223 264.426 269.568C263.642 268.914 263.151 267.975 263.059 266.958L260.109 234.09Z" fill="#25BEEF"/>
<path d="M268.723 231.659L258.863 232.544L259.01 234.188L268.871 233.303L268.723 231.659Z" fill="#1A87C4"/>
<path d="M261.277 247.269C261.904 244.607 265.309 249.095 266.051 251.235C266.794 253.374 269.687 260.964 262.658 262.642C262.658 262.642 258.879 257.444 261.277 247.269Z" fill="#EA9D7D"/>
<path d="M267.223 270.457C267.727 270.412 268.217 270.268 268.665 270.034C269.113 269.799 269.511 269.479 269.835 269.091C270.16 268.703 270.404 268.254 270.555 267.771C270.706 267.289 270.761 266.781 270.715 266.277L268.015 236.186C267.087 237.937 266.508 239.852 266.31 241.824C266.051 244.282 266.651 245.179 267.597 249.991C268.851 256.355 269.445 259.572 268.081 261.541C266.497 263.829 263.956 263.412 262.949 265.865L263.048 266.965C263.139 267.981 263.63 268.92 264.413 269.575C265.196 270.23 266.206 270.547 267.223 270.457Z" fill="#1A87C4"/>
<path d="M310.959 253.891C311.8 254.072 312.679 253.935 313.426 253.508C314.173 253.081 314.736 252.392 315.007 251.576L327.822 213.076C329.102 208.953 331.593 205.312 334.972 202.626C335.835 201.936 336.77 201.342 337.76 200.855C337.846 200.814 337.94 200.796 338.035 200.802C338.129 200.809 338.22 200.839 338.3 200.891C338.379 200.943 338.443 201.015 338.486 201.099C338.53 201.183 338.551 201.277 338.547 201.372L337.475 233.75L334.263 264.396C334.263 264.644 334.262 264.891 334.218 265.139C333.465 274.06 324.082 279.581 315.75 276.303L287.188 265.078L290.488 249.552L310.959 253.891Z" fill="#E3EAF3"/>
<path d="M287.997 261.25C287.997 261.25 312.681 268.559 321.112 261.25C325.831 257.158 336.16 215.281 336.16 215.281C336.676 214.175 337.355 213.151 338.173 212.245L337.475 233.695L334.263 264.341C334.263 264.588 334.262 264.836 334.218 265.083C333.465 274.005 324.082 279.526 315.75 276.248L287.188 265.023L287.997 261.25Z" fill="#ABBCCA"/>
<path d="M417.758 307.604C417.506 306.613 417.371 305.596 417.356 304.574C417.23 296.016 416.416 263.351 411.482 248.473C409.915 243.727 395.499 219.577 395.499 219.577L374.907 223.932L393.057 254.067C393.862 255.403 394.453 256.856 394.812 258.373L405.872 305.481C406.024 306.127 406.029 306.799 405.887 307.447C405.746 308.095 405.46 308.703 405.053 309.226C402.726 312.213 398.117 318.279 398.194 319.396C398.293 320.886 399.393 323.471 404.316 316.992C404.316 316.992 405.157 317.861 405.355 320.793C405.553 323.724 405.971 335.005 406.895 335.192C407.819 335.379 409.915 338.068 409.222 322.734C409.222 322.734 410.586 321.975 410.674 323.284C410.762 324.593 411.521 337.194 413.094 335.846C414.667 334.499 414.194 332.695 413.71 322.646C413.71 322.646 414.738 321.833 414.936 322.317C415.134 322.801 416.262 334.702 417.257 334.636C418.253 334.57 419.633 336.638 417.664 319.638C417.664 319.638 418.214 319.352 418.841 321.057C419.468 322.762 421.866 330.253 422.647 328.207C423.428 326.161 422.994 325.941 420.002 317.245L417.774 307.582L417.758 307.604Z" fill="#EA9D7D"/>
<path d="M374.907 223.927L379.764 222.898C383.394 227.502 387.904 230.852 393.778 239.454C398.359 246.153 401.324 252.978 402.638 255.86C406.246 263.758 405.515 267.79 407.918 287.276C409.365 298.98 410.085 304.826 410.844 307.89C410.844 307.89 415.398 327.652 413.627 335.236C413.59 335.375 413.521 335.503 413.425 335.611C413.33 335.719 413.211 335.803 413.077 335.858C411.504 337.205 410.745 324.621 410.657 323.296C410.569 321.97 409.205 322.746 409.205 322.746C409.898 338.08 407.808 335.396 406.879 335.203C405.949 335.011 405.537 323.785 405.339 320.826C405.141 317.895 404.299 317.025 404.299 317.025C399.349 323.504 398.249 320.92 398.178 319.429C398.101 318.329 402.71 312.246 405.036 309.259C405.444 308.736 405.729 308.128 405.871 307.48C406.013 306.832 406.008 306.16 405.856 305.514L394.795 258.406C394.437 256.889 393.845 255.436 393.041 254.1L374.907 223.927Z" fill="#D18165"/>
<path d="M325.375 327.949C325.794 328.363 326.291 328.691 326.838 328.912C327.384 329.133 327.969 329.243 328.559 329.236H393.069C393.736 329.235 394.396 329.091 395.003 328.812C395.61 328.533 396.15 328.126 396.585 327.62C397.021 327.113 397.342 326.519 397.527 325.877C397.711 325.235 397.755 324.561 397.656 323.901L375.524 199.485L366.355 196.009C365.035 195.294 364.469 193.094 364.249 191.84C364.204 191.602 364.068 191.392 363.869 191.255C363.67 191.118 363.425 191.065 363.187 191.109L346.748 194.046C346.629 194.067 346.516 194.111 346.414 194.176C346.313 194.242 346.225 194.326 346.157 194.425C346.088 194.525 346.04 194.636 346.015 194.754C345.99 194.872 345.988 194.994 346.011 195.113C346.198 196.158 346.33 197.769 345.395 197.912L338.553 200.514C337.195 200.842 335.996 201.635 335.162 202.755C334.328 203.875 333.912 205.252 333.988 206.646L334.07 209.121C334.362 218.02 336.441 242.671 334.263 264.369C331.551 291.291 324.456 315.926 324.814 326.964C324.819 327.063 324.836 327.404 325.375 327.949Z" fill="#E3EAF3"/>
<path d="M419.414 304.354C420.195 303.804 417.543 273.004 414.925 256.031C414.007 250.069 411.202 240.972 407.93 235.912C407.93 235.912 397.188 217.41 390.109 209.248C387.579 206.327 382.883 200.998 375.524 199.485L371.333 221.342L391.892 255.25C392.123 255.596 403.953 304.596 404.3 304.354H419.414Z" fill="#E3EAF3"/>
<path d="M371.982 220.187C371.816 220.317 371.683 220.485 371.594 220.676C371.505 220.867 371.463 221.076 371.47 221.287L371.437 221.501L380.429 236.351L391.892 255.255C392.123 255.601 403.953 304.601 404.294 304.359H409.794L409.761 304.216C402.567 271.98 398.942 255.816 397.782 252.945C390.016 233.849 374.655 218.707 371.982 220.187Z" fill="#ABBCCA"/>
<path d="M345.4 197.912C347.072 198.299 348.783 198.493 350.499 198.49C352.212 198.52 353.924 198.409 355.619 198.16C357.317 197.93 358.992 197.552 360.624 197.032C362.268 196.532 363.85 195.846 365.338 194.986C363.622 195.2 361.983 195.536 360.327 195.778L357.852 196.169C357.027 196.279 356.202 196.422 355.383 196.526L350.433 197.214C348.755 197.45 347.094 197.642 345.4 197.912Z" fill="#ABBCCA"/>
<path d="M397.65 323.9L397.496 323.059L381.7 234.261C377.993 226.561 373.269 219.714 371.987 220.187C370.887 220.594 371.476 225.736 371.437 226.341C369.787 254.034 335.022 238.601 334.67 238.023C335.143 240.416 336.287 244.211 339.422 247.231C346.929 254.452 359.409 251.009 363.105 249.981L363.275 249.931C365.003 249.431 366.825 249.355 368.588 249.71C370.352 250.065 372.003 250.841 373.402 251.971C374.801 253.101 375.906 254.552 376.624 256.201C377.342 257.85 377.651 259.648 377.526 261.443C375.749 285.092 363.182 301.505 363.182 301.505C352.226 315.804 334.642 322.685 324.792 325.771C324.766 326.164 324.766 326.559 324.792 326.953C325.034 328.46 327.14 329.225 328.471 329.285C334.373 329.566 360.091 329.225 360.091 329.225H393.047C393.715 329.226 394.376 329.084 394.984 328.806C395.592 328.529 396.133 328.124 396.57 327.619C397.007 327.113 397.33 326.519 397.516 325.878C397.703 325.236 397.748 324.561 397.65 323.9Z" fill="#ABBCCA"/>
<path d="M443.432 36.069V197.258H581.515V36.069H443.432ZM507.485 186.219H451.308V45.518H507.485V186.219ZM573.645 186.219H517.462V45.518H573.65L573.645 186.219Z" fill="#87DBF6"/>
<path d="M463.424 45.518C463.424 45.518 455.504 135.465 470.574 155.804C485.645 176.143 507.512 171.083 507.512 171.083V186.23H451.308V45.518H463.424Z" fill="#A8E5F9"/>
<path d="M529.579 45.518C529.579 45.518 521.659 135.465 536.729 155.804C551.799 176.143 573.65 171.083 573.65 171.083V186.23H517.468V45.518H529.579Z" fill="#A8E5F9"/>
<path d="M589.105 35.244H435.853V36.894H589.105V35.244Z" fill="#FF0068"/>
<path d="M589.105 41.1345H435.853V42.7845H589.105V41.1345Z" fill="#FF0068"/>
<path d="M589.105 47.0305H435.853V48.6805H589.105V47.0305Z" fill="#FF0068"/>
<path d="M589.105 52.9265H435.853V54.5765H589.105V52.9265Z" fill="#FF0068"/>
<path d="M589.105 58.8225H435.853V60.4725H589.105V58.8225Z" fill="#FF0068"/>
<path d="M589.105 64.713H435.853V66.363H589.105V64.713Z" fill="#FF0068"/>
<path d="M589.105 70.609H435.853V72.259H589.105V70.609Z" fill="#FF0068"/>
<path d="M589.105 76.505H435.853V78.155H589.105V76.505Z" fill="#FF0068"/>
<path d="M589.105 82.401H435.853V84.051H589.105V82.401Z" fill="#FF0068"/>
<path d="M589.105 88.2915H435.853V89.9415H589.105V88.2915Z" fill="#FF0068"/>
<path d="M589.105 94.105H435.853V95.755H589.105V94.105Z" fill="#FF0068"/>
<path d="M589.105 100.001H435.853V101.651H589.105V100.001Z" fill="#FF0068"/>
<path d="M589.105 105.897H435.853V107.547H589.105V105.897Z" fill="#FF0068"/>
<path d="M589.105 111.793H435.853V113.443H589.105V111.793Z" fill="#FF0068"/>
<path d="M589.105 117.684H435.853V119.334H589.105V117.684Z" fill="#FF0068"/>
<path d="M589.105 123.58H435.853V125.23H589.105V123.58Z" fill="#FF0068"/>
<path d="M589.105 129.476H435.853V131.126H589.105V129.476Z" fill="#FF0068"/>
<path d="M589.105 135.372H435.853V137.022H589.105V135.372Z" fill="#FF0068"/>
<path d="M589.105 141.262H435.853V142.912H589.105V141.262Z" fill="#FF0068"/>
<path d="M589.105 147.158H435.853V148.808H589.105V147.158Z" fill="#FF0068"/>
<path d="M108.229 418.748L107.679 418.314C108.229 414.238 109.961 401.814 112.183 386.238C117.606 348.244 125.999 291.715 127.715 293.365C130.058 295.62 130.108 324.209 127.407 357.764C127.143 361.042 126.854 364.357 126.538 367.708C126.208 371.206 125.902 374.546 125.62 377.729C124.377 380.749 123.051 383.84 121.66 386.958C112.403 407.71 108.229 418.748 108.229 418.748Z" fill="#7BCE34"/>
<path d="M111.65 413.281C111.65 413.281 114.043 401.731 119.9 379.781C125.758 357.83 128.904 337.387 127.243 335.451C126.467 334.543 120.747 350.35 114.895 367.4C112.277 385.347 109.945 402.083 108.603 411.598L111.65 413.281Z" fill="#3C8F2D"/>
<path d="M112.591 444.95L113.273 444.763C114.323 440.786 117.524 428.637 121.457 413.413C131.076 376.255 145.079 320.848 142.863 321.712C139.832 322.894 128.783 349.255 118.36 381.271C117.348 384.395 116.342 387.565 115.341 390.781C114.296 394.136 113.293 397.338 112.332 400.389C112.332 403.651 112.332 406.989 112.431 410.427C112.987 433.142 112.591 444.95 112.591 444.95Z" fill="#3C8F2D"/>
<path d="M54.45 353.749C55.3608 353.238 56.3032 352.787 57.2715 352.396C58.234 351.989 59.2185 351.643 60.214 351.296C62.218 350.662 64.2684 350.186 66.3465 349.872C70.6318 349.194 75.0003 349.237 79.2715 349.998C81.4829 350.396 83.6469 351.022 85.7285 351.868C86.7828 352.306 87.8111 352.803 88.8085 353.359L89.562 353.777C89.8095 353.92 90.046 354.079 90.288 354.233C90.7665 354.552 91.2615 354.844 91.729 355.185C93.5923 356.532 95.3185 358.059 96.8825 359.744L98.021 361.026C98.1145 361.136 98.219 361.246 98.3015 361.35L98.5435 361.664L99.0385 362.285L101.008 364.788C102.218 366.526 103.494 368.22 104.544 370.057L105.364 371.415C105.496 371.646 105.639 371.872 105.765 372.103L106.134 372.801L107.635 375.65C108.532 377.559 109.45 379.451 110.22 381.403L110.831 382.855L111.381 384.324L111.931 385.792L112.211 386.529L112.459 387.272C112.794 388.267 113.174 389.241 113.559 390.225C113.944 391.21 114.285 392.2 114.659 393.184C115.033 394.169 115.319 395.186 115.61 396.198C115.902 397.21 116.089 398.244 116.276 399.278C116.358 399.828 116.419 400.323 116.479 400.846C116.54 401.368 116.595 401.896 116.639 402.419C116.699 403.475 116.76 404.531 116.743 405.592C116.734 406.656 116.669 407.719 116.551 408.777C116.445 409.854 116.261 410.922 116.001 411.972L109.467 412.203C108.752 410.355 108.229 408.529 107.718 406.703L107.338 405.339C107.223 404.883 107.096 404.426 106.992 403.97C106.742 403.06 106.515 402.144 106.31 401.22C106.084 400.307 105.897 399.394 105.732 398.47C105.567 397.546 105.397 396.627 105.248 395.692C105.1 394.757 104.891 393.844 104.698 392.942C104.506 392.04 104.203 391.127 103.928 390.231L103.708 389.56L103.4 388.85L102.911 387.53C102.746 387.09 102.575 386.65 102.399 386.216L101.849 384.929C101.123 383.196 100.238 381.546 99.396 379.874L98.0045 377.443L97.658 376.838C97.537 376.64 97.405 376.448 97.2785 376.25L96.536 375.1L95.788 373.918C95.5515 373.522 95.238 373.159 95.0015 372.774L93.4065 370.486L91.685 368.286L91.256 367.736L91.0415 367.466L90.827 367.224L89.9745 366.289C89.694 365.976 89.3695 365.706 89.0725 365.409L88.6215 364.975C88.462 364.832 88.297 364.705 88.1375 364.568C87.813 364.304 87.5105 364.018 87.175 363.765L86.1685 363C85.8385 362.742 85.4755 362.527 85.1345 362.285C84.9585 362.17 84.788 362.049 84.612 361.939L84.062 361.614C83.3525 361.158 82.599 360.767 81.862 360.349C80.319 359.542 78.7284 358.829 77.099 358.215C73.6461 356.93 70.0653 356.019 66.418 355.498C64.537 355.207 62.612 354.998 60.6595 354.844C58.707 354.69 56.7105 354.591 54.6975 354.552L54.45 353.749Z" fill="#3C8F2D"/>
<path d="M109.252 411.686V410.943C109.252 410.476 109.219 410.003 109.186 409.535L109.059 408.133C108.922 406.263 108.603 404.415 108.333 402.567L107.783 399.817L107.646 399.13C107.596 398.899 107.536 398.679 107.481 398.453L107.14 397.1L106.804 395.742C106.705 395.285 106.54 394.85 106.419 394.405L105.6 391.738L104.659 389.119L104.423 388.465L104.307 388.141C104.263 388.031 104.219 387.942 104.175 387.849L103.664 386.689C103.499 386.304 103.279 385.946 103.114 385.589L102.822 385.039C102.718 384.857 102.602 384.681 102.492 384.489C102.272 384.137 102.069 383.768 101.838 383.422L101.117 382.393C100.886 382.041 100.611 381.722 100.364 381.386C100.232 381.221 100.111 381.051 99.9789 380.886L99.8304 380.716C100.54 382.113 101.26 383.504 101.871 384.956L102.421 386.243C102.597 386.678 102.767 387.118 102.932 387.558L103.4 388.85L103.647 389.516L103.867 390.186C104.142 391.083 104.417 391.979 104.637 392.898C104.857 393.816 105.017 394.746 105.187 395.648C105.358 396.55 105.484 397.507 105.671 398.425C105.858 399.344 106.023 400.262 106.249 401.175C106.474 402.088 106.683 402.996 106.931 403.925C107.035 404.382 107.162 404.839 107.277 405.295L107.657 406.659C108.146 408.337 108.63 410.003 109.252 411.686Z" fill="#7BCE34"/>
<path d="M81.862 360.366C82.6045 360.784 83.358 361.174 84.062 361.631L84.612 361.955C84.788 362.065 84.9585 362.186 85.1345 362.302C85.4755 362.544 85.8385 362.758 86.1685 363.017L87.175 363.77L87.2135 363.798C91.2326 364.542 95.1085 365.917 98.6975 367.873C100.669 368.953 102.523 370.234 104.231 371.696C105.092 372.443 105.909 373.24 106.678 374.083L107.008 374.44L106.15 372.829L105.782 372.13C105.655 371.899 105.512 371.674 105.38 371.443L104.561 370.084C103.51 368.247 102.234 366.553 101.024 364.815L99.055 362.313L98.56 361.691L98.318 361.378C98.2355 361.273 98.131 361.163 98.0375 361.053L96.899 359.772C95.335 358.086 93.6088 356.559 91.7455 355.212C91.278 354.871 90.783 354.58 90.3045 354.261C90.0625 354.107 89.826 353.947 89.5785 353.804L88.825 353.386C87.8276 352.831 86.7993 352.333 85.745 351.896C83.6634 351.05 81.4994 350.423 79.288 350.026C75.0168 349.264 70.6483 349.221 66.363 349.899C64.2849 350.214 62.2345 350.69 60.2305 351.324C59.235 351.643 58.2505 351.989 57.288 352.424C56.3148 352.805 55.3668 353.247 54.45 353.749L54.6755 354.569C56.6885 354.607 58.685 354.695 60.6375 354.86C62.59 355.025 64.4875 355.223 66.396 355.515C70.0433 356.036 73.6241 356.946 77.077 358.232C78.7139 358.845 80.3119 359.558 81.862 360.366Z" fill="#7BCE34"/>
<path d="M173.123 346.632C172.147 346.257 171.148 345.944 170.131 345.697C169.125 345.439 168.102 345.235 167.073 345.065C164.996 344.73 162.896 344.555 160.793 344.542C156.454 344.492 152.138 345.167 148.022 346.539C145.89 347.252 143.839 348.184 141.9 349.322C140.921 349.908 139.975 350.549 139.068 351.241L138.386 351.791C138.16 351.973 137.951 352.165 137.731 352.341C137.302 352.721 136.857 353.084 136.444 353.485C134.795 355.089 133.306 356.85 132 358.743L131.059 360.179C130.982 360.3 130.9 360.421 130.834 360.536L130.636 360.883L130.24 361.57L128.651 364.32C127.705 366.212 126.687 368.077 125.901 370.046L125.29 371.514C125.191 371.756 125.086 371.998 124.993 372.246L124.724 372.988L123.668 375.975C123.057 377.988 122.425 379.995 121.941 382.025L121.545 383.548L121.209 385.083L120.868 386.617L120.697 387.382L120.56 388.157C120.373 389.186 120.136 390.209 119.922 391.232C119.707 392.255 119.488 393.289 119.268 394.323C119.048 395.357 118.899 396.391 118.761 397.436C118.624 398.481 118.58 399.531 118.547 400.582C118.547 401.132 118.547 401.638 118.574 402.166C118.602 402.694 118.608 403.216 118.641 403.744C118.734 404.8 118.828 405.845 118.998 406.896C119.162 407.948 119.38 408.99 119.653 410.02C119.919 411.068 120.263 412.096 120.681 413.094L127.182 412.379C127.622 410.449 127.875 408.568 128.117 406.681L128.293 405.273C128.342 404.806 128.403 404.338 128.436 403.871C128.552 402.936 128.645 402.006 128.717 401.071C128.788 400.136 128.865 399.207 128.893 398.272C128.92 397.337 128.959 396.396 128.97 395.45C128.981 394.504 129.057 393.569 129.118 392.629C129.178 391.688 129.343 390.759 129.486 389.829L129.607 389.136L129.756 388.443L130.053 387.068C130.152 386.606 130.251 386.15 130.361 385.693L130.735 384.335C131.202 382.514 131.835 380.754 132.434 378.983L133.457 376.376L133.711 375.727C133.804 375.513 133.903 375.298 134.002 375.089L134.552 373.813L135.102 372.537C135.278 372.108 135.52 371.712 135.718 371.289L136.961 368.797L138.347 366.388L138.694 365.789L138.87 365.486C138.93 365.387 138.991 365.31 139.051 365.222L139.755 364.172C139.986 363.82 140.267 363.506 140.52 363.171L140.905 362.67C141.037 362.511 141.185 362.357 141.323 362.203C141.603 361.895 141.873 361.565 142.159 361.262L143.044 360.377C143.335 360.074 143.66 359.827 143.968 359.519C144.122 359.381 144.276 359.233 144.435 359.095C144.595 358.958 144.766 358.837 144.925 358.699C145.558 358.149 146.251 357.649 146.922 357.126C148.331 356.106 149.8 355.171 151.322 354.327C154.553 352.559 157.964 351.141 161.497 350.097C163.317 349.547 165.187 349.047 167.101 348.612C169.015 348.178 170.951 347.793 172.959 347.463L173.123 346.632Z" fill="#7BCE34"/>
<path d="M144.023 359.53L144.094 359.469C142.25 360.019 140.452 360.712 138.715 361.543C136.69 362.512 134.769 363.688 132.984 365.052C132.084 365.754 131.223 366.505 130.405 367.301L129.8 367.901C129.602 368.11 129.409 368.324 129.217 368.539C128.837 368.968 128.436 369.38 128.078 369.831C126.635 371.623 125.369 373.552 124.3 375.59L123.541 377.13C123.48 377.262 123.409 377.394 123.359 377.515L123.205 377.883L122.897 378.615L122.837 378.752C122.518 379.852 122.21 380.952 121.951 382.052L121.555 383.576L121.22 385.11L120.879 386.645L120.708 387.409L120.571 388.185C120.384 389.213 120.147 390.236 119.933 391.259C119.718 392.282 119.498 393.316 119.278 394.35C119.058 395.384 118.91 396.418 118.772 397.463C118.635 398.508 118.591 399.559 118.558 400.609C118.558 401.159 118.558 401.665 118.585 402.193C118.613 402.721 118.618 403.244 118.651 403.772C118.745 404.828 118.838 405.873 119.009 406.923C119.173 407.975 119.391 409.018 119.663 410.047C119.93 411.096 120.274 412.123 120.692 413.122L125.785 412.572C125.788 412.531 125.788 412.491 125.785 412.451C125.713 411.516 125.642 410.575 125.592 409.629C125.543 408.683 125.592 407.748 125.592 406.808L125.631 406.104L125.691 405.4L125.818 403.997C125.862 403.53 125.906 403.062 125.961 402.595L126.164 401.203C126.406 399.339 126.824 397.513 127.198 395.703L127.897 392.992L128.067 392.315C128.133 392.09 128.21 391.87 128.276 391.65L128.694 390.313L129.096 388.982C129.222 388.531 129.409 388.108 129.558 387.662L130.487 385.039L130.691 384.566L130.735 384.395C131.202 382.575 131.835 380.815 132.434 379.044L133.457 376.437L133.71 375.788C133.804 375.573 133.903 375.359 134.002 375.15L134.552 373.874L135.102 372.598C135.278 372.169 135.52 371.773 135.718 371.349L136.961 368.858L138.347 366.449L138.693 365.849L138.869 365.547C138.93 365.448 138.99 365.371 139.051 365.283L139.755 364.232C139.986 363.88 140.266 363.567 140.519 363.231L140.904 362.731C141.036 362.571 141.185 362.417 141.322 362.263C141.603 361.955 141.872 361.625 142.158 361.323L143.044 360.437C143.39 360.085 143.715 359.821 144.023 359.53Z" fill="#3C8F2D"/>
<path d="M126.351 414.42L125.653 414.337C124.003 410.581 118.871 399.108 112.541 384.725C97.086 349.597 74.36 297.16 76.6865 297.655C79.871 298.331 95.007 322.581 110.434 352.506C111.941 355.439 113.447 358.408 114.95 361.411C116.512 364.553 118.015 367.552 119.46 370.409C120.01 373.621 120.505 376.948 120.972 380.309C124.069 402.837 126.351 414.42 126.351 414.42Z" fill="#7BCE34"/>
<path d="M126.357 407.979C126.357 407.979 122.281 396.902 115.687 375.166C109.092 353.43 100.952 334.411 98.516 333.641C97.3775 333.278 100.864 349.718 104.896 367.279C112.15 383.906 118.992 399.361 122.892 408.139L126.357 407.979Z" fill="#3C8F2D"/>
<path d="M126.352 414.42L125.653 414.337L114.774 413.111C114.774 413.111 113.674 400.059 112.541 384.725C111.733 373.846 110.891 361.812 110.435 352.506C109.956 342.969 109.852 336.287 110.534 336.628C112.475 337.596 116.419 352.226 119.46 370.409C120.01 373.621 120.505 376.948 120.973 380.309C124.069 402.837 126.352 414.42 126.352 414.42Z" fill="#7BCE34"/>
<path d="M189.508 403.331C186.252 400.631 183.051 398.161 180.114 395.631C178.651 394.361 177.232 393.101 175.956 391.781C174.724 390.57 173.593 389.261 172.573 387.865C172.123 387.25 171.707 386.611 171.325 385.951C171.244 385.794 171.156 385.64 171.061 385.489C170.967 385.335 170.907 385.181 170.83 385.033L170.115 383.63C169.533 382.568 168.877 381.548 168.151 380.578C167.413 379.608 166.61 378.69 165.748 377.828C164.007 376.121 162.055 374.642 159.94 373.428C157.813 372.184 155.528 371.231 153.147 370.595C151.914 370.27 150.653 370.06 149.38 369.968C148.053 369.862 146.719 369.912 145.403 370.117C144.017 370.326 142.668 370.73 141.394 371.316C140.175 371.875 139.022 372.569 137.956 373.384C136.955 374.144 136.018 374.987 135.157 375.903C134.331 376.78 133.563 377.709 132.858 378.686C131.512 380.57 130.355 382.581 129.404 384.692C127.663 388.762 126.47 393.046 125.856 397.43C125.691 398.53 125.526 399.564 125.389 400.631L125.174 402.231C125.108 402.781 125.064 403.293 124.987 403.826C124.729 405.949 124.492 408.067 124.074 410.184L134.26 410.536C134.037 408.632 134.017 406.709 134.2 404.8C134.358 402.901 134.637 401.015 135.036 399.151C135.424 397.319 135.903 395.507 136.471 393.723C137.021 391.963 137.632 390.23 138.319 388.58C138.66 387.755 139.007 386.93 139.419 386.16C139.832 385.39 140.2 384.609 140.635 383.883C141.05 383.169 141.505 382.478 141.999 381.816C142.456 381.19 142.964 380.603 143.517 380.061C144.019 379.575 144.572 379.145 145.167 378.779C145.706 378.45 146.295 378.208 146.91 378.064C147.593 377.913 148.291 377.848 148.989 377.872C149.744 377.902 150.493 378.014 151.222 378.208C152.772 378.643 154.215 379.392 155.463 380.408C156.732 381.441 157.844 382.655 158.763 384.01C159.23 384.686 159.654 385.385 160.061 386.094C160.468 386.804 160.831 387.541 161.194 388.294L161.452 388.844L161.518 388.982L161.601 389.152L161.832 389.603C161.986 389.9 162.14 390.208 162.305 390.494C162.47 390.78 162.646 391.044 162.822 391.336C163.52 392.396 164.317 393.387 165.203 394.295C166.846 395.976 168.694 397.443 170.703 398.662C171.652 399.261 172.631 399.812 173.635 400.312C174.619 400.802 175.626 401.241 176.638 401.637C178.646 402.426 180.713 403.055 182.82 403.518C183.87 403.744 184.921 403.936 185.988 404.068C187.054 404.197 188.127 404.258 189.2 404.25L189.508 403.331Z" fill="#7BCE34"/>
<path d="M125.174 402.27L125.389 400.67C125.526 399.603 125.691 398.541 125.856 397.469C126.47 393.084 127.663 388.801 129.404 384.731C130.355 382.62 131.512 380.608 132.858 378.725C133.563 377.748 134.331 376.818 135.157 375.942C136.018 375.025 136.954 374.182 137.956 373.423C138.546 372.977 139.162 372.565 139.799 372.191C152.223 372.889 156.337 378.879 157.69 382.641C157.007 381.811 156.238 381.055 155.397 380.386C154.149 379.37 152.706 378.621 151.156 378.186C150.427 377.992 149.678 377.88 148.923 377.85C148.225 377.826 147.526 377.891 146.844 378.043C146.229 378.186 145.64 378.428 145.101 378.758C144.506 379.123 143.953 379.553 143.451 380.039C142.898 380.581 142.39 381.168 141.933 381.794C141.439 382.456 140.984 383.147 140.569 383.862C140.134 384.588 139.733 385.352 139.353 386.139C138.974 386.925 138.611 387.734 138.253 388.559C137.566 390.209 136.972 391.941 136.405 393.701C135.837 395.485 135.358 397.297 134.97 399.13C134.593 401.001 134.335 402.895 134.2 404.8C134.023 406.723 134.053 408.659 134.288 410.575L124.102 410.223C124.52 408.106 124.756 405.988 125.015 403.865C125.064 403.332 125.108 402.798 125.174 402.27Z" fill="#3C8F2D"/>
<path d="M45.1935 403.332C48.4495 400.631 51.645 398.162 54.5875 395.632C56.0505 394.361 57.4695 393.102 58.7455 391.782C59.9744 390.567 61.1054 389.258 62.128 387.866C62.5762 387.249 62.9929 386.61 63.3765 385.952C63.4572 385.794 63.5451 385.64 63.6405 385.49C63.7285 385.336 63.7945 385.182 63.8715 385.033L64.5865 383.631C65.1673 382.574 65.8235 381.562 66.55 380.6C67.2868 379.629 68.0899 378.71 68.9535 377.85C70.6948 376.143 72.6465 374.664 74.7615 373.45C76.8882 372.205 79.1729 371.252 81.554 370.618C82.7859 370.293 84.0453 370.083 85.316 369.991C86.6446 369.884 87.981 369.934 89.298 370.139C90.684 370.349 92.0336 370.753 93.3075 371.338C94.5282 371.912 95.6812 372.62 96.745 373.45C97.7452 374.21 98.6798 375.053 99.539 375.969C100.368 376.844 101.138 377.774 101.843 378.752C103.189 380.636 104.346 382.648 105.297 384.758C107.038 388.828 108.231 393.112 108.845 397.496C109.01 398.596 109.175 399.63 109.312 400.697L109.527 402.298C109.587 402.848 109.637 403.359 109.714 403.893C109.967 406.016 110.209 408.133 110.627 410.251L100.441 410.603C100.676 408.686 100.706 406.75 100.529 404.828C100.371 402.929 100.091 401.042 99.693 399.179C99.297 397.326 98.813 395.516 98.2575 393.751C97.702 391.985 97.097 390.258 96.4095 388.608C96.0685 387.783 95.722 386.958 95.3095 386.188C94.897 385.418 94.5285 384.637 94.094 383.911C93.6771 383.198 93.2218 382.507 92.73 381.843C92.2712 381.217 91.7616 380.631 91.2065 380.089C90.7061 379.601 90.1526 379.171 89.5565 378.807C89.0166 378.478 88.4282 378.237 87.813 378.092C87.1545 377.929 86.4784 377.848 85.8 377.85C85.0456 377.879 84.2967 377.992 83.567 378.186C82.0178 378.621 80.5746 379.37 79.3265 380.386C78.057 381.419 76.9453 382.633 76.0265 383.988C75.559 384.665 75.1355 385.363 74.7285 386.073C74.3215 386.782 73.9585 387.519 73.59 388.273L73.3315 388.823L73.271 388.96C73.271 389.01 73.2325 389.043 73.1885 389.131L72.9575 389.582C72.798 389.879 72.6495 390.187 72.4845 390.473C72.3195 390.759 72.1435 391.023 71.9345 391.314C71.2385 392.374 70.4429 393.365 69.5585 394.273C67.9157 395.954 66.0679 397.421 64.0585 398.64C63.1097 399.239 62.1313 399.79 61.127 400.29C60.137 400.781 59.136 401.223 58.124 401.616C56.116 402.404 54.049 403.033 51.942 403.497C50.8915 403.722 49.8355 403.915 48.774 404.047C47.7004 404.195 46.6183 404.274 45.5345 404.283L45.1935 403.332Z" fill="#7BCE34"/>
<path d="M109.527 402.27L109.312 400.67C109.175 399.603 109.01 398.541 108.845 397.469C108.231 393.084 107.038 388.801 105.297 384.731C104.346 382.62 103.189 380.608 101.844 378.725C101.138 377.747 100.368 376.817 99.539 375.942C98.6787 375.035 97.7441 374.201 96.745 373.45C96.1551 373.004 95.5399 372.593 94.9025 372.218C82.5 372.9 78.364 378.879 77 382.641C77.6866 381.812 78.457 381.056 79.299 380.386C80.5471 379.37 81.9904 378.621 83.5395 378.186C84.2782 377.99 85.0364 377.877 85.8 377.85C86.4984 377.826 87.1969 377.891 87.879 378.042C88.4942 378.187 89.0827 378.429 89.6225 378.758C90.2186 379.122 90.7721 379.552 91.2725 380.039C91.8276 380.581 92.3372 381.168 92.796 381.794C93.2878 382.458 93.7431 383.148 94.16 383.862C94.5945 384.588 94.996 385.352 95.3755 386.139C95.755 386.925 96.118 387.733 96.4755 388.558C97.163 390.208 97.757 391.941 98.3235 393.701C98.89 395.461 99.363 397.276 99.759 399.13C100.136 401.001 100.393 402.895 100.529 404.8C100.706 406.723 100.676 408.659 100.441 410.575L110.627 410.223C110.209 408.106 109.967 405.988 109.714 403.865C109.637 403.332 109.588 402.798 109.527 402.27Z" fill="#3C8F2D"/>
<path d="M135.157 453.558H104.357C102.435 453.556 100.577 452.866 99.1205 451.612C97.6642 450.357 96.7062 448.622 96.4205 446.721L90.992 410.558C90.6125 408.05 109.048 410.009 120.334 409.926C130.966 409.816 148.346 408.826 148.159 410.08L143.104 446.721C142.817 448.623 141.858 450.359 140.399 451.614C138.941 452.868 137.081 453.558 135.157 453.558Z" fill="#ABBCCA"/>
<path d="M119.559 409.932C108.273 410.047 90.6015 408.05 90.959 410.558L96.3875 446.721C96.6731 448.622 97.6312 450.357 99.0875 451.612C100.544 452.866 102.402 453.556 104.324 453.558H116.512C113.317 450.022 111.53 445.436 111.49 440.671C111.49 439.686 111.611 433.345 116.22 428.279C118.97 425.254 123.436 423.709 132.368 420.612C136.658 419.127 140.068 418.374 143.781 415.233C145.344 413.981 146.759 412.555 147.999 410.982L148.126 410.08C148.335 408.826 130.196 409.827 119.559 409.932Z" fill="#91A6B5"/>
<path d="M611.551 366.658H518.848V452.804H611.551V366.658Z" fill="#C9EFFB"/>
<path d="M614.807 361.79H515.598V366.658H614.807V361.79Z" fill="#C9EFFB"/>
<path d="M611.551 366.658H518.848V371.195H611.551V366.658Z" fill="#80CBE8"/>
<path d="M540.65 338.833H560.494V351.868C560.494 354.494 559.451 357.012 557.594 358.868C555.738 360.725 553.22 361.768 550.594 361.768C547.968 361.768 545.45 360.725 543.594 358.868C541.737 357.012 540.694 354.494 540.694 351.868V338.833H540.65Z" fill="#80CBE8"/>
<path d="M589.688 338.833H609.532V351.868C609.532 354.494 608.489 357.012 606.632 358.868C604.776 360.725 602.258 361.768 599.632 361.768C597.006 361.768 594.488 360.725 592.632 358.868C590.775 357.012 589.732 354.494 589.732 351.868V338.833H589.688Z" fill="#80CBE8"/>
<path d="M540.661 347.034H560.5" stroke="#FDFCF8" stroke-width="3" stroke-miterlimit="10"/>
<path d="M589.688 347.034H609.532" stroke="#FDFCF8" stroke-width="3" stroke-miterlimit="10"/>
<path d="M518.848 390.489H611.556" stroke="#FDFCF8" stroke-width="3" stroke-miterlimit="10"/>
<path d="M518.848 411.807H611.556" stroke="#FDFCF8" stroke-width="3" stroke-miterlimit="10"/>
<path d="M518.848 433.125H611.556" stroke="#FDFCF8" stroke-width="3" stroke-miterlimit="10"/>
<path d="M565.202 382.723C567.164 382.723 568.755 381.132 568.755 379.17C568.755 377.208 567.164 375.617 565.202 375.617C563.24 375.617 561.649 377.208 561.649 379.17C561.649 381.132 563.24 382.723 565.202 382.723Z" fill="#80CBE8"/>
<path d="M565.202 404.701C567.164 404.701 568.755 403.11 568.755 401.148C568.755 399.186 567.164 397.595 565.202 397.595C563.24 397.595 561.649 399.186 561.649 401.148C561.649 403.11 563.24 404.701 565.202 404.701Z" fill="#80CBE8"/>
<path d="M565.202 426.674C567.164 426.674 568.755 425.083 568.755 423.121C568.755 421.158 567.164 419.568 565.202 419.568C563.24 419.568 561.649 421.158 561.649 423.121C561.649 425.083 563.24 426.674 565.202 426.674Z" fill="#80CBE8"/>
<path d="M565.202 448.646C567.164 448.646 568.755 447.055 568.755 445.093C568.755 443.131 567.164 441.54 565.202 441.54C563.24 441.54 561.649 443.131 561.649 445.093C561.649 447.055 563.24 448.646 565.202 448.646Z" fill="#80CBE8"/>
<path d="M188.931 166.65H126.781C126.333 166.65 125.903 166.472 125.587 166.155C125.27 165.839 125.092 165.409 125.092 164.961V97.68C125.093 97.2326 125.272 96.804 125.588 96.4876C125.905 96.1713 126.333 95.9929 126.781 95.9915H200.442C200.889 95.9929 201.318 96.1713 201.634 96.4876C201.951 96.804 202.129 97.2326 202.131 97.68V153.928L188.931 166.65Z" fill="#A2AEE6"/>
<path d="M176.259 111.518H165.325V122.452H176.259V111.518Z" fill="#C0D6F2"/>
<path d="M191.428 111.518H180.494V122.452H191.428V111.518Z" fill="#C0D6F2"/>
<path d="M176.259 125.015H165.325V135.949H176.259V125.015Z" fill="#C0D6F2"/>
<path d="M191.428 125.015H180.494V135.949H191.428V125.015Z" fill="#C0D6F2"/>
<path d="M176.259 138.512H165.325V149.446H176.259V138.512Z" fill="#C0D6F2"/>
<path d="M191.428 138.512H180.494V149.446H191.428V138.512Z" fill="#C0D6F2"/>
<path d="M145.8 138.512H134.866V149.446H145.8V138.512Z" fill="#C0D6F2"/>
<path d="M145.8 151.998H134.866V162.932H145.8V151.998Z" fill="#C0D6F2"/>
<path d="M145.8 125.015H134.866V135.949H145.8V125.015Z" fill="#C0D6F2"/>
<path d="M160.655 138.512H149.721V149.446H160.655V138.512Z" fill="#C0D6F2"/>
<path d="M160.655 125.015H149.721V135.949H160.655V125.015Z" fill="#C0D6F2"/>
<path d="M200.442 166.65C200.89 166.65 201.319 166.472 201.636 166.155C201.953 165.839 202.131 165.409 202.131 164.961V153.961L188.931 166.661L200.442 166.65Z" fill="#A2AEE6"/>
<path d="M138.314 103.906C137.979 103.906 137.657 103.773 137.42 103.535C137.182 103.298 137.049 102.977 137.049 102.641V90.4915C137.049 90.156 137.182 89.8342 137.42 89.597C137.657 89.3598 137.979 89.2265 138.314 89.2265C138.65 89.2265 138.971 89.3598 139.209 89.597C139.446 89.8342 139.579 90.156 139.579 90.4915V102.641C139.579 102.977 139.446 103.298 139.209 103.535C138.971 103.773 138.65 103.906 138.314 103.906Z" fill="#EA8826"/>
<path d="M129.877 103.906C129.542 103.906 129.22 103.773 128.983 103.535C128.745 103.298 128.612 102.977 128.612 102.641V90.4915C128.612 90.3254 128.645 90.1609 128.708 90.0074C128.772 89.8539 128.865 89.7145 128.983 89.597C129.1 89.4795 129.239 89.3864 129.393 89.3228C129.546 89.2592 129.711 89.2265 129.877 89.2265C130.043 89.2265 130.208 89.2592 130.361 89.3228C130.515 89.3864 130.654 89.4795 130.772 89.597C130.889 89.7145 130.982 89.8539 131.046 90.0074C131.109 90.1609 131.142 90.3254 131.142 90.4915V102.641C131.142 102.977 131.009 103.298 130.772 103.535C130.534 103.773 130.213 103.906 129.877 103.906Z" fill="#EA8826"/>
<path d="M146.751 103.906C146.585 103.906 146.42 103.873 146.267 103.81C146.114 103.746 145.974 103.653 145.857 103.535C145.739 103.418 145.646 103.279 145.582 103.125C145.519 102.972 145.486 102.807 145.486 102.641V90.4915C145.486 90.156 145.619 89.8342 145.857 89.597C146.094 89.3598 146.416 89.2265 146.751 89.2265C147.087 89.2265 147.408 89.3598 147.646 89.597C147.883 89.8342 148.016 90.156 148.016 90.4915V102.641C148.016 102.977 147.883 103.298 147.646 103.535C147.408 103.773 147.087 103.906 146.751 103.906Z" fill="#EA8826"/>
<path d="M155.188 103.906C155.022 103.907 154.857 103.875 154.703 103.811C154.549 103.748 154.409 103.655 154.292 103.537C154.174 103.42 154.081 103.28 154.018 103.126C153.954 102.972 153.922 102.807 153.923 102.641V90.4915C153.923 90.156 154.056 89.8342 154.294 89.597C154.531 89.3598 154.852 89.2265 155.188 89.2265C155.523 89.2265 155.845 89.3598 156.082 89.597C156.32 89.8342 156.453 90.156 156.453 90.4915V102.641C156.453 102.976 156.32 103.298 156.082 103.535C155.845 103.773 155.523 103.906 155.188 103.906Z" fill="#EA8826"/>
<path d="M163.619 103.906C163.284 103.906 162.962 103.773 162.725 103.535C162.488 103.298 162.354 102.976 162.354 102.641V90.4915C162.376 90.1697 162.518 89.868 162.754 89.6476C162.989 89.4272 163.3 89.3045 163.622 89.3045C163.945 89.3045 164.255 89.4272 164.491 89.6476C164.726 89.868 164.869 90.1697 164.89 90.4915V102.641C164.89 102.808 164.857 102.973 164.793 103.126C164.729 103.28 164.636 103.42 164.518 103.537C164.399 103.655 164.259 103.748 164.105 103.811C163.951 103.875 163.786 103.907 163.619 103.906Z" fill="#EA8826"/>
<path d="M172.056 103.906C171.721 103.906 171.399 103.773 171.162 103.535C170.925 103.298 170.792 102.977 170.792 102.641V90.4915C170.792 90.156 170.925 89.8342 171.162 89.597C171.399 89.3598 171.721 89.2265 172.056 89.2265C172.392 89.2265 172.714 89.3598 172.951 89.597C173.188 89.8342 173.322 90.156 173.322 90.4915V102.641C173.322 102.977 173.188 103.298 172.951 103.535C172.714 103.773 172.392 103.906 172.056 103.906Z" fill="#EA8826"/>
<path d="M180.494 103.906C180.158 103.906 179.836 103.773 179.599 103.535C179.362 103.298 179.229 102.977 179.229 102.641V90.4915C179.229 90.156 179.362 89.8342 179.599 89.597C179.836 89.3598 180.158 89.2265 180.494 89.2265C180.829 89.2265 181.151 89.3598 181.388 89.597C181.625 89.8342 181.759 90.156 181.759 90.4915V102.641C181.759 102.977 181.625 103.298 181.388 103.535C181.151 103.773 180.829 103.906 180.494 103.906Z" fill="#EA8826"/>
<path d="M188.931 103.906C188.595 103.906 188.273 103.773 188.036 103.535C187.799 103.298 187.666 102.977 187.666 102.641V90.4915C187.666 90.156 187.799 89.8342 188.036 89.597C188.273 89.3598 188.595 89.2265 188.931 89.2265C189.266 89.2265 189.588 89.3598 189.825 89.597C190.062 89.8342 190.196 90.156 190.196 90.4915V102.641C190.196 102.977 190.062 103.298 189.825 103.535C189.588 103.773 189.266 103.906 188.931 103.906Z" fill="#EA8826"/>
<path d="M197.368 103.906C197.032 103.906 196.71 103.773 196.473 103.535C196.236 103.298 196.103 102.977 196.103 102.641V90.4915C196.103 90.156 196.236 89.8342 196.473 89.597C196.71 89.3598 197.032 89.2265 197.368 89.2265C197.703 89.2265 198.025 89.3598 198.262 89.597C198.499 89.8342 198.633 90.156 198.633 90.4915V102.641C198.633 102.977 198.499 103.298 198.262 103.535C198.025 103.773 197.703 103.906 197.368 103.906Z" fill="#EA8826"/>
<path d="M202.07 153.868L188.875 153.989L188.991 166.689L202.07 153.868Z" fill="#C0D6F2"/>
<path d="M152.009 138.633C153.28 140.278 154.443 142.003 155.491 143.798C156.041 144.694 156.53 145.59 157.014 146.509C157.498 147.427 157.96 148.362 158.362 149.325C157.707 148.511 157.113 147.675 156.536 146.795C155.958 145.915 155.436 145.046 154.886 144.16C153.809 142.382 152.848 140.536 152.009 138.633Z" fill="#AF2F2F"/>
<path d="M158.362 138.633C157.525 140.535 156.566 142.382 155.491 144.16C154.941 145.046 154.391 145.931 153.841 146.795C153.291 147.658 152.669 148.511 152.015 149.325C152.416 148.362 152.878 147.427 153.362 146.509C153.846 145.59 154.363 144.694 154.886 143.798C155.934 142.004 157.095 140.279 158.362 138.633Z" fill="#AF2F2F"/>
<path d="M421.916 227.783H429.754V261.366C429.754 262.404 429.341 263.4 428.607 264.135C427.872 264.869 426.876 265.281 425.838 265.281C424.799 265.281 423.803 264.869 423.068 264.135C422.334 263.4 421.922 262.404 421.922 261.366V227.783H421.916Z" fill="#54A4CC"/>
<path d="M430.87 223.905H420.794V227.783H430.87V223.905Z" fill="#396E8E"/>
<path d="M425.832 265.287C426.871 265.287 427.868 264.875 428.603 264.14C429.338 263.406 429.752 262.41 429.753 261.371V230.621C428.654 232.311 427.893 234.2 427.515 236.181C427.025 238.651 427.548 239.613 428.065 244.58C428.758 251.141 429.071 254.48 427.515 256.333C425.694 258.533 423.164 257.857 421.916 260.249V261.349C421.913 261.865 422.012 262.377 422.208 262.854C422.403 263.332 422.691 263.766 423.055 264.132C423.419 264.498 423.852 264.789 424.328 264.987C424.805 265.185 425.316 265.287 425.832 265.287Z" fill="#396E8E"/>
<path d="M436.612 227.783H444.45V261.366C444.45 262.404 444.037 263.4 443.303 264.135C442.568 264.869 441.572 265.281 440.534 265.281C439.495 265.281 438.499 264.869 437.765 264.135C437.03 263.4 436.618 262.404 436.618 261.366V227.783H436.612Z" fill="#EF3E3B"/>
<path d="M445.566 223.905H435.49V227.783H445.566V223.905Z" fill="#C82833"/>
<path d="M440.55 265.287C441.589 265.287 442.585 264.874 443.319 264.14C444.053 263.406 444.466 262.41 444.466 261.371V230.621C443.361 232.312 442.592 234.199 442.2 236.181C441.71 238.651 442.238 239.613 442.75 244.58C443.443 251.141 443.756 254.48 442.2 256.333C440.385 258.533 437.85 257.857 436.607 260.249V261.349C436.604 261.867 436.704 262.381 436.901 262.861C437.098 263.34 437.389 263.776 437.755 264.142C438.122 264.508 438.558 264.798 439.038 264.995C439.518 265.191 440.032 265.291 440.55 265.287Z" fill="#C82833"/>
<path d="M451.302 227.783H459.14V261.366C459.14 262.404 458.727 263.4 457.993 264.135C457.259 264.869 456.263 265.281 455.224 265.281C454.185 265.281 453.189 264.869 452.455 264.135C451.721 263.4 451.308 262.404 451.308 261.366V227.783H451.302Z" fill="#54A4CC"/>
<path d="M460.262 223.905H450.186V227.783H460.262V223.905Z" fill="#396E8E"/>
<path d="M455.224 265.287C456.263 265.287 457.259 264.874 457.993 264.14C458.727 263.406 459.14 262.41 459.14 261.371V230.621C458.04 232.311 457.28 234.2 456.902 236.181C456.412 238.651 456.94 239.613 457.452 244.58C458.139 251.141 458.453 254.48 456.902 256.333C455.087 258.533 452.551 257.857 451.303 260.249V261.349C451.3 261.865 451.4 262.377 451.596 262.855C451.792 263.332 452.081 263.767 452.445 264.133C452.81 264.499 453.243 264.789 453.72 264.987C454.196 265.185 454.708 265.287 455.224 265.287Z" fill="#396E8E"/>
<path d="M465.999 227.783H473.836V261.366C473.836 262.404 473.423 263.4 472.689 264.135C471.955 264.869 470.959 265.281 469.92 265.281C468.881 265.281 467.885 264.869 467.151 264.135C466.417 263.4 466.004 262.404 466.004 261.366V227.783H465.999Z" fill="#EF3E3B"/>
<path d="M474.952 223.905H464.876V227.783H474.952V223.905Z" fill="#C82833"/>
<path d="M469.914 265.287C470.954 265.287 471.95 264.875 472.685 264.14C473.421 263.406 473.835 262.41 473.836 261.371V230.621C472.737 232.312 471.975 234.2 471.592 236.181C471.108 238.651 471.63 239.613 472.142 244.58C472.835 251.141 473.148 254.48 471.592 256.333C469.777 258.533 467.247 257.857 465.998 260.249V261.349C465.996 261.865 466.095 262.377 466.29 262.854C466.486 263.332 466.774 263.766 467.138 264.132C467.502 264.498 467.934 264.789 468.411 264.987C468.887 265.185 469.398 265.287 469.914 265.287Z" fill="#C82833"/>
<path d="M480.54 233.866V249.007H415.211V233.866H410.261V275.704H485.49V233.866H480.54ZM415.211 270.754V253.957H480.54V270.754H415.211Z" fill="#454851"/>
<path d="M245.526 246.29H210.677V253.599H245.526V246.29Z" fill="#54A4CC"/>
<path d="M206.8 254.677C199.507 254.589 192.547 251.606 187.453 246.386C182.358 241.166 179.546 234.135 179.635 226.842C179.724 219.549 182.707 212.589 187.927 207.495C193.147 202.401 200.178 199.589 207.471 199.677H208.021L212.168 205.7C198.594 206.954 187.786 216.321 187.786 227.189C187.812 232.328 189.834 237.256 193.426 240.931C197.019 244.607 201.899 246.741 207.036 246.884L206.8 254.677Z" fill="#54A4CC"/>
<path d="M246.46 268.021H185.944V275.704H246.46V268.021Z" fill="#54A4CC"/>
<path d="M225.852 268.02H202.433V246.29H210.677L225.852 268.02Z" fill="#E3EAF3"/>
<path d="M249.931 231.858H224.075V238.04H249.931V231.858Z" fill="#E3EAF3"/>
<path d="M253.676 228.487H220.324V231.858H253.676V228.487Z" fill="#54A4CC"/>
<path d="M243.468 238.046H230.538V246.29H243.468V238.046Z" fill="#54A4CC"/>
<path d="M236.638 215.314L231.594 220.528L233.764 222.628L238.808 217.414L236.638 215.314Z" fill="#54A4CC"/>
<path d="M201.839 182.056L197.197 186.862L193.6 181.214L196.075 178.651L201.839 182.056Z" fill="#54A4CC"/>
<path d="M200.72 180.961L196.074 185.764C194.874 187.004 194.907 188.982 196.147 190.181L227.882 220.881C229.122 222.08 231.1 222.048 232.3 220.808L236.946 216.005C238.145 214.765 238.113 212.787 236.873 211.587L205.138 180.888C203.898 179.688 201.92 179.721 200.72 180.961Z" fill="#E3EAF3"/>
<path d="M208.664 197.67C211.073 197.67 213.026 195.717 213.026 193.308C213.026 190.9 211.073 188.947 208.664 188.947C206.256 188.947 204.303 190.9 204.303 193.308C204.303 195.717 206.256 197.67 208.664 197.67Z" fill="#54A4CC"/>
<path d="M227.348 217.701C228.05 217.701 228.619 217.132 228.619 216.431C228.619 215.729 228.05 215.16 227.348 215.16C226.646 215.16 226.078 215.729 226.078 216.431C226.078 217.132 226.646 217.701 227.348 217.701Z" fill="#54A4CC"/>
<path d="M208.664 195.767C210.022 195.767 211.123 194.666 211.123 193.309C211.123 191.951 210.022 190.85 208.664 190.85C207.307 190.85 206.206 191.951 206.206 193.309C206.206 194.666 207.307 195.767 208.664 195.767Z" fill="#E3EAF3"/>
<path d="M254.798 291.208H245.998V452.381H254.798V291.208Z" fill="#A04833"/>
<path d="M474.798 286.808H185.548V416.63H474.798V286.808Z" fill="#CC7829"/>
<path d="M474.793 286.808H410.113V416.63H474.793V286.808Z" fill="#A04833"/>
<path d="M361.328 328.625H231.528V367.675H361.328V328.625Z" fill="#E3EAF3"/>
<path d="M189.948 291.208H181.148V452.656H189.948V291.208Z" fill="#CC7829"/>
<path d="M493.251 275.715H167.095V291.208H493.251V275.715Z" fill="#895237"/>
<path d="M493.251 275.715H167.095V291.208H493.251V275.715Z" fill="#A04833"/>
<path d="M493.245 275.715H391.963V291.208H493.245V275.715Z" fill="#843A2C"/>
<path d="M479.198 291.208H470.398V452.381H479.198V291.208Z" fill="#A04833"/>
<path d="M414.513 291.208H405.713V452.656H414.513V291.208Z" fill="#CC7829"/>
</svg>
